<?xml version="1.0" encoding="UTF-8" standalone="no"?>
<!-- Created with Inkscape (http://www.inkscape.org/) -->

<svg
   width="210mm"
   height="297mm"
   viewBox="0 0 210 297"
   version="1.1"
   id="svg16136"
   inkscape:version="1.1.2 (0a00cf5339, 2022-02-04)"
   sodipodi:docname="Croco.svg"
   xmlns:inkscape="http://www.inkscape.org/namespaces/inkscape"
   xmlns:sodipodi="http://sodipodi.sourceforge.net/DTD/sodipodi-0.dtd"
   xmlns="http://www.w3.org/2000/svg"
   xmlns:svg="http://www.w3.org/2000/svg">
  <sodipodi:namedview
     id="namedview16138"
     pagecolor="#ffffff"
     bordercolor="#666666"
     borderopacity="1.0"
     inkscape:pageshadow="2"
     inkscape:pageopacity="0.0"
     inkscape:pagecheckerboard="0"
     inkscape:document-units="mm"
     showgrid="false"
     inkscape:zoom="1.0998546"
     inkscape:cx="466.87989"
     inkscape:cy="570.07535"
     inkscape:window-width="2560"
     inkscape:window-height="1403"
     inkscape:window-x="2560"
     inkscape:window-y="0"
     inkscape:window-maximized="1"
     inkscape:current-layer="layer1" />
  <defs
     id="defs16133" />
  <g
     inkscape:label="Layer 1"
     inkscape:groupmode="layer"
     id="layer1">
    <path
       style="fill:none;stroke:#f70000;stroke-width:0.264583px;stroke-linecap:butt;stroke-linejoin:miter;stroke-opacity:1"
       d="m 12.849511,111.62312 c 0,0 1.253998,-2.50528 2.242881,-3.45977 1.04787,-1.01143 2.344312,-1.85707 3.747937,-2.24547 1.191951,-0.32983 2.487621,-0.18697 3.710229,-5.2e-4 3.384436,0.51614 6.489051,2.20493 9.803395,3.06279 4.774775,1.23587 9.619881,2.21631 14.490346,2.99376 2.295769,0.36646 4.605439,0.7609 6.930144,0.78535 2.429242,0.0255 4.965049,0.13607 7.257433,-0.6682 2.672865,-0.93776 4.742935,-3.09851 7.093892,-4.67857 1.827806,-1.22846 3.404761,-2.91908 5.451107,-3.73299 1.07955,-0.42938 2.314502,-0.821 3.44274,-0.54375 1.374068,0.33766 3.408373,2.53016 3.408373,2.53016"
       id="path16242"
       sodipodi:nodetypes="cssssssssssc" />
    <path
       style="fill:none;stroke:#fa0000;stroke-width:0.264583px;stroke-linecap:butt;stroke-linejoin:miter;stroke-opacity:1"
       d="m 68.459082,111.90195 c 0,0 2.338145,-0.16456 3.416398,-0.57861 1.926284,-0.73969 3.392598,-2.37132 5.226571,-3.31697 1.854897,-0.95643 3.766851,-1.88445 5.798709,-2.36086 1.142287,-0.26783 2.356519,-0.47377 3.510171,-0.26014 0.996254,0.18449 1.951645,0.67111 2.749817,1.29519 0.728856,0.56989 1.753436,2.15162 1.753436,2.15162"
       id="path16367"
       sodipodi:nodetypes="csssssc" />
    <path
       style="fill:none;stroke:#fa0000;stroke-width:0.264583px;stroke-linecap:butt;stroke-linejoin:miter;stroke-opacity:1"
       d="m 78.747291,113.38816 c 0,0 2.086252,-1.94225 3.399779,-2.37017 0.821911,-0.26776 1.751391,-0.25315 2.592705,-0.0546 0.798688,0.18849 2.17845,1.14684 2.17845,1.14684"
       id="path16530"
       sodipodi:nodetypes="cssc" />
    <path
       style="fill:none;stroke:#fe0000;stroke-width:0.264583px;stroke-linecap:butt;stroke-linejoin:miter;stroke-opacity:1"
       d="m 71.156072,117.21361 c 0,0 2.163518,0.0747 3.145838,0.47423 0.860057,0.3498 1.634796,0.9407 2.262203,1.62511 0.697914,0.76133 1.582627,2.66376 1.582627,2.66376"
       id="path16655"
       sodipodi:nodetypes="cssc" />
    <path
       style="fill:none;stroke:#fd0000;stroke-width:0.264583px;stroke-linecap:butt;stroke-linejoin:miter;stroke-opacity:1"
       d="m 7.2753645,112.84336 c 0,0 1.2836024,-1.56805 2.1956733,-1.87601 0.7305832,-0.24668 1.5609602,-0.0553 2.3097122,0.12901 1.877548,0.46218 3.395545,1.96934 5.280121,2.40198 1.600493,0.36742 3.283532,0.16958 4.924912,0.12011 3.244715,-0.0978 6.463754,-1.02442 9.703704,-0.82327 2.533032,0.15726 5.000698,0.90719 7.448603,1.57707 1.561678,0.42736 2.994143,1.36412 4.602106,1.55368 2.409382,0.28403 4.829547,-0.85078 7.248152,-0.66066 1.46111,0.11486 2.881523,0.5877 4.262557,1.07839 2.501682,0.88887 4.739413,2.41804 7.222945,3.35643 1.917616,0.72456 3.761069,1.3076 5.810016,1.3713 1.644717,0.0511 3.48323,-0.13559 4.929114,-0.92117 0.872673,-0.47414 2.108864,-1.8835 2.108864,-1.8835"
       id="path16894"
       sodipodi:nodetypes="cssssssssssssc" />
    <path
       style="fill:none;stroke:#fb0000;stroke-width:0.264583px;stroke-linecap:butt;stroke-linejoin:miter;stroke-opacity:1"
       d="m 6.9639526,116.85572 c 0,0 0.3968084,1.88042 0.8423124,2.71768 0.8903874,1.67335 1.9479746,3.44063 3.564295,4.43078 0.904673,0.5542 2.054707,0.66393 3.115554,0.65073 0.955767,-0.0119 1.886047,-0.34967 2.791498,-0.65592 1.981147,-0.67009 3.700673,-2.0417 5.725008,-2.56709 2.55014,-0.66185 5.249002,-0.9015 7.874437,-0.68161 3.232847,0.27076 6.339924,1.42648 9.421543,2.4405 1.836673,0.60437 5.381844,2.16411 5.381844,2.16411"
       id="path17057"
       sodipodi:nodetypes="csssssssc" />
    <path
       style="fill:none;stroke:#f70000;stroke-width:0.264583px;stroke-linecap:butt;stroke-linejoin:miter;stroke-opacity:1"
       d="m 17.126144,111.9041 c 0,0 1.109393,-2.06211 2.100613,-2.53017 0.476072,-0.2248 1.118564,-0.26154 1.579424,-0.007 0.978313,0.54033 1.77284,2.84579 1.77284,2.84579"
       id="path17220"
       sodipodi:nodetypes="cssc" />
    <path
       style="fill:none;stroke:#f50000;stroke-width:0.264583px;stroke-linecap:butt;stroke-linejoin:miter;stroke-opacity:1"
       d="m 31.236208,114.32278 c 0,0 0.423176,3.53578 1.762109,4.33742 0.353147,0.21143 0.86444,0.0626 1.227881,-0.1306 1.269276,-0.67474 2.77668,-3.29955 2.77668,-3.29955"
       id="path17345"
       sodipodi:nodetypes="cssc" />
    <path
       style="fill:none;stroke:#fa0000;stroke-width:0.264583px;stroke-linecap:butt;stroke-linejoin:miter;stroke-opacity:1"
       d="m 58.532661,120.15667 c 0,0 1.306565,3.08457 2.374863,4.34139 0.836783,0.98445 1.880399,1.84872 3.056456,2.38373 1.133234,0.51553 2.423481,0.64416 3.666676,0.7109 0.984439,0.0528 2.02577,0.10201 2.947082,-0.24884 1.136786,-0.43291 2.204533,-1.20536 2.919452,-2.18953 0.86884,-1.19606 1.433632,-4.19686 1.433632,-4.19686"
       id="path17660"
       sodipodi:nodetypes="csssssc" />
    <path
       style="fill:none;stroke:#f90000;stroke-width:0.264583px;stroke-linecap:butt;stroke-linejoin:miter;stroke-opacity:1"
       d="m 59.972987,123.30365 2.785827,-3.48149"
       id="path17899" />
    <path
       style="fill:none;stroke:#f80000;stroke-width:0.264583px;stroke-linecap:butt;stroke-linejoin:miter;stroke-opacity:1"
       d="m 63.202753,120.00175 0.289923,6.71966"
       id="path17934" />
    <path
       style="fill:none;stroke:#ff0000;stroke-width:0.264583px;stroke-linecap:butt;stroke-linejoin:miter;stroke-opacity:1"
       d="m 66.992459,120.92701 -2.872761,6.00719"
       id="path17969" />
    <path
       style="fill:none;stroke:#ed0000;stroke-width:0.264583px;stroke-linecap:butt;stroke-linejoin:miter;stroke-opacity:1"
       d="m 69.009164,127.70312 -1.881161,-6.71367"
       id="path18004" />
    <path
       style="fill:none;stroke:#f90000;stroke-width:0.264583px;stroke-linecap:butt;stroke-linejoin:miter;stroke-opacity:1"
       d="m 70.872804,120.89921 -1.24692,6.73576"
       id="path18039" />
    <path
       style="fill:none;stroke:#f30000;stroke-width:0.264583px;stroke-linecap:butt;stroke-linejoin:miter;stroke-opacity:1"
       d="M 73.549348,125.11789 70.937281,120.9234"
       id="path18074" />
    <path
       style="fill:none;stroke:#fd0000;stroke-width:0.264583px;stroke-linecap:butt;stroke-linejoin:miter;stroke-opacity:1"
       d="m 47.624401,127.18583 c 0,0 3.389262,2.22268 5.190231,3.14325 1.296251,0.66259 2.601912,1.38104 4.021675,1.70285 1.455911,0.33 2.992947,0.39036 4.47394,0.20264 1.458438,-0.18486 2.801481,-0.87339 4.259211,-1.06375 1.047571,-0.1368 2.090375,-0.005 3.124616,0.21081 3.955369,0.82438 7.354692,3.16971 11.286554,4.09977 1.497833,0.3543 3.068518,0.59104 4.598265,0.42102 1.3191,-0.14661 2.687487,-0.48382 3.788603,-1.22481 0.971917,-0.65405 1.782722,-1.62125 2.260886,-2.69072 0.438206,-0.9801 0.456072,-3.18834 0.456072,-3.18834"
       id="path18109"
       sodipodi:nodetypes="csssssssssc" />
    <path
       style="fill:none;stroke:#f80000;stroke-width:0.264583px;stroke-linecap:butt;stroke-linejoin:miter;stroke-opacity:1"
       d="m 52.318313,132.29377 c 0,0 1.711077,2.41495 2.844872,3.33779 1.598634,1.30119 3.614522,1.98247 5.422551,2.9723 0.74655,0.40871 1.543674,0.73598 2.240285,1.22497 1.769975,1.24245 3.237304,2.86809 4.861515,4.29582 0.729084,0.64089 1.353002,1.42914 2.192229,1.91699 1.209532,0.70311 2.577625,1.19316 3.964363,1.37835 0.843344,0.11262 1.742926,0.10366 2.5464,-0.17623 1.595509,-0.5558 3.236139,-1.46587 4.179546,-2.86749 0.757698,-1.12572 0.87004,-3.97682 0.87004,-3.97682"
       id="path18348"
       sodipodi:nodetypes="cssssssssc" />
    <path
       style="fill:none;stroke:#f60000;stroke-width:0.264583px;stroke-linecap:butt;stroke-linejoin:miter;stroke-opacity:1"
       d="m 78.24929,147.65109 c 0,0 2.492031,0.98531 3.800419,1.2352 1.271888,0.24292 2.582913,0.29382 3.876881,0.24529 2.258088,-0.0847 4.525086,-0.37424 6.714429,-0.93362 1.755093,-0.44843 3.502328,-1.03859 5.08195,-1.92529 1.26986,-0.71282 2.671991,-1.44988 3.448941,-2.68155 0.59901,-0.94958 0.76431,-2.16831 0.72061,-3.29019 -0.0468,-1.20179 -0.38013,-2.45079 -1.04376,-3.45382 -0.80401,-1.21521 -2.111774,-2.04299 -3.356661,-2.80024 -0.753343,-0.45825 -1.581276,-0.81937 -2.438842,-1.02455 -0.715979,-0.1713 -2.202841,-0.15882 -2.202841,-0.15882"
       id="path18511"
       sodipodi:nodetypes="csssssssssc" />
    <path
       style="fill:none;stroke:#fc0000;stroke-width:0.264583px;stroke-linecap:butt;stroke-linejoin:miter;stroke-opacity:1"
       d="m 91.481919,115.26184 c 0,0 2.174006,2.42449 2.772728,3.90413 0.340556,0.84163 0.503366,1.78937 0.410959,2.69257 -0.09371,0.91589 -0.458667,1.81789 -0.961009,2.58944 -0.337254,0.51799 -1.328785,1.29338 -1.328785,1.29338"
       id="path18745"
       sodipodi:nodetypes="csssc" />
    <path
       style="fill:none;stroke:#fa0000;stroke-width:0.264583px;stroke-linecap:butt;stroke-linejoin:miter;stroke-opacity:1"
       d="m 93.219396,109.08351 c 0,0 2.589443,-1.0929 3.93687,-1.48018 1.373133,-0.39466 2.780173,-0.6986 4.200634,-0.85204 1.01444,-0.10958 2.29602,-0.72176 3.06069,-0.0462 0.1502,0.13269 0.13137,0.40857 0.0651,0.59771 -0.29755,0.84929 -1.23856,1.30808 -1.90336,1.9146 -1.12405,1.02552 -2.55805,1.72809 -3.518076,2.90857 -0.622504,0.76545 -1.381437,2.61773 -1.381437,2.61773"
       id="path18908"
       sodipodi:nodetypes="cssssssc" />
    <path
       style="fill:none;stroke:#fc0000;stroke-width:0.264583px;stroke-linecap:butt;stroke-linejoin:miter;stroke-opacity:1"
       d="m 100.82,115.9652 c 0,0 4.37776,1.44067 6.41041,2.50416 1.9728,1.03218 5.54409,3.72548 5.54409,3.72548"
       id="path19071"
       sodipodi:nodetypes="csc" />
    <path
       style="fill:none;stroke:#f60000;stroke-width:0.264583px;stroke-linecap:butt;stroke-linejoin:miter;stroke-opacity:1"
       d="m 115.87802,121.65355 c 0,0 4.10371,-2.02871 6.23603,-2.85206 1.93419,-0.74685 3.88394,-1.53463 5.92735,-1.88585 0.92808,-0.15951 1.92058,-0.35866 2.82357,-0.0915 0.55156,0.16319 1.2467,0.43577 1.41662,0.98529 0.14997,0.48501 -0.249,1.00846 -0.54122,1.42359 -0.61966,0.88031 -2.45465,2.0988 -2.45465,2.0988"
       id="path19234"
       sodipodi:nodetypes="csssssc" />
    <path
       style="fill:none;stroke:#fa0000;stroke-width:0.264583px;stroke-linecap:butt;stroke-linejoin:miter;stroke-opacity:1"
       d="m 133.5707,122.01462 c 0,0 4.89963,-1.37703 7.40082,-1.82342 1.95361,-0.34866 3.9319,-0.66918 5.91637,-0.66333 1.17344,0.003 2.41257,-0.0377 3.49604,0.41287 0.6031,0.25083 1.25397,0.62835 1.53504,1.21796 0.11033,0.23144 0.0922,0.53312 -0.008,0.76912 -0.36345,0.85602 -1.987,1.95846 -1.987,1.95846"
       id="path19397"
       sodipodi:nodetypes="csssssc" />
    <path
       style="fill:none;stroke:#f50000;stroke-width:0.264583px;stroke-linecap:butt;stroke-linejoin:miter;stroke-opacity:1"
       d="m 153.06163,125.65864 c 0,0 1.48117,-0.97626 2.31848,-1.22952 1.96762,-0.59515 4.08391,-0.49817 6.13627,-0.61469 1.52573,-0.0866 3.08782,-0.37277 4.58414,-0.0623 0.88588,0.18381 1.97403,0.3604 2.47527,1.11361 0.14171,0.21295 0.0919,0.52156 0.0202,0.7671 -0.13499,0.46235 -0.50316,0.82521 -0.80929,1.19706 -0.40298,0.4895 -1.34181,1.34817 -1.34181,1.34817"
       id="path19541"
       sodipodi:nodetypes="cssssssc" />
    <path
       style="fill:none;stroke:#f40000;stroke-width:0.264583px;stroke-linecap:butt;stroke-linejoin:miter;stroke-opacity:1"
       d="m 169.30179,129.98249 c 0,0 6.68111,-0.60501 10.00232,-0.29585 0.67224,0.0626 1.36319,0.15512 1.97871,0.43253 0.98192,0.44255 2.26122,0.88814 2.60768,1.90794 0.0834,0.24562 -0.0754,0.53041 -0.21816,0.74702 -0.39626,0.60132 -1.66676,1.37453 -1.66676,1.37453"
       id="path19666"
       sodipodi:nodetypes="cssssc" />
    <path
       style="fill:none;stroke:#fa0000;stroke-width:0.264583px;stroke-linecap:butt;stroke-linejoin:miter;stroke-opacity:1"
       d="m 180.78654,152.89097 c 0,0 -1.2324,-1.28918 -1.40174,-2.11895 -0.0651,-0.31894 -0.0473,-0.72409 0.17656,-0.96046 1.27223,-1.34368 3.65758,-0.6685 5.39685,-1.30016 0.91022,-0.33057 1.79097,-0.76258 2.60276,-1.29057 1.16697,-0.759 2.52758,-1.4563 3.21294,-2.66798 0.2561,-0.45277 0.21654,-1.02278 0.23586,-1.5426 0.0222,-0.59697 0.0787,-1.23031 -0.13863,-1.78678 -0.4796,-1.22828 -1.49615,-2.19468 -2.44743,-3.10779 -0.68619,-0.65865 -2.31214,-1.67217 -2.31214,-1.67217"
       id="path19905"
       sodipodi:nodetypes="cssssssssc" />
    <path
       style="fill:none;stroke:#fb0000;stroke-width:0.264583px;stroke-linecap:butt;stroke-linejoin:miter;stroke-opacity:1"
       d="m 102.91628,140.89558 c 0,0 1.37977,2.55269 2.53916,3.33009 0.95535,0.64059 2.2005,0.69235 3.33297,0.89373 1.17534,0.20901 3.56684,0.32184 3.56684,0.32184"
       id="path20068"
       sodipodi:nodetypes="cssc" />
    <path
       style="fill:none;stroke:#f60000;stroke-width:0.264583px;stroke-linecap:butt;stroke-linejoin:miter;stroke-opacity:1"
       d="m 108.28133,130.65406 c 0,0 2.87773,-0.45462 4.2002,0.005 1.15423,0.40115 2.22769,1.23581 2.87841,2.27009 0.51983,0.82625 0.66404,1.88198 0.63951,2.85785 -0.0214,0.85224 -0.30195,1.70207 -0.68317,2.4646 -0.33102,0.6621 -1.35595,1.75869 -1.35595,1.75869"
       id="path20293"
       sodipodi:nodetypes="cssssc" />
    <path
       style="fill:none;stroke:#fb0000;stroke-width:0.264583px;stroke-linecap:butt;stroke-linejoin:miter;stroke-opacity:1"
       d="m 112.537,149.2399 c 0,0 1.33205,-3.09583 2.18163,-4.54616 0.73182,-1.24929 2.49676,-3.55427 2.49676,-3.55427"
       id="path20513"
       sodipodi:nodetypes="csc" />
    <path
       style="fill:none;stroke:#f90000;stroke-width:0.264583px;stroke-linecap:butt;stroke-linejoin:miter;stroke-opacity:1"
       d="m 119.18246,135.99575 c 0,0 4.12153,0.83312 6.0128,1.70722 1.06374,0.49163 2.23803,1.00263 2.92276,1.95363 0.40605,0.56395 0.58265,1.31708 0.54899,2.01119 -0.0452,0.93183 -0.50652,1.82106 -0.99478,2.61602 -0.59699,0.97198 -1.422,1.80652 -2.30289,2.53121 -1.69684,1.39595 -5.63942,3.413 -5.63942,3.413"
       id="path20676"
       sodipodi:nodetypes="csssssc" />
    <path
       style="fill:none;stroke:#fd0000;stroke-width:0.264583px;stroke-linecap:butt;stroke-linejoin:miter;stroke-opacity:1"
       d="m 130.93328,143.37857 c 0,0 3.38781,1.34301 5.17329,1.62296 1.87607,0.29415 3.80515,0.20654 5.69684,0.0402 2.46949,-0.21715 4.89297,-0.81463 7.31359,-1.34955 1.48227,-0.32756 2.90373,-0.9466 4.40967,-1.13775 0.87928,-0.11161 2.65901,0 2.65901,0"
       id="path20801"
       sodipodi:nodetypes="cssssc" />
    <path
       style="fill:none;stroke:#f80000;stroke-width:0.264583px;stroke-linecap:butt;stroke-linejoin:miter;stroke-opacity:1"
       d="m 128.60968,130.19987 c 0,0 6.29252,-0.7461 9.4553,-0.83226 2.83353,-0.0772 5.67859,4e-4 8.49901,0.28332 2.34638,0.23537 4.6379,0.87012 6.97647,1.17339 1.16387,0.15093 2.35756,0.0801 3.50619,0.32098 1.40843,0.2954 4.09507,1.367 4.09507,1.367"
       id="path20888"
       sodipodi:nodetypes="cssssc" />
    <path
       style="fill:none;stroke:#f40000;stroke-width:0.264583px;stroke-linecap:butt;stroke-linejoin:miter;stroke-opacity:1"
       d="m 131.54627,135.53001 c 0,0 7.77548,-0.45822 11.66819,-0.49338 3.43679,-0.031 6.90149,-0.20852 10.30777,0.24946 1.97591,0.26566 5.80519,1.43973 5.80519,1.43973"
       id="path21013"
       sodipodi:nodetypes="cssc" />
    <path
       style="fill:none;stroke:#f10000;stroke-width:0.264583px;stroke-linecap:butt;stroke-linejoin:miter;stroke-opacity:1"
       d="m 131.1996,125.91613 c 0,0 2.68822,2.93293 3.68017,4.63957 0.65592,1.1285 1.18353,2.35758 1.46123,3.63297 0.41826,1.92095 0.27336,5.89152 0.27336,5.89152"
       id="path21366"
       sodipodi:nodetypes="cssc" />
    <path
       style="fill:none;stroke:#f70000;stroke-width:0.264583px;stroke-linecap:butt;stroke-linejoin:miter;stroke-opacity:1"
       d="m 139.33293,125.51103 c 0,0 2.26835,3.34934 3.01829,5.21147 0.4695,1.1658 0.83362,2.40653 0.899,3.66161 0.0844,1.621 -0.66342,4.82418 -0.66342,4.82418"
       id="path21491"
       sodipodi:nodetypes="cssc" />
    <path
       style="fill:none;stroke:#fc0000;stroke-width:0.264583px;stroke-linecap:butt;stroke-linejoin:miter;stroke-opacity:1"
       d="m 147.30377,125.90688 c 0,0 2.12704,2.9635 2.59068,4.6875 0.45761,1.70158 0.34389,3.53875 0.10854,5.285 -0.15157,1.1246 -0.96846,3.26365 -0.96846,3.26365"
       id="path21616"
       sodipodi:nodetypes="cssc" />
    <path
       style="fill:none;stroke:#fd0000;stroke-width:0.264583px;stroke-linecap:butt;stroke-linejoin:miter;stroke-opacity:1"
       d="m 155.27063,127.76329 c 0,0 0.75312,1.53502 0.83827,2.36801 0.16238,1.58855 -0.25154,3.20009 -0.65189,4.74591 -0.34975,1.35042 -1.51466,3.90122 -1.51466,3.90122"
       id="path21741"
       sodipodi:nodetypes="cssc" />
    <path
       style="fill:none;stroke:#fa0000;stroke-width:0.264583px;stroke-linecap:butt;stroke-linejoin:miter;stroke-opacity:1"
       d="m 158.98124,147.72473 c 0,0 0.57705,-3.10776 1.19181,-4.55006 0.45745,-1.07325 1.10465,-2.06942 1.82837,-2.98449 0.61795,-0.78134 2.12008,-2.10627 2.12008,-2.10627"
       id="path21866"
       sodipodi:nodetypes="cssc" />
    <path
       style="fill:none;stroke:#fd0000;stroke-width:0.264583px;stroke-linecap:butt;stroke-linejoin:miter;stroke-opacity:1"
       d="m 168.23585,140.89353 c 0,0 2.48755,0.26567 3.62761,0.73783 1.07216,0.44403 2.31087,0.92345 2.90319,1.92137 0.36537,0.61557 0.26671,1.42884 0.18268,2.13973 -0.0972,0.82236 -0.38868,1.62937 -0.7826,2.35776 -0.33354,0.61674 -1.30792,1.64738 -1.30792,1.64738"
       id="path21991"
       sodipodi:nodetypes="cssssc" />
    <path
       style="fill:none;stroke:#f60000;stroke-width:0.264583px;stroke-linecap:butt;stroke-linejoin:miter;stroke-opacity:1"
       d="m 174.26908,136.92331 c 0,0 2.21055,0.76665 3.09714,1.49288 1.00111,0.82004 1.88643,1.8853 2.34135,3.0968 0.33464,0.89119 0.20275,2.84865 0.20275,2.84865"
       id="path22154"
       sodipodi:nodetypes="cssc" />
    <path
       style="fill:none;stroke:#f90000;stroke-width:0.264583px;stroke-linecap:butt;stroke-linejoin:miter;stroke-opacity:1"
       d="m 169.65283,154.99919 c 0,0 -0.83954,-0.94911 -0.9902,-1.54072 -0.0695,-0.27295 -0.084,-0.6014 0.0612,-0.84277 0.27034,-0.4495 0.82089,-0.72253 1.33292,-0.83635 0.98137,-0.21816 2.01003,0.15998 2.99324,0.36969 1.40135,0.2989 4.10992,1.25964 4.10992,1.25964"
       id="path22317"
       sodipodi:nodetypes="cssssc" />
    <path
       style="fill:none;stroke:#f60000;stroke-width:0.264583px;stroke-linecap:butt;stroke-linejoin:miter;stroke-opacity:1"
       d="m 152.14616,155.71216 c 0,0 -0.31996,-1.76263 -0.003,-2.55206 0.23756,-0.59168 0.75293,-1.09729 1.32435,-1.38014 0.77458,-0.38341 1.71238,-0.3204 2.57622,-0.29299 1.23132,0.0391 2.45836,0.2954 3.63828,0.64961 1.88326,0.56535 5.41795,2.33288 5.41795,2.33288"
       id="path22480"
       sodipodi:nodetypes="cssssc" />
    <path
       style="fill:none;stroke:#f90000;stroke-width:0.264583px;stroke-linecap:butt;stroke-linejoin:miter;stroke-opacity:1"
       d="m 136.17657,155.55344 c 0,0 -0.0857,-2.20422 0.52932,-3.02083 0.40594,-0.53903 1.14999,-0.80564 1.81991,-0.88654 1.09948,-0.13278 2.20415,0.33043 3.24737,0.70215 2.13311,0.76006 6.05176,3.08658 6.05176,3.08658"
       id="path22643"
       sodipodi:nodetypes="csssc" />
    <path
       style="fill:none;stroke:#f50000;stroke-width:0.264583px;stroke-linecap:butt;stroke-linejoin:miter;stroke-opacity:1"
       d="m 122.19828,156.26652 c 0,0 -1.04789,-1.5521 -1.21946,-2.44721 -0.10538,-0.54975 -0.12857,-1.18236 0.1401,-1.67342 0.24255,-0.44332 0.71033,-0.81348 1.20406,-0.92115 1.81326,-0.39542 3.67232,0.63604 5.42897,1.23475 1.05513,0.35961 2.07306,0.84107 3.0351,1.40418 0.87793,0.51388 2.47347,1.78761 2.47347,1.78761"
       id="path22844"
       sodipodi:nodetypes="csssssc" />
    <path
       style="fill:none;stroke:#fc0000;stroke-width:0.264583px;stroke-linecap:butt;stroke-linejoin:miter;stroke-opacity:1"
       d="m 105.46661,155.25095 c 0,0 -0.86996,-1.07449 -1.00447,-1.7266 -0.0984,-0.4773 -0.0394,-1.01394 0.17513,-1.45153 0.29168,-0.59494 0.80494,-1.13652 1.41425,-1.39683 0.50488,-0.21569 1.1033,-0.12699 1.6464,-0.0466 1.25873,0.18632 2.42792,0.76613 3.62088,1.20879 1.11535,0.41387 2.25907,0.78137 3.30312,1.35169 1.24613,0.68071 3.48787,2.44555 3.48787,2.44555"
       id="path23045"
       sodipodi:nodetypes="cssssssc" />
    <path
       style="fill:none;stroke:#fc0000;stroke-width:0.264583px;stroke-linecap:butt;stroke-linejoin:miter;stroke-opacity:1"
       d="m 90.905403,155.71849 c 0,0 -0.584035,-0.76409 -0.668893,-1.22006 -0.122741,-0.65952 -0.08586,-1.42463 0.267869,-1.99464 0.324855,-0.52348 0.941276,-0.85937 1.532202,-1.03362 1.067697,-0.31484 2.243041,-0.1294 3.33878,0.0667 1.223999,0.21905 2.433026,0.62692 3.52394,1.22363 0.639578,0.34984 1.718509,1.35268 1.718509,1.35268"
       id="path23208"
       sodipodi:nodetypes="csssssc" />
    <path
       style="fill:none;stroke:#f70000;stroke-width:0.264583px;stroke-linecap:butt;stroke-linejoin:miter;stroke-opacity:1"
       d="m 82.704129,149.02275 2.666077,2.55776"
       id="path23409" />
    <path
       style="fill:none;stroke:#f80000;stroke-width:0.264583px;stroke-linecap:butt;stroke-linejoin:miter;stroke-opacity:1"
       d="m 74.155013,156.496 c 0,0 -1.263893,-1.14407 -1.492477,-1.92247 -0.13801,-0.46997 -0.143054,-1.05728 0.130434,-1.46363 0.441457,-0.65592 1.32667,-0.97341 2.109465,-1.08451 1.963965,-0.27874 3.915116,0.66387 5.840563,1.14085 1.577511,0.39079 4.668118,1.40712 4.668118,1.40712"
       id="path23444"
       sodipodi:nodetypes="cssssc" />
    <path
       style="fill:none;stroke:#f60000;stroke-width:0.264583px;stroke-linecap:butt;stroke-linejoin:miter;stroke-opacity:1"
       d="m 60.005943,159.63489 c 0,0 -1.647999,-0.77924 -2.020728,-1.53961 -0.245214,-0.50024 -0.255673,-1.18358 0.01365,-1.67126 0.347504,-0.62924 1.126245,-0.96016 1.815748,-1.16337 1.512329,-0.4457 3.160057,-0.16234 4.72989,-0.016 1.598515,0.14902 4.730311,0.90624 4.730311,0.90624"
       id="path23607"
       sodipodi:nodetypes="cssssc" />
    <path
       style="fill:none;stroke:#f10000;stroke-width:0.264583px;stroke-linecap:butt;stroke-linejoin:miter;stroke-opacity:1"
       d="m 52.272884,160.83178 c 0,0 -3.188168,0.99419 -4.645935,1.78657 -1.834134,0.99696 -3.613985,2.18239 -5.065418,3.68283 -0.885148,0.91503 -1.63605,1.9938 -2.142181,3.16196 -0.266737,0.61564 -0.696186,1.34169 -0.443685,1.9633 0.126315,0.31096 0.508888,0.53002 0.843981,0.54916 2.778631,0.15868 4.982164,-2.48232 7.471296,-3.72739 1.61243,-0.80654 3.1352,-1.82306 4.834758,-2.42467 2.194573,-0.77684 4.526082,-1.11094 6.822363,-1.49398 2.207984,-0.36831 4.442182,-0.56398 6.671125,-0.77052 2.349866,-0.21774 4.706583,-0.35714 7.062555,-0.4938 2.100989,-0.12187 4.202503,-0.26456 6.306859,-0.29083 6.105819,-0.0762 12.222163,-0.0214 18.3148,0.38678 4.711818,0.31567 9.425258,0.78092 14.077308,1.59292 4.93419,0.86124 9.75518,2.27861 14.62056,3.46859 3.07597,0.75232 6.11851,1.64436 9.21202,2.32092 2.45015,0.53586 4.91307,1.03129 7.39743,1.37531 3.25876,0.45125 6.54327,0.72406 9.82838,0.90059 3.20477,0.17221 6.44569,0.57795 9.62696,0.15396 3.03423,-0.4044 5.93691,-1.52657 8.82305,-2.54653 2.50015,-0.88355 5.01062,-1.80453 7.33198,-3.08621 2.7781,-1.53386 5.38644,-3.398 7.80033,-5.45802 1.35927,-1.16 2.87613,-2.28252 3.72574,-3.85459 1.06478,-1.9702 1.19093,-4.33246 1.48288,-6.55287 0.20365,-1.54885 0.18239,-4.68299 0.18239,-4.68299"
       id="path23770"
       sodipodi:nodetypes="csssssssssssssssssssssssc" />
  </g>
</svg>
