<?xml version="1.0" encoding="UTF-8" standalone="no"?>
<!-- Created with Inkscape (http://www.inkscape.org/) -->

<svg
   width="210mm"
   height="297mm"
   viewBox="0 0 210 297"
   version="1.1"
   id="svg20396"
   inkscape:version="1.1.2 (0a00cf5339, 2022-02-04)"
   sodipodi:docname="Deer.svg"
   xmlns:inkscape="http://www.inkscape.org/namespaces/inkscape"
   xmlns:sodipodi="http://sodipodi.sourceforge.net/DTD/sodipodi-0.dtd"
   xmlns="http://www.w3.org/2000/svg"
   xmlns:svg="http://www.w3.org/2000/svg">
  <sodipodi:namedview
     id="namedview20398"
     pagecolor="#ffffff"
     bordercolor="#666666"
     borderopacity="1.0"
     inkscape:pageshadow="2"
     inkscape:pageopacity="0.0"
     inkscape:pagecheckerboard="0"
     inkscape:document-units="mm"
     showgrid="false"
     inkscape:zoom="0.77593294"
     inkscape:cx="396.94152"
     inkscape:cy="645.67435"
     inkscape:window-width="2560"
     inkscape:window-height="1372"
     inkscape:window-x="0"
     inkscape:window-y="0"
     inkscape:window-maximized="1"
     inkscape:current-layer="layer1" />
  <defs
     id="defs20393" />
  <g
     inkscape:label="Layer 1"
     inkscape:groupmode="layer"
     id="layer1">
    <path
       style="fill:none;stroke:#000000;stroke-width:1.48709;stroke-linecap:butt;stroke-linejoin:miter;stroke-miterlimit:4;stroke-dasharray:none;stroke-opacity:1"
       d="m 64.98878,159.3274 c 0,0 -3.823475,1.45455 -5.780599,2.04296 -1.774301,0.53345 -3.99336,0.73084 -5.836722,0.91727 -3.214455,0.3251 -6.012406,0.15495 -9.240126,0.0119 -3.576441,-0.15733 -7.212366,0.18648 -10.728728,-0.48488 -3.683705,-0.70345 -7.148555,-2.28922 -10.635652,-3.66929 -2.199013,-0.8703 -4.69928,-1.33948 -6.473968,-2.90267 -0.94653,-0.83372 -1.188152,-1.41601 -1.45666,-2.64844 -0.39149,-1.79688 -0.02082,-4.22737 0.140083,-6.05937 0.220684,-2.5196 0.03807,-5.07602 0.421649,-7.57602 0.362105,-2.35989 0.713533,-4.79805 1.764516,-6.94181 0.781137,-1.59335 1.872419,-3.11012 3.275425,-4.19664 1.620953,-1.25531 3.669325,-1.88973 5.64126,-2.45075 1.954387,-0.55602 4.002907,-0.77593 6.032289,-0.87794 2.767704,-0.13919 5.539305,0.19956 8.305492,0.36633 3.112203,0.18737 6.210784,0.59376 9.326347,0.71261 2.39397,0.0913 4.792729,0.0791 7.187145,0 2.707299,-0.0895 5.14374,0.19927 7.715714,-0.65072 2.12344,-0.70173 4.070064,-2.33273 5.831964,-3.7101 1.829977,-1.43058 3.787696,-2.80125 5.277072,-4.58374 1.806779,-2.16234 3.139267,-4.68247 4.605445,-7.08878 1.346407,-2.20975 2.714704,-4.41596 3.845901,-6.74325 1.146929,-2.35962 2.020057,-4.843413 2.967212,-7.290083 0.854776,-2.20809 1.721628,-4.41445 2.450122,-6.66735 0.662169,-2.04787 1.218458,-4.12973 1.742864,-6.21712 0.3881,-1.54488 0.500583,-3.16503 1.037897,-4.66454 0.306815,-0.85624 0.425634,-2.01646 1.233805,-2.4338 0.428162,-0.22098 1.014668,-0.0312 1.429744,0.21355 0.845378,0.49844 1.376863,1.44729 1.790094,2.33746 0.547694,1.17988 0.79196,2.51192 0.83509,3.81199 0.074,2.23718 -0.571846,4.44321 -0.999264,6.64041 -0.411863,2.11722 -1.395125,4.13897 -1.506002,6.29305 -0.04104,0.79544 -0.05324,1.66229 0.314608,2.36872 0.319099,0.61259 0.84178,1.31297 1.52688,1.40092 0.789588,0.10142 1.490328,-0.61863 2.110438,-1.11781 0.962085,-0.77451 1.691645,-1.81217 2.393555,-2.82844 1.05892,-1.53319 1.85169,-3.23518 2.71206,-4.88796 0.67796,-1.30242 1.36779,-2.60326 1.92928,-3.95996 1.09378,-2.64276 1.88369,-5.40142 2.79236,-8.11339 0.91617,-2.7344 1.86781,-5.45874 2.68143,-8.22537 0.58264,-1.98119 1.12069,-3.97721 1.57416,-5.99189 0.56941,-2.52974 0.78566,-5.13535 1.43757,-7.6451 0.48503,-1.86731 0.9509,-3.77426 1.83384,-5.48961 0.56537,-1.09836 0.99341,-2.64892 2.17835,-2.99817 0.76802,-0.22634 1.6644,0.31047 2.24017,0.86685 0.896,0.86581 1.24062,2.21266 1.46755,3.43778 0.35327,1.90725 -0.0583,3.8818 -0.21622,5.81504 -0.18589,2.27676 -0.63981,4.52515 -0.85957,6.7989 -0.15376,1.59115 -0.73337,3.24057 -0.32076,4.785 0.19748,0.73964 0.58668,1.5766 1.27601,1.90968 0.53594,0.25905 1.23707,0.099 1.77974,-0.14543 1.68963,-0.76133 3.01739,-2.28595 4.01013,-3.85084 1.14922,-1.81154 1.29755,-4.09193 2.05504,-6.09905 1.19553,-3.16773 2.41232,-6.33938 3.92513,-9.36843 1.05069,-2.10375 2.24532,-4.14112 3.56413,-6.08801 0.71407,-1.05416 1.1737,-2.51665 2.3454,-3.01486 0.47881,-0.20373 1.09467,-0.0833 1.55225,0.16448 0.59769,0.32353 1.17587,0.90985 1.2885,1.58008 0.26708,1.58881 -1.2236,2.98815 -1.6625,4.53829 -0.32538,1.14913 -0.95296,2.34079 -0.71425,3.51101 0.16209,0.79476 0.62523,1.70759 1.38025,2.004 0.9808,0.38503 2.0918,-0.3368 3.08514,-0.6882 1.55555,-0.55028 3.12068,-1.2015 4.43422,-2.20008 1.29793,-0.98671 2.34291,-2.29695 3.26674,-3.64036 1.05182,-1.52949 1.69043,-3.30534 2.53929,-4.95615 1.07653,-2.09355 1.85205,-4.37364 3.23887,-6.27589 0.87343,-1.19806 1.92834,-2.2955 3.13912,-3.1512 0.64695,-0.45722 1.37562,-1.19909 2.14709,-1.01904 1.06139,0.24775 1.68085,1.53167 2.02803,2.56481 0.60039,1.78667 0.12818,3.78454 -0.11689,5.65339 -0.22514,1.71658 -0.66107,3.41159 -1.23571,5.04473 -0.63091,1.7931 -1.49187,3.50393 -2.41056,5.16804 -1.57257,2.84851 -3.45141,5.51893 -5.28728,8.20529 -2.53545,3.71005 -5.10546,7.40498 -7.90499,10.92003 -2.16668,2.72048 -4.58578,5.23005 -6.86834,7.85407 -2.09774,2.41158 -4.06956,4.93695 -6.27419,7.25121 -2.09385,2.19798 -4.33266,4.25595 -6.58979,6.28591 -3.08183,2.77169 -6.18657,5.53077 -9.48543,8.04026 -3.49563,2.659183 -7.26192,4.942363 -10.89332,7.412913 -2.89589,1.97015 -5.80178,3.92573 -8.688385,5.90947 -2.499284,1.71759 -5.068908,3.34027 -7.472931,5.1888 -2.717173,2.08933 -5.325819,4.32418 -7.837507,6.6565 -1.440986,1.33808 -2.749889,2.81178 -4.140938,4.20167 -0.505074,0.50465 -1.293586,0.85364 -1.210815,1.56284 0.0922,0.7911 1.072783,0.72418 1.72728,1.17803 1.772427,1.22911 3.469876,2.5726 5.081014,4.0066 1.05717,0.94094 2.110502,1.90409 2.997846,3.00665 2.546278,3.16389 4.19614,6.96691 6.58889,10.24846 1.800117,2.46877 3.742191,4.84177 5.825146,7.07707 1.73921,1.86641 3.41132,3.87995 5.55171,5.26815 2.03267,1.31833 4.45962,1.89713 6.71824,2.77374 3.17436,1.23202 6.28745,2.70278 9.59976,3.49209 3.44025,0.81981 7.01985,0.86843 10.53475,1.25945 3.2745,0.36427 6.54327,0.81599 9.83211,1.0122 3.80717,0.22722 7.62654,0.14633 11.44024,0.18975 1.91759,0.0208 3.89548,-0.44071 5.75308,0.0357 2.27983,0.58469 4.33055,1.94329 6.21025,3.35965 1.05827,0.79741 2.11294,1.69564 2.78213,2.8393 1.49482,2.5546 1.91349,5.62055 2.4848,8.52471 0.59267,3.01269 1.04138,6.09126 0.96411,9.16072 -0.0616,2.44997 -0.45511,4.90973 -1.13643,7.26388 -0.70134,2.42338 -1.95338,4.65312 -3.0046,6.9465 -1.30756,2.85268 -2.94702,5.55534 -4.10623,8.47145 -0.9531,2.39763 -1.83218,4.85004 -2.3272,7.38222 -0.47108,2.40968 -0.44743,4.89097 -0.59406,7.34187 -0.14097,2.35726 -0.0208,4.73128 -0.27452,7.07915 -0.19391,1.79881 -0.27481,3.6656 -0.95075,5.34381 -0.45029,1.11781 -1.09214,2.22459 -2.0109,3.00445 -1.05657,0.89683 -2.40759,1.56715 -3.78496,1.7205 -1.18508,0.13205 -2.52593,-0.0434 -3.50238,-0.72775 -1.82486,-1.27899 -2.68279,-3.62016 -3.51175,-5.68867 -0.9968,-2.48733 -0.94954,-5.28252 -1.66982,-7.8635 -0.95367,-3.41724 -2.63586,-6.61057 -3.4998,-10.0516 -0.70241,-2.79762 -1.10505,-5.67323 -1.35226,-8.54708 -0.19124,-2.22195 -0.31116,-4.46977 -0.0984,-6.68975 0.16893,-1.76291 1.08551,-5.20087 1.08551,-5.20087"
       id="path6784"
       sodipodi:nodetypes="cssssssssssssssssssssssssssssssssssssssssssssssssssssssssssssssssssssssssssssssssssssssssssssssssssssssssssssssssssc" />
    <path
       style="fill:none;stroke:#000000;stroke-width:1.48709;stroke-linecap:butt;stroke-linejoin:miter;stroke-miterlimit:4;stroke-dasharray:none;stroke-opacity:1"
       d="m 54.191051,162.2688 c 0,0 1.152492,1.94273 1.638858,2.9604 0.770905,1.61304 1.42213,3.2836 2.019492,4.96862 0.496687,1.40104 0.887106,2.83778 1.297899,4.26636 0.604619,2.1025 1.24249,4.19894 1.717019,6.33457 0.495021,2.22783 0.870242,4.48318 1.175868,6.7448 0.347294,2.56995 0.560245,5.15742 0.746071,7.74405 0.163579,2.27608 0.26946,4.55685 0.324363,6.83813 0.06097,2.53325 0.04342,5.06823 0.0059,7.60192 -0.03242,2.18489 -0.069,4.37108 -0.198972,6.55234 -0.129376,2.17058 -0.301283,4.34089 -0.578327,6.49758 -0.235555,1.83456 -0.681799,3.63786 -0.920953,5.47197 -0.14157,1.0851 -0.486247,2.18985 -0.303454,3.26876 0.263809,1.55758 0.978948,3.07949 1.967949,4.31136 0.862451,1.07424 2.076359,1.85511 3.299873,2.48823 1.219173,0.63088 2.551274,1.20528 3.9232,1.25224 1.099759,0.0378 2.230837,-0.2769 3.206157,-0.78637 1.388759,-0.72558 2.433586,-1.9852 3.526564,-3.10792 1.233567,-1.26712 2.490809,-2.55582 3.399567,-4.07286 1.183929,-1.97643 1.760055,-4.25892 2.58854,-6.40872 0.926366,-2.40378 1.814185,-4.82276 2.663044,-7.25498 0.860993,-2.46699 1.589218,-4.97927 2.464249,-7.44132 0.647715,-1.82242 2.06125,-5.42382 2.06125,-5.42382"
       id="path7484"
       sodipodi:nodetypes="csssssssssssssssssssssc" />
    <path
       style="fill:none;stroke:#000000;stroke-width:1.48709;stroke-linecap:butt;stroke-linejoin:miter;stroke-miterlimit:4;stroke-dasharray:none;stroke-opacity:1"
       d="m 87.701605,212.09346 c 0,0 2.516357,2.85493 3.989345,4.04529 2.10845,1.7039 4.436988,3.15241 6.860045,4.36801 2.348315,1.1781 4.870525,1.98363 7.368205,2.79858 3.08803,1.00756 6.20945,1.95564 9.3974,2.57849 2.79001,0.5451 5.63677,0.759 8.4689,1.00482 2.42189,0.21027 4.8595,0.60498 7.28196,0.40133 2.00947,-0.16893 3.97878,-0.72438 5.90013,-1.33665 1.96572,-0.62639 5.71469,-2.37704 5.71469,-2.37704"
       id="path7652"
       sodipodi:nodetypes="csssssssc" />
    <path
       style="fill:none;stroke:#000000;stroke-width:1.48709;stroke-linecap:butt;stroke-linejoin:miter;stroke-miterlimit:4;stroke-dasharray:none;stroke-opacity:1"
       d="m 62.388433,189.13431 c 0,0 -2.315452,2.04394 -3.583877,2.91826 -1.397325,0.96318 -2.956207,1.66883 -4.409149,2.54583 -1.982167,1.19645 -3.925579,2.45607 -5.875595,3.70418 -1.472393,0.94243 -3.118062,1.76481 -4.57493,2.73106 -1.524173,1.01089 -2.647429,1.48275 -4.14311,2.53531 -0.755796,0.53187 -2.113951,1.9413 -2.549162,2.75661 -0.39384,0.73783 0.0119,1.90608 0.273326,2.7004 0.393335,1.19308 1.073438,1.5303 2.075437,2.28806 1.223395,0.92514 2.75545,1.3939 4.23403,1.80178 1.940736,0.53535 3.970876,0.79163 5.983914,0.81879 2.127841,0.0297 4.233376,-0.44063 6.346227,-0.69453 2.256772,-0.27125 6.761303,-0.88529 6.761303,-0.88529"
       id="path7744"
       sodipodi:nodetypes="csssssssssssc" />
    <path
       style="fill:none;stroke:#000000;stroke-width:1.48709;stroke-linecap:butt;stroke-linejoin:miter;stroke-miterlimit:4;stroke-dasharray:none;stroke-opacity:1"
       d="m 56.086996,134.93857 c -0.785805,1.02181 -1.412136,2.17945 -1.872478,3.38348 -0.497639,1.30165 -0.703511,2.7007 -0.932284,4.0753 -0.255482,1.53461 -0.714694,3.10224 -0.488954,4.64149 0.166256,1.13402 0.597481,2.288 1.326867,3.1721 0.602329,0.73007 1.424301,1.45669 2.363515,1.57352 1.081557,0.13443 2.19015,-0.46445 3.082669,-1.08998 1.007441,-0.70609 1.729004,-1.78545 2.343706,-2.85113 0.785033,-1.36098 1.39221,-2.86469 1.653223,-4.41399 0.238529,-1.41654 0.09755,-2.88614 -0.10588,-4.30818 -0.155847,-1.09054 -0.250426,-2.26879 -0.847847,-3.19429 -0.764065,-1.18351 -1.91269,-2.31602 -3.276348,-2.66947 -0.601912,-0.15614 -1.282314,0.0455 -1.836461,0.32743 -0.580618,0.29563 -1.012587,0.83729 -1.409728,1.35372 z"
       id="path8368"
       sodipodi:nodetypes="ssssssssssssss" />
    <path
       style="fill:none;stroke:#000000;stroke-width:1.48709;stroke-linecap:butt;stroke-linejoin:miter;stroke-miterlimit:4;stroke-dasharray:none;stroke-opacity:1"
       d="m 174.27836,187.32307 c 0,0 1.87905,0.53794 2.8354,0.47599 1.24359,-0.0806 2.47168,-0.51257 3.57632,-1.08941 1.11249,-0.58095 2.0321,-1.48209 2.95859,-2.32872 1.06448,-0.97273 2.2615,-1.88928 2.97039,-3.14498 0.5548,-0.98275 0.82706,-2.13632 0.90641,-3.2621 0.11718,-1.66116 -0.23466,-3.38663 -0.86581,-4.92787 -0.66732,-1.63104 -1.90329,-3.02343 -3.23513,-4.17749 -1.38477,-1.19996 -2.768,-2.28235 -4.547,-2.72131 -1.47361,-0.36359 -3.06114,-0.19124 -4.55256,0.0904 -1.13611,0.21474 -2.25559,0.6181 -3.25404,1.20109 -0.85639,0.50005 -1.65638,1.1444 -2.26891,1.92429 -0.52738,0.67151 -1.14666,2.29056 -1.14666,2.29056"
       id="path8460"
       sodipodi:nodetypes="csssssssssssc" />
  </g>
</svg>
