<?xml version="1.0" encoding="UTF-8" standalone="no"?>
<svg
   height="2598"
   width="3606"
   version="1.1"
   id="svg43"
   sodipodi:docname="F1.svg"
   inkscape:version="1.1.2 (0a00cf5339, 2022-02-04)"
   xmlns:inkscape="http://www.inkscape.org/namespaces/inkscape"
   xmlns:sodipodi="http://sodipodi.sourceforge.net/DTD/sodipodi-0.dtd"
   xmlns="http://www.w3.org/2000/svg"
   xmlns:svg="http://www.w3.org/2000/svg">
  <defs
     id="defs47" />
  <sodipodi:namedview
     id="namedview45"
     pagecolor="#ffffff"
     bordercolor="#666666"
     borderopacity="1.0"
     inkscape:pageshadow="2"
     inkscape:pageopacity="0.0"
     inkscape:pagecheckerboard="0"
     showgrid="false"
     inkscape:zoom="0.33525789"
     inkscape:cx="2484.6544"
     inkscape:cy="2228.1355"
     inkscape:window-width="2560"
     inkscape:window-height="1412"
     inkscape:window-x="2560"
     inkscape:window-y="0"
     inkscape:window-maximized="1"
     inkscape:current-layer="svg43" />
  <path
     id="curve_0"
     d="M 1000.56,1444.91 C 958.322,1428.25 903.07726,1421.1146 861.022,1396.73 752.03825,1333.5388 633.56764,1176.5889 560.088,1071.83 490.65368,972.83849 469.81437,842.89061 377.766,760.649 291.36883,683.45651 324.65565,379.25066 499.176,457.505 c 75.43798,33.82613 99.09533,115.9777 96.817,219.056 -2.35893,106.72469 122.83716,162.09171 218.963,172.277 123.77465,13.1149 263.1416,-56.19596 377.114,-171.612 113.9417,-115.38493 191.6313,-273.2101 330.99,-366.434 19.8122,-13.25334 59.5068,-9.89892 75.03,25.292 40.2676,91.28594 -115.5699,219.18937 -13.9,258.988 124.5014,48.73599 157.1605,-104.74476 238.31,-155.697 85.2914,-53.55288 172.0165,-180.28461 267.66,-98.823 73.8581,62.90651 -136.4362,180.68692 -83.05,254.994 34.679,48.26899 91.8885,-17.49616 133.73,-37.084 166.27,-77.83835 316.8791,-211.00444 499.16,-118.794 148.4249,75.0837 -195.5989,208.25244 -87.27,279.095 118.7826,77.67881 279.4056,-73.58389 430.77,-32.737 43.0843,11.62665 122.0439,68.7956 79.29,122.004 -37.2695,46.38292 -145.2534,104.32035 -98.55,162.523 74.4723,92.8087 210.3656,-12.64499 291.23,112.737 37.3044,57.8412 81.7938,142.4116 29.93,191.1 -63.4782,59.5918 -123.7966,-65.6517 -179.56,-4.49 -22.5367,24.7184 -3.9385,45.1856 8.21,64.65 88.5004,141.7967 87.6005,270.0038 12.49,395.26 -89.3101,148.9358 -252.99,304.8 -449,308.91"
     stroke="#0047ff"
     stroke-width="2"
     fill="none"
     sodipodi:nodetypes="cssssssssssssssssssssssssc" />
  <path
     id="curve_1"
     d="M1436.78,1376.41 C1453.85,1158.72 1531.74,873.478 1192.07,677.226"
     stroke="#efff0f"
     stroke-width="2"
     fill="none" />
  <path
     id="curve_5"
     d="m 2447.15,1859.28 c -27.53,108.28 -137.6435,243.3064 -44.91,327.97 101.9111,93.0426 232.6408,-82.5363 279.075,-157.15 34.2668,-55.0622 70.375,-105.27 89.265,-154.62"
     stroke="#00f5ff"
     stroke-width="2"
     fill="none"
     sodipodi:nodetypes="cssc" />
  <path
     id="curve_14"
     d="m 850.717,1390.62 c -18.506,88.03 36.51,181.1759 131.121,250.22 119.8964,87.4966 282.142,156.86 438.782,179.49"
     stroke="#5affa4"
     stroke-width="2"
     fill="none"
     sodipodi:nodetypes="csc" />
  <path
     id="curve_28"
     d="m 1051.55,1079.08 c 78.43,34.37 124.7767,-58.7711 141.15,-107.359 19.4352,-57.67404 -34.7544,-124.43243 -86.78,-79.875 -57.5193,49.26254 -92.88,112.724 -54.37,187.234"
     stroke="#ffdc00"
     stroke-width="2"
     fill="none"
     sodipodi:nodetypes="cssc" />
  <path
     id="curve_37"
     d="m 1499.18,1692.84 c -6.32,29.89 -57.3763,78.5384 -77.34,122.29 -23.0925,50.6085 -133.4725,140.31 -35.35,203.14 102.326,65.5216 249.2765,-13.3697 332.61,-73.3 17.6292,-12.6783 117.13,-117.68 130.65,-102.92"
     stroke="#ffab00"
     stroke-width="2"
     fill="none"
     sodipodi:nodetypes="csssc" />
  <path
     id="curve_39"
     d="m 2380.98,2016.25 c -206.39,52.59 -403.8381,-6.6528 -600.43,-37.66 -22.0714,-3.4812 -68.98,-18.24 -60.49,-34.17"
     stroke="#ffc300"
     stroke-width="2"
     fill="none"
     sodipodi:nodetypes="csc" />
</svg>
