<?xml version="1.0" encoding="UTF-8" standalone="no"?>
<svg
   height="2482"
   width="4138"
   version="1.1"
   id="svg62"
   sodipodi:docname="F2.svg"
   inkscape:version="1.1.2 (0a00cf5339, 2022-02-04)"
   xmlns:inkscape="http://www.inkscape.org/namespaces/inkscape"
   xmlns:sodipodi="http://sodipodi.sourceforge.net/DTD/sodipodi-0.dtd"
   xmlns="http://www.w3.org/2000/svg"
   xmlns:svg="http://www.w3.org/2000/svg">
  <defs
     id="defs66" />
  <sodipodi:namedview
     id="namedview64"
     pagecolor="#ffffff"
     bordercolor="#666666"
     borderopacity="1.0"
     inkscape:pageshadow="2"
     inkscape:pageopacity="0.0"
     inkscape:pagecheckerboard="0"
     showgrid="false"
     inkscape:zoom="0.05694619"
     inkscape:cx="544.37356"
     inkscape:cy="2142.3733"
     inkscape:window-width="2560"
     inkscape:window-height="1412"
     inkscape:window-x="2560"
     inkscape:window-y="0"
     inkscape:window-maximized="1"
     inkscape:current-layer="svg62" />
  <path
     id="curve_0"
     d="m 2680.21,1129.5 c 170.01,-104.56 321.2799,-199.33331 472.72,-321.431 75.3712,-60.7676 150.847,-40.71922 226.8,0.102 92.9209,49.94064 200.4384,90.52827 303.36,114.94 56.4943,13.39976 33.3504,96.8673 -15.42,102.109 -144.3002,15.509 -274.1861,-143.89799 -422.46,-73.247 -184.7535,88.0331 -354.95,225.377 -508.36,358.087"
     stroke="#ffc300"
     stroke-width="2"
     fill="none"
     sodipodi:nodetypes="csssssc" />
  <path
     id="curve_4"
     d="m 1429.36,1562.35 c -163.17,30.03 -317.9213,-70.4441 -436.131,37.19 -122.58161,111.6149 -80.386,357.32 -151.373,517.58 -20.301,32.43 -83.82562,18.1771 -80.327,-13 22.25378,-198.3091 -9.16513,-427.1918 101.803,-598.76 78.73361,-121.7303 324.678,-36.87 479.328,-87.9"
     stroke="#00b2ff"
     stroke-width="2"
     fill="none"
     sodipodi:nodetypes="cscssc" />
  <path
     id="curve_10"
     d="m 2545.07,850.912 c 63.67,83.412 98.21,186.638 135.14,278.588 v 0 c 135.27,259.49 69.9968,678.0415 -314.38,651.97 -241.6439,-16.3902 -506.945,34.0724 -714.52,-58.61 -126.575,-56.5158 -257.28,-134.19 -285.12,-295.22 -7.4,-65.75 -1.382,-160.6838 13.9866,-199.2062 C 1449.1421,1055.5666 1530.1,949.833 1667.21,805.64"
     stroke="#5dffa1"
     stroke-width="2"
     fill="none"
     sodipodi:nodetypes="cccsscsc" />
  <path
     id="curve_18"
     d="m 1366.19,1427.64 c -166.08,-72.38 -354.0082,-178.727 -546.919,-189.75 -118.86941,-6.7922 -211.48644,72.5862 -325.065,96.63 -99.69509,21.1048 -209.24659,110.7006 -304.749,68.69 -39.83545,-17.5232 22.61987,-56.7406 42.151,-64.56 159.96563,-64.0435 296.54694,-209.1554 468.395,-247.78 243.24387,-54.6716 441.437,126.02 676.217,149.74"
     stroke="#e50000"
     stroke-width="2"
     fill="none"
     sodipodi:nodetypes="csssssc" />
  <path
     id="curve_20"
     d="m 2740.06,1468.72 c 77.06,1.27 128.4081,18.9339 183.97,4.99 142.103,-35.6624 300.8233,-92.3766 461.14,-85.05 186.6286,8.529 267.4151,209.1222 447.93,235.46 52.4059,7.6462 90.9112,-71.1137 54.62,-111.53 -93.2492,-103.8487 -240.0295,-180.4797 -374.79,-247.86 -60.4787,-30.2394 -119.3007,-16.0124 -182.49,-9.45 -180.0163,18.6952 -375.57,38.66 -564.39,30.25"
     stroke="#000090"
     stroke-width="2"
     fill="none"
     sodipodi:nodetypes="cssssssc" />
  <path
     id="curve_38"
     d="m 2924.03,1473.71 c 95.14,45.91 205.8616,15.9599 298.71,63 49.6535,25.1561 46.0658,77.3149 39.74,132.34 -13.8666,120.6198 -36.7226,248.6398 -41.09,373.4 -1.2328,35.2152 -50.6665,97.2678 -79.28,65.24 -88.5664,-99.1345 35.3184,-341.2923 -43.6,-449.01 -50.339,-68.7089 -124.5631,-30.964 -193.31,-44.05 -63.9105,-12.1654 -136.5,-12.45 -199.04,-10.67"
     stroke="#0090ff"
     stroke-width="2"
     fill="none"
     sodipodi:nodetypes="cssssssc" />
  <path
     id="curve_47"
     d="m 2278.43,607.414 c -17.11,47.717 -79.2153,95.37129 -32.15,152.169 88.744,107.09489 223.6612,-99.19 170.32,-186.841 -43.9025,-72.14109 -121.57,-10.762 -138.17,34.672"
     stroke="#fff600"
     stroke-width="2"
     fill="none"
     sodipodi:nodetypes="cssc" />
  <path
     id="curve_48"
     d="m 2426.9,1003.92 c -124.63,87.05 -303.0164,4.8572 -327.77,-101.164 -44.6321,-191.16244 21.8946,-389.24105 78.35,-523.795 45.7707,-109.08856 205.6308,-167.65552 304.81,-75.322 150.3627,139.98421 126.9263,359.69115 62.78,547.273 -17.3875,50.84587 -66.92,119.111 -118.17,153.008"
     stroke="#00007f"
     stroke-width="2"
     fill="none"
     sodipodi:nodetypes="cssssc" />
  <path
     id="curve_50"
     d="M 1456.7671,1069.6304 C 1336.3871,979.11444 1229.37,869.334 1091.335,819.2145 953.3,769.095 804.87443,780.01062 653.45,787.229 c -83.98421,4.00351 -163.64286,21.94967 -244.656,31.615 -11.2408,1.34109 -36.08074,14.28797 -21.975,27.657 63.73763,60.40878 195.30674,63.47175 299.759,46.248 113.38794,-18.6972 221.30879,-46.7572 334.882,-9.077 148.2362,49.18035 241.5638,208.1588 343.07,330.168 2.3646,2.8423 4.4905,5.9337 6.1091,9.2579 2.2532,4.6274 4.9009,14.6421 4.9009,14.6421"
     stroke="#c3ff3b"
     stroke-width="2"
     fill="none"
     sodipodi:nodetypes="ccsssssaac" />
  <path
     id="curve_54"
     d="m 1958.11,632.996 c 11.63,48.538 -52.6801,205.13641 -125.76,117.712 -58.036,-69.42759 -72.5383,-183.30869 -14.67,-226.323 79.7476,-59.27749 137,33.737 140.43,108.611"
     stroke="#00e5ff"
     stroke-width="2"
     fill="none"
     sodipodi:nodetypes="cssc" />
  <path
     id="curve_58"
     d="m 2099.13,902.756 c -35.13,29.085 -69.0744,81.07209 -114.39,83.402 -182.9096,9.40434 -315.7739,-110.36768 -348.3,-269.373 -30.5243,-149.21935 -58.1194,-272.22738 48.93,-398.969 45.1866,-53.49888 93.8504,-53.74098 169.18,-45.171 99.7233,11.34516 214.52,116.719 287.33,209.878"
     stroke="#7fff7f"
     stroke-width="2"
     fill="none"
     sodipodi:nodetypes="cssssc" />
  <path
     style="fill:none;stroke:#ff0000;stroke-width:2;stroke-linecap:butt;stroke-linejoin:miter;stroke-miterlimit:4;stroke-dasharray:none;stroke-opacity:1"
     d="m 1755.7763,1341.1443 c 0,0 66.8502,39.6281 102.27,55.3913 43.9433,19.5565 88.7298,39.2945 135.9846,48.2644 50.5548,9.5963 103.2364,11.7576 154.2829,5.266 44.3113,-5.6351 86.6817,-22.299 128.5195,-37.9464 34.8729,-13.0425 101.5888,-46.4295 101.5888,-46.4295"
     id="path1000"
     sodipodi:nodetypes="cssssc" />
</svg>
