<?xml version="1.0" encoding="UTF-8" standalone="no"?>
<svg
   height="3780"
   width="4062"
   version="1.1"
   id="svg38"
   sodipodi:docname="F3.svg"
   inkscape:version="1.1.2 (0a00cf5339, 2022-02-04)"
   xmlns:inkscape="http://www.inkscape.org/namespaces/inkscape"
   xmlns:sodipodi="http://sodipodi.sourceforge.net/DTD/sodipodi-0.dtd"
   xmlns="http://www.w3.org/2000/svg"
   xmlns:svg="http://www.w3.org/2000/svg">
  <defs
     id="defs42" />
  <sodipodi:namedview
     id="namedview40"
     pagecolor="#ffffff"
     bordercolor="#666666"
     borderopacity="1.0"
     inkscape:pageshadow="2"
     inkscape:pageopacity="0.0"
     inkscape:pagecheckerboard="0"
     showgrid="false"
     inkscape:zoom="0.08146693"
     inkscape:cx="3412.4276"
     inkscape:cy="4112.098"
     inkscape:window-width="2560"
     inkscape:window-height="1412"
     inkscape:window-x="2560"
     inkscape:window-y="0"
     inkscape:window-maximized="1"
     inkscape:current-layer="svg38" />
  <path
     id="curve_21"
     d="m 1953.05,1125.02 c -159.03,-94.78 -400.337,-167.84996 -644.29,-115.98 -394.12619,83.8002 -641.79873,395.7515 -717.991,821.11 -34.67563,193.5836 88.76489,392.6968 113.632,546 46.22246,284.9569 -171.38283,453.1051 -198.09,733.02 -12.98477,136.092 -63.70178,280.1301 -44.25505,425.8175 0.91889,6.884 -2.47819,16.6186 3.23805,20.6625 4.14608,2.9331 7.52354,-6.535 10.88721,-9.8527 75.0132,-73.9877 22.07769,-164.2952 111.48479,-248.9073 39.23523,-37.131 70.75076,-24.356 103.861,-73.6 66.43769,-98.8111 38.13297,-203.7074 105.186,-299.96 66.64807,-95.6713 21.40388,-219.8419 100.329,-272.66 82.73078,-55.3649 166.7285,35.3563 246.528,4.11 83.6446,-32.7519 177.3416,-61.9637 272.28,-27.21 123.0537,45.0457 241.4477,-41.0596 355.63,-35.42 71.8386,3.5482 162.809,57.0088 169.12,-10.16 11.0316,-117.4115 -184.8816,-140.929 -296.27,-178.76 -212.0391,-72.0153 -504.2665,-84.9357 -755.484,-103.36 -23.55166,-1.7273 -64.42711,4.5725 -75.361,-27.56 -65.42743,-192.2783 63.48535,-372.5912 193.895,-466.98 198.0641,-143.3562 394.8,-129.1657 590.43,-43.47 96.9651,42.4756 209.8428,67.1083 317.55,80.8 86.7389,11.0263 198.91,33.45 249.19,-32.13"
     stroke="#0046ff"
     stroke-width="2"
     fill="none"
     sodipodi:nodetypes="csssssssssssssssssssssc" />
  <path
     id="curve_31"
     d="m 1961.22,1474.64 c 1.28,88.42 25.4614,187.1155 132.56,279.22 25.0106,21.5091 62.9163,53.4373 70.77,56.67 227.9776,93.8386 518.7765,77.7053 762.47,126.86 330.568,66.6779 615.4235,186.5969 876.35,307.02 50.5443,23.3272 114.9207,-35.0826 75.41,-62.46 -420.7091,-291.5138 -961.1351,-436.26 -1374.08,-727.27 -110.583,-77.9299 -245.9297,-197.2906 -282.75,-349.18 -20.3958,-84.1358 -135.3801,-199.26365 -236.32,-133.271 -52.481,34.3111 -54.89,73.641 -63.32,135.461"
     stroke="#00007f"
     stroke-width="2"
     fill="none"
     sodipodi:nodetypes="cssssssssc" />
  <path
     id="curve_33"
     d="m 1793.42,1052.27 c -4.35,-240.49 -34.2661,-495.86663 -127.4,-665.951 -32.5455,-59.43578 -80.3901,-183.396 -159.41,-129.365 -92.3746,63.16251 -80.1235,214.72561 -133.32,312.129 -124.121,227.26706 -355.1544,332.11069 -583.38,451.697 -38.1447,19.9872 -22.35851,40.2151 -13.468,65.52 23.37325,66.5269 43.948,123.47 66.016,196.78"
     stroke="#0063ff"
     stroke-width="2"
     fill="none"
     sodipodi:nodetypes="csssssc" />
  <path
     style="fill:none;stroke:#00bb00;stroke-width:2;stroke-linecap:butt;stroke-linejoin:miter;stroke-miterlimit:4;stroke-dasharray:none;stroke-opacity:1"
     d="m 2010.027,1247.2036 c 0,0 42.5285,50.9025 70.0189,68.5353 23.2993,14.9446 50.2343,25.1908 77.5424,29.7147 25.946,4.2982 78.843,-2.9665 78.843,-2.9665"
     id="path877"
     sodipodi:nodetypes="cssc" />
  <path
     style="fill:none;stroke:#0000c9;stroke-width:2;stroke-linecap:butt;stroke-linejoin:miter;stroke-miterlimit:4;stroke-dasharray:none;stroke-opacity:1"
     d="m 1795.589,1213.3893 c 0,0 -46.1188,50.2264 -60.528,80.5698 -15.9331,33.5525 -26.1028,71.035 -26.7457,108.1729 -0.6994,40.3987 25.0038,118.6074 25.0038,118.6074"
     id="path879"
     sodipodi:nodetypes="cssc" />
  <path
     style="fill:none;stroke:#00a800;stroke-width:2;stroke-linecap:butt;stroke-linejoin:miter;stroke-miterlimit:4;stroke-dasharray:none;stroke-opacity:1"
     d="m 1568.1142,1311.6724 c 0,0 -34.4085,10.7824 -51.9317,9.2989 -35.7351,-3.0254 -67.6856,-23.7566 -101.2089,-36.4977 -27.781,-10.5586 -53.1934,-35.8106 -82.789,-33.0964 -14.623,1.3411 -30.1145,10.6855 -37.2488,23.5203 -15.4897,27.8662 -2.0757,63.7921 -0.6773,95.6433 1.6939,38.5816 -7.4835,81.4114 10.9706,115.3356 10.5348,19.3662 30.5713,35.3502 51.8732,41.0302 17.7306,4.7278 37.1446,-2.0119 54.4482,-8.1204 57.704,-20.3707 158.3333,-92.9141 158.3333,-92.9141"
     id="path881"
     sodipodi:nodetypes="cssssssssc" />
</svg>
