<?xml version="1.0" encoding="UTF-8" standalone="no"?>
<svg
   height="3012"
   width="3280"
   version="1.1"
   id="svg52"
   sodipodi:docname="f4.svg"
   inkscape:version="1.1.2 (0a00cf5339, 2022-02-04)"
   xmlns:inkscape="http://www.inkscape.org/namespaces/inkscape"
   xmlns:sodipodi="http://sodipodi.sourceforge.net/DTD/sodipodi-0.dtd"
   xmlns="http://www.w3.org/2000/svg"
   xmlns:svg="http://www.w3.org/2000/svg">
  <defs
     id="defs56" />
  <sodipodi:namedview
     id="namedview54"
     pagecolor="#ffffff"
     bordercolor="#666666"
     borderopacity="1.0"
     inkscape:pageshadow="2"
     inkscape:pageopacity="0.0"
     inkscape:pagecheckerboard="0"
     showgrid="false"
     inkscape:zoom="0.28917662"
     inkscape:cx="2085.2308"
     inkscape:cy="2365.3364"
     inkscape:window-width="2560"
     inkscape:window-height="1412"
     inkscape:window-x="2560"
     inkscape:window-y="0"
     inkscape:window-maximized="1"
     inkscape:current-layer="svg52" />
  <path
     id="curve_0"
     d="m 2570.59,520.618 c 40.3412,45.19626 -18.9252,173.52368 -84.87,142.604 -74.4476,-34.90639 33.4192,-200.24688 84.87,-142.604 z"
     stroke="#ffc600"
     stroke-width="2"
     fill="none"
     sodipodi:nodetypes="sss" />
  <path
     id="curve_1"
     d="m 2021.3,454.422 c -114.5051,-63.69487 -80.6289,221.82061 11.49,134.431 36.2523,-34.39119 30.2557,-111.20942 -11.49,-134.431 z"
     stroke="#ff3800"
     stroke-width="2"
     fill="none"
     sodipodi:nodetypes="sss" />
  <path
     id="curve_3"
     d="m 1873.27,684.563 c -42.04,-117.916 -108.7498,-210.89191 -1.83,-319.684 95.6957,-97.37147 218.8721,-42.62958 272.03,34.652 61.9642,90.08436 33.674,175.97541 -15.75,269.303 -63.7166,120.31642 32.41,260.13902 33.58,390.686 0.3326,37.1101 37.2193,112.7285 63.91,64.93 63.1994,-113.1793 122.5094,-233.53872 132.58,-370.324 4.2124,-57.21497 -20.2358,-107.90289 -24.52,-173.26 -6.1618,-94.00081 116.503,-259.1271 239.67,-201.587 78.9974,36.90534 178.776,130.01153 131.67,242.626 -31.6093,75.56715 -127.3463,128.5302 -194.44,190.79 -108.5758,100.75321 -163.1333,263.445 -199.96,415.315 -22.778,93.9343 78.3398,175.8008 78.41,260.44 0.031,36.8374 22.4562,76.7638 25.08,111.09 13.8236,180.8527 52.08,349.3942 -5.38,513.69 -36.915,105.5512 -75.609,215.9346 -153.25,327.85 -92.6439,133.5414 -227.1749,268.9866 -436.05,260.42 -69.5452,-2.8523 -141.6841,-18.1377 -213.75,-14.2 -374.9867,20.4894 -722.57564,-64.6446 -1060.415,-114.28 -73.10865,-10.7411 -166.90309,14.1369 -198.783,-45.07 -13.06978,-24.273 7.63439,-56.0536 29.875,-62.61 149.44264,-44.0551 305.293,-53.2133 462.451,-46.2"
     stroke="#ff2300"
     stroke-width="2"
     fill="none"
     sodipodi:nodetypes="cssssssssssssssssssssc" />
  <path
     id="curve_9"
     d="M 1969.58,736.193 C 1863.16,707.237 1819.5069,596.79553 1709.92,569.544 1540.0355,527.29797 1362.5657,449.24489 1156.07,461.746 846.93215,480.461 653.80083,653.19838 543.66,870.396 c -72.41974,142.8117 -114.78615,335.1066 -127.167,500.664 -37.28517,498.5794 94.09568,991.4167 496.002,1078.65 240.237,52.1432 498.6867,-57.1262 661.085,-162.53 102.1822,-66.3209 163.641,-144.5574 214.36,-249.2 76.2322,-157.2812 86.8256,-338.1743 81.4,-501.43 -4.5119,-135.7617 -55.4072,-235.8639 -171.86,-376.81 -21.8789,-26.4806 -35.2137,-72.7904 -83.99,-112.26 -200.4513,-162.20467 -415.2344,-128.55731 -580.54,-7.13 -149.75175,110.002 -121.30272,234.2411 -143.298,332.12 -38.52467,171.4346 -35.4014,376.6744 29.958,528.16 30.8448,71.49 81.3008,117.5027 165.6,177.29 52.5738,37.2868 127.2346,88.3768 190.3,66.83 63.6343,-21.7412 111.1318,-28.6873 180.28,-132.97 55.214,-83.2685 73.7937,-177.0748 73.14,-265.61 -1.1496,-155.7161 19.3007,-321.9243 -140.25,-412.7 -50.9042,-28.9617 -103.332,-14.7505 -149.33,39.28 -32.1126,37.7203 -43.3016,75.6701 -43.48,115.72 -0.4836,108.5843 -20.4413,243.1563 80.52,328.89 30.886,26.2276 58.8695,-20.017 71.26,-51.13 27.9358,-70.148 2.99,-158.02 -27.16,-215.54"
     stroke="#d10000"
     stroke-width="2"
     fill="none"
     sodipodi:nodetypes="cssssssssssssssssssssssc" />
  <path
     id="curve_36"
     d="m 1969.58,736.193 c 43.62,163.97 71.2121,367.1346 1.39,531.227 -38.7976,91.1801 -62.84,212.78 -102.56,302.75"
     stroke="#7fff7f"
     stroke-width="2"
     fill="none"
     sodipodi:nodetypes="csc" />
  <path
     style="fill:none;stroke:#00b700;stroke-width:2;stroke-linecap:butt;stroke-linejoin:miter;stroke-opacity:1;stroke-miterlimit:4;stroke-dasharray:none"
     d="m 1984.8146,1703.4228 c 0,0 36.7495,40.4548 58.8435,56.1795 18.8958,13.4485 39.2893,26.5633 61.8805,31.8121 21.715,5.0452 45.4288,4.8858 66.869,-1.2226 29.4316,-8.3853 78.8945,-46.9517 78.8945,-46.9517"
     id="path880"
     sodipodi:nodetypes="csssc" />
</svg>
