<?xml version="1.0" encoding="UTF-8" standalone="no"?>
<svg
   height="3312"
   width="3788"
   version="1.1"
   id="svg69"
   sodipodi:docname="fig3_bezier_end.svg"
   inkscape:version="1.1.2 (0a00cf5339, 2022-02-04)"
   xmlns:inkscape="http://www.inkscape.org/namespaces/inkscape"
   xmlns:sodipodi="http://sodipodi.sourceforge.net/DTD/sodipodi-0.dtd"
   xmlns="http://www.w3.org/2000/svg"
   xmlns:svg="http://www.w3.org/2000/svg">
  <defs
     id="defs73" />
  <sodipodi:namedview
     id="namedview71"
     pagecolor="#ffffff"
     bordercolor="#666666"
     borderopacity="1.0"
     inkscape:pageshadow="2"
     inkscape:pageopacity="0.0"
     inkscape:pagecheckerboard="0"
     showgrid="false"
     inkscape:zoom="0.37191425"
     inkscape:cx="2255.8963"
     inkscape:cy="2250.5187"
     inkscape:window-width="2560"
     inkscape:window-height="1412"
     inkscape:window-x="2560"
     inkscape:window-y="0"
     inkscape:window-maximized="1"
     inkscape:current-layer="svg69" />
  <path
     id="curve_12"
     d="m 2337.49,1563.77 c 329.92,113.53 803.5808,92.2757 1079.82,-66.84 58.0826,-33.456 118.098,-83.1726 192.13,-60.43 41.8424,12.854 45.2954,85.9766 25.56,120.97 -104.9842,186.1505 -360.7724,173.8183 -468.65,350.87 -51.3749,84.3179 22.8261,203.7504 62.43,297.5 81.5317,193.0004 219.7891,369.8241 206.49,634.18 -3.7119,73.784 -89.5202,155.013 -195.4,137.62 -77.4083,-12.716 -115.9439,-39.1949 -173.69,-77.2 -173.783,-114.3737 -409.3036,-276.7554 -636.62,-310.22 -151.1058,-22.2452 -303.8559,-33.9467 -442.47,6.85 -165.8301,48.8069 -312.1114,58.0586 -468.94,128.87 -222.2262,100.3398 -434.8686,211.523 -669.74,295.22 -116.91317,41.6623 -242.39828,74.6966 -361.94,21.68 -91.67413,-40.6573 -102.50277,-169.845 -66.324,-260.41 59.19896,-148.1907 147.536,-314.24 261.563,-458.28"
     stroke="#d3ff2b"
     stroke-width="2"
     fill="none"
     sodipodi:nodetypes="cssssssssssssssc" />
  <path
     id="curve_20"
     d="m 1267.77,1391.76 c -72.16,-46.2126 -63.4515,-120.1259 7.47,-167.49 69.4331,-46.37 221.3556,-55.3861 277.65,3.41 59.1755,61.8053 35.4628,113.1215 -19.05,171.04 -69.156,73.4765 -192.8055,39.9599 -266.07,-6.96 z"
     stroke="#77ff87"
     stroke-width="2"
     fill="none"
     sodipodi:nodetypes="sssss" />
  <path
     id="curve_25"
     d="m 1061.4,1001.95 c -34.166,46.223 -50.2012,124.7718 -12.37,181.55 66.5269,99.8455 145.7424,-56.8515 118.66,-135.77 -20.0217,-58.34352 -59.5088,-109.07004 -106.29,-45.78 z"
     stroke="#ff5500"
     stroke-width="2"
     fill="none"
     sodipodi:nodetypes="ssss" />
  <path
     id="curve_34"
     d="m 1708.34,1035.08 c 85.7682,-68.79685 122.6155,93.1648 103.84,157.89 -10.9456,37.7329 -75.9628,123.1537 -115.73,63.45 -49.5167,-74.3409 -47.0224,-174.0849 11.89,-221.34 z"
     stroke="#b4ff4a"
     stroke-width="2"
     fill="none"
     sodipodi:nodetypes="ssss" />
  <path
     id="curve_43"
     d="m 317.885,1135.71 c -6.33208,72.3847 85.21222,98.7243 129.592,124.53 78.99625,45.9343 109.92072,115.2343 39.701,190.77 -86.39396,92.9344 -147.70892,210.1682 -72.932,314.74 45.61976,63.7969 88.1537,82.9337 158.517,93.25 115.46196,16.9285 235.26947,-80.7598 348.254,52.49 51.87164,61.1755 80.2589,152.3814 141.573,208.6 62.6614,57.4539 126.1954,79.6858 187.45,44.1 84.0597,-48.8344 130.0131,-171.6252 278.4,-158.12 45.456,4.1371 89.1966,48.7308 139.4,97.03 57.6817,55.4938 259.9085,144.3498 293.63,23.35 16.6465,-59.7312 31.4198,-147.5607 84.17,-172.49 133.3206,-63.0061 313.1425,-62.021 393,-175.9 66.5916,-94.9614 -36.5238,-158.5993 -101.15,-214.29 -67.5814,-58.2374 -150.6295,-183.5122 -113.91,-278.32 54.6008,-140.9765 218.3581,-144.8375 309.08,-251.13 54.1353,-63.42647 44.752,-148.8374 -7.37,-187.714 -96.1599,-71.7235 -230.1644,-35.49046 -295.35,-148.795 -72.0244,-125.19157 129.3485,-255.40124 34.63,-365.298 -97.7807,-113.44958 -239.8004,-36.02678 -367.82,39.657 -84.2294,49.79549 -242.2053,111.42227 -345.19,31.346 -70.7767,-55.03278 -57.8647,-193.46295 -147.07,-227.547 -172.9998,-66.10074 -262.739,127.01703 -365.95,195.065 -121.85935,80.34298 -240.21191,44.43063 -358.449,31.562 -50.05804,-5.44819 -89.32854,53.71281 -105.983,79.803 -58.40219,91.49042 -8.18135,175.18774 11.947,270.78 44.79112,212.71909 -252.31553,201.29162 -268.17,382.531 z"
     stroke="#ffde00"
     stroke-width="2"
     fill="none"
     sodipodi:nodetypes="sssssssssssssssssssssssssss" />
  <path
     id="curve_44"
     d="m 748.14,1452.87 c -19.00032,52.2433 -65.25513,112.359 -8.215,137.69 289.1038,128.3883 672.0543,127.7265 1033.905,142.83 51.2406,2.1388 103.3495,13.7675 149.68,-20.33 79.8403,-58.7595 26.3386,-225.7116 37.6,-342.33 11.9085,-123.3194 -21.9271,-237.5526 -5.38,-345.76 4.7946,-31.35348 39.7412,-50.58604 48.35,-69.243 66.2757,-143.63283 -83.6555,-261.74046 -202.8,-203.183 -44.3765,21.8103 -34.959,113.89897 -89.42,108.277 -151.7819,-15.66835 -363.69,-17.05492 -520.62,-20.199 -56.5487,-1.13295 -54.0584,-97.37863 -100.38,-124.828 -88.8966,-52.67862 -187.15765,5.90015 -208.478,71.16 -15.92027,48.73064 17.72848,100.76866 14.774,157.111 -9.13782,174.2592 -89.29875,344.6064 -149.016,508.805 z"
     stroke="#0046ff"
     stroke-width="2"
     fill="none"
     sodipodi:nodetypes="ssssssssssssss" />
  <path
     id="curve_65"
     d="m 572.763,1859 c -109.686,146.73 -206.52061,287.941 -279.418,460.71 -59.5963,141.245 -137.33919,278.3505 -18.917,422.5 45.64628,55.563 82.481,29.59 149.192,29.51"
     stroke="#0083ff"
     stroke-width="2"
     fill="none"
     sodipodi:nodetypes="cssc" />
</svg>
