<?xml version="1.0" encoding="UTF-8" standalone="no"?>
<svg
   height="3008"
   width="3168"
   version="1.1"
   id="svg250"
   sodipodi:docname="1test1_bezier_end.svg"
   inkscape:version="1.1.2 (0a00cf5339, 2022-02-04)"
   xmlns:inkscape="http://www.inkscape.org/namespaces/inkscape"
   xmlns:sodipodi="http://sodipodi.sourceforge.net/DTD/sodipodi-0.dtd"
   xmlns="http://www.w3.org/2000/svg"
   xmlns:svg="http://www.w3.org/2000/svg">
  <defs
     id="defs254" />
  <sodipodi:namedview
     id="namedview252"
     pagecolor="#ffffff"
     bordercolor="#666666"
     borderopacity="1.0"
     inkscape:showpageshadow="2"
     inkscape:pageopacity="0.0"
     inkscape:pagecheckerboard="0"
     inkscape:deskcolor="#d1d1d1"
     showgrid="false"
     inkscape:zoom="0.13890824"
     inkscape:cx="4794.5322"
     inkscape:cy="899.87465"
     inkscape:window-width="2560"
     inkscape:window-height="1412"
     inkscape:window-x="2560"
     inkscape:window-y="0"
     inkscape:window-maximized="1"
     inkscape:current-layer="svg250"
     inkscape:pageshadow="2" />
  <path
     id="curve_8"
     d="m 2696.38,2070.88 c 78.07,-10.23 139.3945,-67.6408 184.65,-117.7 74.7368,-82.6698 -115.7052,-128.9453 -32.56,-211.02 39.9921,-39.4772 105.1125,-67.9074 121.14,-127.13 21.631,-79.9279 -162.8212,-69.3124 -144.62,-143.06 17.2806,-70.0175 167.9031,-65.463 128.39,-143.55 -30.9817,-61.227 -123.9317,-24.1262 -186.12,-62.54 -46.5189,-28.7348 1.6652,-56.0122 13.6,-86.35 16.2473,-41.3001 98.6413,-75.8073 56.33,-124.78 -45.8355,-53.0517 -172.926,10.6119 -213.96,-52.7 -44.6352,-68.86822 123.5194,-131.8317 67.38,-180.044 -74.7728,-64.21458 -222.8497,46.67796 -266.06,-25.008 -32.817,-54.44355 63.266,-129.49103 11.9,-157.438 -86.3322,-46.9712 -210.27,108.972 -300.74,21.255"
     stroke="#0007ff"
     stroke-width="2"
     fill="none"
     style="stroke-width:5;stroke-dasharray:none"
     sodipodi:nodetypes="cssssssssssssc" />
  <path
     id="curve_15"
     d="m 1701.01,2249.66 c -104.86,-104.99 -142.8021,-184.3467 -62.05,-284.98 55.5951,-69.2827 155.7983,31.6362 217.91,59.73 41.2862,18.6742 79.5,69.04 120.24,73.58"
     stroke="#e8ff16"
     stroke-width="2"
     fill="none"
     style="stroke-width:5;stroke-dasharray:none"
     sodipodi:nodetypes="cssc" />
  <path
     id="curve_19"
     d="m 1976.69,520.323 c 8.6533,-40.84904 72.8301,-89.55709 96.18,-42.334 36.8597,74.54551 -6.1187,161.58863 -69.59,180.707 -58.9116,17.74496 -33.6727,-104.93851 -26.59,-138.373 z"
     stroke="#ff9d00"
     stroke-width="2"
     fill="none"
     style="stroke-width:5;stroke-dasharray:none"
     sodipodi:nodetypes="ssss" />
  <path
     id="curve_21"
     d="m 2036.21,1144.65 c -250.69,-72.01 -567.3859,-84.8203 -892.17,-88.05 -203.29307,-2.0216 -404.34519,-21.045 -602.59,-41.8 -84.75317,-8.8731 -196.948,-16.598 -252.114,-68.694 -30.977,-101.123 28.61011,-182.66524 3.033,-292.543 -29.25986,-125.69867 14.77912,-292.80794 123.736,-174.54 25.94685,28.16417 21.05875,92.66877 50.043,91.841 403.13531,-11.5133 798.4274,-30.90591 1174.542,38.663 79.9689,14.79163 136.4567,31.41731 211.841,49.35928 4.5543,1.08396 10.1277,6.41557 13.859,3.35272 4.253,-3.49106 1.0703,-10.92753 1.5093,-16.36646 8.3887,-103.92458 -5.6953,-204.00298 113.6707,-297.71154 47.1843,-37.04212 139.1556,-17.46231 170.13,42.999 65.8766,128.5896 -15.34,262.891 -58.27,365.892"
     stroke="#ff0700"
     stroke-width="2"
     fill="none"
     style="stroke-width:5;stroke-dasharray:none"
     sodipodi:nodetypes="csscsssssssssc" />
  <path
     id="curve_28"
     d="m 1981.57,348.161 c -119.32,-120.848 -248.6275,55.45523 -254.77,158.128 -2.7756,46.3946 -0.59,71.068 -1.64,124.566"
     stroke="#ffbb00"
     stroke-width="2"
     fill="none"
     style="stroke-width:5;stroke-dasharray:none"
     sodipodi:nodetypes="csc" />
  <path
     id="curve_44"
     d="m 444.165,1158.02 c 16.102,66.15 22.42627,116.718 74.764,148.29 187.05835,112.8403 442.7594,88.1195 669.881,131.3 246.1202,46.7926 525.14,53.6 749.45,147.21"
     stroke="#ffac00"
     stroke-width="2"
     fill="none"
     style="stroke-width:5;stroke-dasharray:none"
     sodipodi:nodetypes="cssc" />
  <path
     id="curve_46"
     d="m 1662.01,2207.48 c -176.54,119.19 -366.6812,195.3727 -501.76,42.31 -88.4269,-100.1997 -49.0258,-223.7608 5.53,-327.32 72.4118,-137.4539 257.2033,-145.4573 386.8349,-215.9674 6.3497,-3.4538 19.6297,-3.7771 18.6151,-10.8426 -1.4278,-9.9428 -15.2831,-12.2925 -23.175,-17.1431 -63.2241,-38.8592 -135.8214,-37.4692 -204.845,-35.5069 -101.1363,2.8752 -195.2878,26.4724 -301.15,95.62 -71.57063,46.7489 -143.70013,135.8967 -176.143,223.24 -31.78104,85.5615 -92.8745,168.5137 -81.053,276.09 20.72565,188.6045 156.08099,342.1197 279.096,454.06 185.7494,169.0269 584.9744,141.496 862.24,73.69 412.5915,-100.9002 728.8948,-397.0831 806.86,-827.35 17.1351,-94.5637 21.9559,-179.9171 10.89,-270.13 -20.9465,-170.7631 -54.1212,-339.6443 -123.07,-466.52 -109.2154,-200.9721 -303.46,-437.148 -552.09,-446.286"
     stroke="#ff4300"
     stroke-width="2"
     fill="none"
     style="stroke-width:5;stroke-dasharray:none"
     sodipodi:nodetypes="cssssssssssssssc" />
  <path
     id="curve_53"
     d="M1844.93,2018.71 C1942.48,1928.81 1949.49,1878.7 1988.3,1780.39"
     stroke="#ff6100"
     stroke-width="2"
     fill="none"
     style="stroke-width:5;stroke-dasharray:none" />
  <path
     id="curve_54"
     d="m 327.591,971.612 c -5.667,97.778 13.03686,149.3183 67.26,210.038 32.69201,36.6089 55.89943,-80.8786 102.454,-89.09 54.76611,-9.6598 29.38036,107.3181 83.163,121.89 56.63122,15.3437 77.26965,-119.4827 130.375,-119.4 64.05678,0.1 42.64797,138.1411 108.801,133.7 61.33783,-4.1178 66.42463,-124.1038 125.906,-117.32 61.1964,6.9794 45.21354,121.2865 105.17,134.27 60.8478,13.1765 67.9768,-71.9534 113.43,-103.39 24.1019,-16.6695 51.3183,12.155 64.22,37.14 14.9983,29.0451 41.5277,103.5937 82.24,93.58 52.479,-12.9078 58.9212,-77.0515 99.57,-108.73 16.4729,-12.8377 28.9224,-10.9597 41.35,8.12 25.5126,39.1687 32.4687,78.9332 74.2,111.09 64.6365,49.8068 103.9021,-89.8055 179.89,-84.37 69.9795,5.0057 60.5374,153.9035 156.1,106.15 60.7469,-30.3558 104.45,-110.27 156.75,-165.64"
     stroke="#0000d9"
     stroke-width="2"
     fill="none"
     style="stroke-width:5;stroke-dasharray:none"
     sodipodi:nodetypes="csssssssssssssssc" />
  <path
     id="curve_59"
     d="m 2033.06,1552.85 c -118.4,43.54 -282.2499,38.2356 -301.71,158.13 -16.682,102.7784 173.6219,76.0168 256.95,69.41 21.7783,-1.7267 75.57,-9.7 107.57,-15.63"
     stroke="#d9ff25"
     stroke-width="2"
     fill="none"
     style="stroke-width:5;stroke-dasharray:none"
     sodipodi:nodetypes="cssc" />
</svg>
