<?xml version="1.0" encoding="UTF-8" standalone="no"?>
<svg
   height="3986"
   width="3574"
   version="1.1"
   id="svg54"
   sodipodi:docname="DeerOrig_bezier_end.svg"
   inkscape:version="1.1.2 (0a00cf5339, 2022-02-04)"
   xmlns:inkscape="http://www.inkscape.org/namespaces/inkscape"
   xmlns:sodipodi="http://sodipodi.sourceforge.net/DTD/sodipodi-0.dtd"
   xmlns="http://www.w3.org/2000/svg"
   xmlns:svg="http://www.w3.org/2000/svg">
  <defs
     id="defs58" />
  <sodipodi:namedview
     id="namedview56"
     pagecolor="#ffffff"
     bordercolor="#666666"
     borderopacity="1.0"
     inkscape:pageshadow="2"
     inkscape:pageopacity="0.0"
     inkscape:pagecheckerboard="0"
     showgrid="false"
     inkscape:zoom="0.1545133"
     inkscape:cx="1326.7466"
     inkscape:cy="3261.8552"
     inkscape:window-width="2560"
     inkscape:window-height="1412"
     inkscape:window-x="2560"
     inkscape:window-y="0"
     inkscape:window-maximized="1"
     inkscape:current-layer="svg54" />
  <path
     id="curve_1"
     d="m 1477.35,3016.63 c 2.19,40.52 -22.5854,96.1188 -36.3,128.56 -64.158,151.7634 -88.641,407.3591 -289.39,428.36 -42.7246,4.4695 -143.0116,-78.7706 -132.56,-143.04 32.6384,-200.7008 41.5564,-394.8394 21.87,-607.25 -14.6049,-157.5829 -54.163,-326 -125.918,-475.77"
     stroke="#0009ff"
     stroke-width="2"
     fill="none"
     sodipodi:nodetypes="cssssc" />
  <path
     id="curve_20"
     d="m 895.988,2021.37 c 8.78282,-45.5764 22.62621,-135.0322 68.293,-138.09 150.2073,-10.0577 108.1727,267.4563 -1.854,292.74 -74.2056,17.0521 -80.05199,-84.0085 -66.439,-154.65 z"
     stroke="#00a6ff"
     stroke-width="2"
     fill="none"
     sodipodi:nodetypes="ssss" />
  <path
     id="curve_32"
     d="m 2792.17,2747.22 c 119.25,22.99 285.2994,-95.4818 215.62,-232.95 -8.1516,-16.0819 -19.9166,-33.1178 -39.12,-54.1 -91.2137,-99.6629 -241.62,-48.74 -268.48,57.84"
     stroke="#93ff6b"
     stroke-width="2"
     fill="none"
     sodipodi:nodetypes="cssc" />
  <path
     id="curve_36"
     d="m 1068.79,2296.84 c -52.66,28.24 -100.49448,49.5143 -153.738,50.65 -159.12406,3.3941 -324.43326,14.1414 -481.089,-60.19 -52.72263,-25.0163 -123.51596,3.6066 -147.262,-70.35 -54.14581,-168.6362 -14.64618,-427.902 182.637,-456.64 197.42501,-28.7586 417.18699,41.2897 607.032,-11.89 56.9319,-15.9479 96.9065,-49.888 151.28,-108.59 152.2395,-164.3587 211.187,-412.2129 296.39,-664.007 13.843,-40.90914 59.0891,29.1586 64.7,54.227 21.154,94.5121 -50.9736,187.1447 -29.31,279.31 13.9095,59.1761 86.7744,-14.0443 109.12,-53.17 84.1446,-147.332 137.5111,-319.71893 184.11,-499.397 24.8135,-95.67708 14.3031,-181.89564 77.22,-236.083 22.618,-19.47984 46.645,29.67241 50.43,45.795 25.4227,108.28994 -48.7764,219.37584 -11.14,312.911 25.5758,63.56182 98.3293,-26.06235 116.66,-64.631 59.0732,-124.29316 88.7901,-272.27228 177.59,-365.758 19.7878,-20.832 51.329,-1.97154 44.86,31.564 -8.4347,43.72597 -68.1153,143.80657 0.25,148.676 48.0645,3.42348 94.5154,-18.31512 142.09,-79.648 64.5538,-83.22228 71.1599,-182.50509 151.68,-246.549 19.0232,-15.13062 35.4943,-28.29994 53.86,-7.236 52.7014,60.44414 37.0565,130.48755 9.89,188.428 -182.6685,389.5934 -472.1644,705.5357 -823.91,934.448 -187.032,121.7185 -377.9265,249.0574 -530.9149,410.7782 -2.1278,2.2492 -7.0051,3.734 -6.3651,6.7618 0.6835,3.2336 5.8039,3.1171 8.6523,4.7068 183.4718,102.393 221.4135,288.7584 370.6977,425.1732 204.0796,186.4865 591.7598,177.0428 921.59,195.76 48.8869,2.7742 105.4754,45.8384 130.12,89.11 76.7793,134.8112 86.2485,365.2672 1.06,507.73 -54.7736,91.5991 -100.9066,214.332 -107.2,320.39 -8.1286,136.9846 26.6931,341.1931 -142.03,328.28 -105.2333,-8.0539 -82.7192,-152.5916 -124.27,-246.58 -55.0473,-124.5175 -98.26,-285.99 -48.52,-470.77"
     stroke="#7fff7f"
     stroke-width="2"
     fill="none"
     sodipodi:nodetypes="csssssssssssssssssssssssssssssssssc" />
  <path
     id="curve_38"
     d="m 1441.05,3145.19 c 153.6,149.39 400.8236,233.9869 695.17,230.54 57.0758,-0.6684 130.44,-34.65 179.59,-64.2"
     stroke="#ff6b00"
     stroke-width="2"
     fill="none"
     sodipodi:nodetypes="csc" />
  <path
     id="curve_50"
     d="m 1035.84,2778.72 c -131.353,94.95 -264.32872,146.4446 -380.559,246.14 -55.28669,47.4216 29.46249,111.8209 69.286,122.23 110.76662,28.9522 202.657,5.15 324.143,-7.56"
     stroke="#31ffcd"
     stroke-width="2"
     fill="none"
     sodipodi:nodetypes="cssc" />
</svg>
