<?xml version="1.0" encoding="UTF-8" standalone="no"?>
<!-- Created with Inkscape (http://www.inkscape.org/) -->

<svg
   width="210mm"
   height="297mm"
   viewBox="0 0 210 297"
   version="1.1"
   id="svg20102"
   inkscape:version="1.1.2 (0a00cf5339, 2022-02-04)"
   sodipodi:docname="Fishi.svg"
   xmlns:inkscape="http://www.inkscape.org/namespaces/inkscape"
   xmlns:sodipodi="http://sodipodi.sourceforge.net/DTD/sodipodi-0.dtd"
   xmlns="http://www.w3.org/2000/svg"
   xmlns:svg="http://www.w3.org/2000/svg">
  <sodipodi:namedview
     id="namedview20104"
     pagecolor="#ffffff"
     bordercolor="#666666"
     borderopacity="1.0"
     inkscape:pageshadow="2"
     inkscape:pageopacity="0.0"
     inkscape:pagecheckerboard="0"
     inkscape:document-units="mm"
     showgrid="false"
     inkscape:zoom="0.77593294"
     inkscape:cx="396.94152"
     inkscape:cy="561.90423"
     inkscape:window-width="2560"
     inkscape:window-height="1372"
     inkscape:window-x="0"
     inkscape:window-y="0"
     inkscape:window-maximized="1"
     inkscape:current-layer="layer1" />
  <defs
     id="defs20099" />
  <g
     inkscape:label="Layer 1"
     inkscape:groupmode="layer"
     id="layer1">
    <path
       style="fill:none;stroke:#000000;stroke-width:1.23829;stroke-linecap:butt;stroke-linejoin:miter;stroke-miterlimit:4;stroke-dasharray:none;stroke-opacity:1"
       d="m 96.741102,116.5831 c 0,0 -0.13745,3.38796 0.2824,5.00548 0.46206,1.77974 1.36732,3.4469 2.40765,4.96303 1.021618,1.48887 2.360258,2.74536 3.696808,3.95948 1.1394,1.03501 2.31087,2.07574 3.66177,2.81369 1.74088,0.95098 3.69579,1.4585 5.60092,2.0113 1.66897,0.48429 3.37838,0.82475 5.08771,1.13806 1.39429,0.25556 2.79836,0.46904 4.20943,0.60391 1.95202,0.18649 3.92072,0.13299 5.8759,0.28275 1.39075,0.1065 2.77538,0.28241 4.16152,0.43774 3.62858,0.4066 7.27843,0.67672 10.87722,1.29369 2.72626,0.46738 5.39685,1.21577 8.09597,1.82055 2.7602,0.61848 5.53569,1.17152 8.28197,1.84906 3.24887,0.80152 6.53744,1.50063 9.69077,2.62054 2.99487,1.06364 5.79848,2.60415 8.7119,3.87396 2.65793,1.15847 5.37949,2.17406 7.99929,3.41639 2.10603,0.99868 4.03842,2.35911 6.19592,3.24109 0.95848,0.39182 1.93864,0.85308 2.97303,0.90073 0.83074,0.0381 1.82801,0.0577 2.44408,-0.50079 0.73195,-0.66369 1.09943,-2.83696 0.14364,-3.45058 -1.29757,-0.83293 -2.8115,-1.29865 -4.14153,-2.07064 -3.08935,-1.79312 -5.29316,-3.2118 -8.42838,-4.92131 -3.46901,-1.89151 -6.97753,-3.71238 -10.52116,-5.4601 -3.7375,-1.84334 -7.53763,-3.55711 -11.32352,-5.29886 -3.49403,-1.60747 -7.05247,-3.07623 -10.51317,-4.75428 -2.81064,-1.36284 -5.545,-2.87763 -8.31936,-4.31288 -2.82364,-1.46074 -5.70605,-2.81248 -8.47472,-4.37493 -2.71675,-1.53314 -5.40802,-3.12481 -7.97343,-4.89965 -2.80136,-1.93807 -5.56076,-3.96453 -8.07666,-6.26101 -1.90664,-1.74034 -3.74862,-3.58692 -5.28214,-5.66356 -1.4166,-1.9183 -2.76953,-3.95449 -3.56449,-6.202754 -0.40596,-1.14809 -0.0941,-2.48909 -0.57535,-3.60766 -0.63482,-1.47529 -1.68564,-2.81118 -2.93343,-3.82237 -1.3273,-1.07562 -2.94874,-1.87635 -4.62424,-2.21012 -1.15072,-0.22933 -2.432618,-0.26774 -3.515078,0.185 -1.19235,0.49871 -2.09157,1.57741 -2.86409,2.61358 -0.50343,0.67526 -0.9115,1.45405 -1.0995,2.27508 -0.21026,0.91859 0,2.82711 0,2.82711"
       id="path3339"
       sodipodi:nodetypes="cssssssssssssssssssssssssssssssssssssc" />
    <path
       style="fill:none;stroke:#000000;stroke-width:1.23829;stroke-linecap:butt;stroke-linejoin:miter;stroke-miterlimit:4;stroke-dasharray:none;stroke-opacity:1"
       d="m 107.88866,134.28289 c 0,0 -2.21856,1.05443 -3.40888,1.3085 -1.44169,0.30771 -2.94188,0.23602 -4.41603,0.23899 -2.050978,0.005 -4.117708,0.001 -6.145198,-0.30838 -2.807575,-0.4285 -5.475788,-1.5205 -8.249528,-2.13073 -1.481538,-0.32594 -3.016792,-0.40566 -4.477129,-0.81628 -3.0899,-0.86883 -5.905816,-2.55666 -8.984943,-3.46292 -2.526503,-0.74359 -5.104247,-1.50982 -7.736179,-1.60531 -2.514393,-0.0911 -5.051397,0.34548 -7.482453,0.99392 -2.224436,0.59334 -4.327172,1.5988 -6.389962,2.62111 -1.811367,0.89771 -3.653271,1.80557 -5.229785,3.0711 -1.488991,1.19527 -2.758038,2.66519 -3.90021,4.19532 -1.331705,1.78405 -2.473282,3.72484 -3.396475,5.75066 -0.732819,1.60806 -1.288092,3.30551 -1.676196,5.02953 -0.369803,1.64276 -0.642796,3.33102 -0.610526,5.01459 0.02229,1.21543 -0.135716,2.61742 0.579172,3.60065 0.409898,0.56377 1.212532,0.69822 1.861518,0.95251 1.498601,0.5872 3.056243,1.07164 4.648583,1.30627 2.605308,0.3839 5.267899,0.0349 7.898914,0.14736 2.849127,0.12185 5.702638,0.24885 8.536063,0.57142 2.308416,0.26281 4.575672,0.82165 6.881092,1.1096 1.490527,0.18624 3.007008,0.15182 4.488669,0.39888 1.888761,0.3149 3.738391,0.84191 5.577422,1.37534 2.664647,0.77289 5.296901,1.66307 7.893392,2.6408 2.231717,0.84038 4.541396,1.55928 6.596533,2.76891 1.514248,0.89127 3.025208,1.90342 4.142968,3.25915 0.44521,0.54002 1.17057,1.2001 0.95974,1.86749 -0.24171,0.76474 -1.34344,0.96096 -2.12955,1.11971 -1.21637,0.24567 -2.47185,-0.22339 -3.709172,-0.31809 -1.84334,-0.14092 -3.692524,-0.53851 -5.53371,-0.37174 -1.926825,0.1746 -3.759392,0.91785 -5.626929,1.42329 -1.55836,0.42176 -3.06766,1.04016 -4.65351,1.34255 -1.210798,0.23082 -2.45503,0.48368 -3.68086,0.35435 -1.629464,-0.17187 -3.077715,-1.17308 -4.686895,-1.48164 -1.581517,-0.30325 -3.213481,-0.48518 -4.818203,-0.35103 -2.130351,0.17807 -4.221968,0.78879 -6.230223,1.52159 -0.906303,0.33072 -1.633475,1.1864 -2.593148,1.28551 -1.669509,0.17237 -3.21462,-1.00937 -4.873084,-1.26719 -1.472349,-0.22883 -2.994353,-0.48947 -4.463607,-0.24146 -0.934436,0.15776 -1.939084,0.42949 -2.631138,1.07689 -0.787997,0.73717 -1.112899,1.8741 -1.422991,2.90765 -0.520502,1.73486 -0.286689,3.62429 -0.692773,5.38945 -0.319354,1.38812 -0.787427,2.74689 -1.362017,4.05024 -0.570727,1.2946 -1.458406,2.43073 -2.057366,3.71251 -0.604334,1.29327 -1.161242,2.61952 -1.54157,3.99543 -0.438353,1.58585 -0.387138,3.28228 -0.840599,4.86387 -0.397639,1.38691 -0.889512,2.77236 -1.634812,4.00772 -0.552425,0.91564 -1.172461,1.86467 -2.06279,2.45701 -0.671053,0.44646 -1.606777,0.32253 -2.308763,0.71858 -0.985999,0.55627 -1.818946,1.38158 -2.540768,2.25369 -0.761275,0.91977 -1.395576,1.96615 -1.834128,3.07665 -0.463838,1.17451 -0.491823,2.4786 -0.806967,3.70144 -0.337929,1.31122 -0.629967,2.64716 -1.160845,3.89283 -0.36163,0.8485 -0.478202,2.15385 -1.365163,2.40686 -0.31195,0.0889 -0.683808,-0.18996 -0.854444,-0.46577 -0.936418,-1.51408 -0.290056,-5.00383 -0.192677,-6.78141 0.14587,-2.6642 0.751244,-3.83926 1.160771,-6.47583 0.379931,-2.44591 0.837578,-4.87952 1.2026,-7.32771 0.417179,-2.79801 0.506584,-5.65167 1.128328,-8.41145 0.575829,-2.55595 1.462022,-5.03807 2.396459,-7.48577 1.103834,-2.89138 2.677401,-5.58844 3.782152,-8.47947 1.08583,-2.84155 2.133396,-5.71886 2.787931,-8.68954 0.438081,-1.98832 0.800206,-4.02624 0.751046,-6.06164 -0.04012,-1.66235 -0.318265,-3.34031 -0.851645,-4.91526 -0.628827,-1.85679 -1.973756,-3.40116 -2.723738,-5.2124 -0.944492,-2.28102 -1.707995,-4.65138 -2.214405,-7.06773 -0.463516,-2.21165 -0.705849,-4.47903 -0.741215,-6.73846 -0.04408,-2.81787 0.189706,-5.65023 0.660875,-8.42878 0.516267,-3.04478 1.340496,-6.04406 2.360969,-8.95881 1.108738,-3.16685 2.369266,-6.31359 4.066463,-9.20804 1.765625,-3.01114 3.964676,-5.76955 6.293945,-8.36931 2.40733,-2.68689 4.941016,-5.32868 7.886036,-7.412274 2.544756,-1.80042 5.486433,-2.9681 8.307723,-4.29389 2.116432,-0.99456 4.186007,-2.18582 6.457399,-2.74194 3.6714,-0.89889 7.524654,-0.87861 11.304478,-0.89129 2.335164,-0.007 4.6785,0.15429 6.987387,0.50376 2.705857,0.4095 5.378255,1.06366 7.996764,1.85911 1.66307,0.50523 3.279655,1.15971 4.877467,1.84382 1.755842,0.75176 5.165442,2.48029 5.165442,2.48029"
       id="path3545"
       sodipodi:nodetypes="csssssssssssssssssssssssssssssssssssssssssssssssssssssssssssssssssssssssssssssc" />
    <path
       style="fill:none;stroke:#000000;stroke-width:1.23829;stroke-linecap:butt;stroke-linejoin:miter;stroke-miterlimit:4;stroke-dasharray:none;stroke-opacity:1"
       d="m 87.798037,102.30027 c 0,0 -1.449342,1.38544 -2.047286,2.18444 -0.754118,1.00766 -1.432898,2.09151 -1.915062,3.25409 -0.542395,1.30781 -0.95628,2.69945 -1.068816,4.11077 -0.101539,1.27474 0.01981,2.58792 0.364849,3.81901 0.336666,1.19777 1.632856,3.35642 1.632856,3.35642"
       id="path4017"
       sodipodi:nodetypes="cssssc" />
    <path
       style="fill:none;stroke:#000000;stroke-width:1.23829;stroke-linecap:butt;stroke-linejoin:miter;stroke-miterlimit:4;stroke-dasharray:none;stroke-opacity:1"
       d="m 98.814662,104.18244 c 0,0 1.10114,1.58583 1.796708,2.24544 0.82311,0.78056 1.749,1.48017 2.76621,1.98225 0.84726,0.41819 1.77949,0.67212 2.71195,0.82475 0.83257,0.13621 1.68764,0.12284 2.52987,0.074 0.74156,-0.0428 2.20507,-0.32144 2.20507,-0.32144"
       id="path4185"
       sodipodi:nodetypes="cssssc" />
    <path
       style="fill:none;stroke:#000000;stroke-width:1.23829;stroke-linecap:butt;stroke-linejoin:miter;stroke-miterlimit:4;stroke-dasharray:none;stroke-opacity:1"
       d="m 76.104463,107.67934 c 0,0 -0.951723,0.41723 -1.460288,0.47679 -0.546778,0.0641 -1.10802,-0.0198 -1.645932,-0.13596 -1.532183,-0.33355 -2.948413,-1.06879 -4.424997,-1.5966 -1.582804,-0.56578 -3.087151,-1.46247 -4.75349,-1.68313 -0.527833,-0.0698 -1.140265,-0.15801 -1.592587,0.12283 -0.42602,0.26458 -0.796789,0.79253 -0.768754,1.29325 0.170141,3.04017 -0.160482,5.77589 0.151319,8.63911 0.100054,0.91812 0.04953,1.93894 0.549057,2.71572 0.411136,0.63925 1.113444,1.1362 1.846188,1.33811 0.815413,0.22463 1.717481,0.0173 2.527296,-0.2266 2.048574,-0.61764 3.747802,-2.06633 5.644686,-3.05622 1.237743,-0.64592 3.742403,-1.88086 3.742403,-1.88086"
       id="path4353"
       sodipodi:nodetypes="csssssssssssc" />
    <path
       style="fill:none;stroke:#000000;stroke-width:1.23829;stroke-linecap:butt;stroke-linejoin:miter;stroke-miterlimit:4;stroke-dasharray:none;stroke-opacity:1"
       d="m 37.636233,106.56887 c 0,0 -0.702233,-4.08625 -1.244925,-5.98247 -0.403855,-1.411104 -1.416279,-2.611254 -1.750047,-4.040564 -0.213234,-0.91348 -0.477286,-1.93497 -0.140918,-2.81064 0.357271,-0.93008 1.284427,-1.55915 2.109721,-2.11732 1.748983,-1.18294 3.912767,-1.59264 5.829042,-2.47928 2.243332,-1.03795 4.476213,-2.10868 6.629521,-3.32237 2.005308,-1.13029 4.030057,-2.26216 5.843778,-3.67962 1.769983,-1.3833 3.379089,-2.97923 4.862508,-4.66617 1.48555,-1.68937 2.767128,-3.55314 4.011855,-5.42704 1.127956,-1.69812 2.291576,-3.39683 3.12368,-5.25787 1.560367,-3.48985 1.729393,-7.52196 3.442094,-10.93961 0.748644,-1.49389 1.369249,-3.47092 2.930136,-4.06748 1.351517,-0.51654 3.058595,0.0958 4.239353,0.93204 2.313567,1.63848 3.222495,4.68855 4.480076,7.22937 1.640508,3.31453 3.051017,6.78 3.954249,10.3663 0.849044,3.37112 1.052396,6.87815 1.342032,10.34243 0.37104,4.43805 0.504627,13.3511 0.504627,13.3511"
       id="path4635"
       sodipodi:nodetypes="cssssssssssssssssc" />
  </g>
</svg>
