<?xml version="1.0" encoding="UTF-8" standalone="no"?>
<!-- Created with Inkscape (http://www.inkscape.org/) -->

<svg
   width="210mm"
   height="297mm"
   viewBox="0 0 210 297"
   version="1.1"
   id="svg5"
   sodipodi:docname="Frog (copy).svg"
   inkscape:version="1.1.2 (0a00cf5339, 2022-02-04)"
   xmlns:inkscape="http://www.inkscape.org/namespaces/inkscape"
   xmlns:sodipodi="http://sodipodi.sourceforge.net/DTD/sodipodi-0.dtd"
   xmlns="http://www.w3.org/2000/svg"
   xmlns:svg="http://www.w3.org/2000/svg">
  <sodipodi:namedview
     id="namedview44"
     pagecolor="#ffffff"
     bordercolor="#666666"
     borderopacity="1.0"
     inkscape:pageshadow="2"
     inkscape:pageopacity="0.0"
     inkscape:pagecheckerboard="0"
     inkscape:document-units="mm"
     showgrid="false"
     inkscape:zoom="1.5554293"
     inkscape:cx="355.85031"
     inkscape:cy="453.25108"
     inkscape:window-width="2560"
     inkscape:window-height="1279"
     inkscape:window-x="0"
     inkscape:window-y="27"
     inkscape:window-maximized="1"
     inkscape:current-layer="svg5" />
  <defs
     id="defs2" />
  <g
     id="layer1">
    <path
       style="fill:none;stroke:#ec0000;stroke-width:0.264583px;stroke-linecap:butt;stroke-linejoin:miter;stroke-opacity:1"
       d="m 72.519519,102.07677 c 0,0 -4.028658,1.54508 -6.075236,1.25115 -2.688184,-0.38607 -5.337092,-1.84175 -7.194796,-3.822745 -2.526785,-2.694475 -3.572371,-6.540426 -4.5609,-10.09959 -0.754379,-2.716117 -1.12329,-5.582435 -0.992643,-8.398338 0.116686,-2.515004 0.592641,-5.069424 1.577295,-7.386603 1.027564,-2.418158 2.539502,-4.686901 4.406717,-6.535383 0.926778,-0.91748 3.265678,-2.154423 3.265678,-2.154423"
       id="path869" />
    <path
       style="fill:none;stroke:#fa0000;stroke-width:0.264583px;stroke-linecap:butt;stroke-linejoin:miter;stroke-opacity:1"
       d="m 65.063811,64.244583 c 0,0 2.111817,-0.977576 3.224829,-0.898065 1.576919,0.112651 3.089565,0.943765 4.341688,1.908935 1.590739,1.226185 2.811595,2.940661 3.749432,4.716737 0.952031,1.802958 1.318478,3.864094 1.807681,5.843413 0.603745,2.442761 1.326574,4.904984 1.385506,7.42056 0.05595,2.388183 -0.486325,4.762218 -0.984009,7.098638 -0.413685,1.942074 -1.657726,5.721628 -1.657726,5.721628"
       id="path1056" />
    <path
       style="fill:none;stroke:#f40000;stroke-width:0.264583px;stroke-linecap:butt;stroke-linejoin:miter;stroke-opacity:1"
       d="m 59.678326,59.869895 c 0,0 1.966971,-1.870988 3.172105,-2.445684 1.250181,-0.596178 2.658008,-0.930325 4.042746,-0.960012 1.30012,-0.02787 2.617838,0.269125 3.830847,0.737844 1.27263,0.491758 3.495373,2.129575 3.495373,2.129575"
       id="path1295" />
    <path
       style="fill:none;stroke:#f80000;stroke-width:0.264583px;stroke-linecap:butt;stroke-linejoin:miter;stroke-opacity:1"
       d="m 51.229331,64.362864 c 0,0 -2.456548,-0.457604 -3.654624,-0.224682 -1.175729,0.228577 -2.324629,0.778801 -3.242609,1.548151 -0.912639,0.764874 -2.079003,2.905035 -2.079003,2.905035"
       id="path1482" />
    <path
       style="fill:none;stroke:#f70000;stroke-width:0.264583px;stroke-linecap:butt;stroke-linejoin:miter;stroke-opacity:1"
       d="m 54.475438,88.400706 c 0,0 -2.525778,1.817054 -3.721622,2.810222 -2.168881,1.801292 -4.239775,3.722004 -6.24949,5.69931 -1.586215,1.560636 -3.169754,3.135772 -4.577905,4.858782 -1.230387,1.5055 -2.432145,3.05872 -3.364008,4.76518 -0.425721,0.7796 -1.000643,2.46978 -1.000643,2.46978"
       id="path1631" />
    <path
       style="fill:none;stroke:#f80000;stroke-width:0.264583px;stroke-linecap:butt;stroke-linejoin:miter;stroke-opacity:1"
       d="m 56.501127,71.207806 c 0,0 -2.415484,-1.512437 -3.784227,-1.76539 -1.298983,-0.240061 -2.704133,-0.149459 -3.952949,0.281173 -1.45964,0.503332 -2.821705,1.429165 -3.840829,2.589027 -1.146939,1.305328 -1.866804,2.987655 -2.333471,4.661445 -0.516132,1.851204 -0.662469,3.836128 -0.458952,5.747131 0.223784,2.101309 1.076906,4.094809 1.824257,6.071434 0.460004,1.216637 0.889044,2.476433 1.63049,3.545109 0.478484,0.689659 1.7746,1.786613 1.7746,1.786613"
       id="path1742" />
    <path
       style="fill:none;stroke:#fb0000;stroke-width:0.264583px;stroke-linecap:butt;stroke-linejoin:miter;stroke-opacity:1"
       d="m 60.836574,111.2064 c 0,0 -2.159022,-1.04845 -3.316962,-1.3259 -2.499681,-0.59895 -5.113191,-0.55803 -7.680047,-0.69365 -3.673825,-0.19411 -7.356722,-0.13794 -11.035522,-0.17105 -2.770985,-0.0249 -5.553793,-0.27435 -8.313267,-0.0208 -1.617342,0.14861 -4.788645,0.89989 -4.788645,0.89989"
       id="path1929" />
    <path
       style="fill:none;stroke:#f80000;stroke-width:0.264583px;stroke-linecap:butt;stroke-linejoin:miter;stroke-opacity:1"
       d="m 23.387323,116.14981 c 0,0 2.120647,3.63181 3.294601,5.37467 1.343209,1.99413 2.815635,3.89904 4.282253,5.80425 0.394158,0.51203 1.213588,1.51163 1.213588,1.51163"
       id="path2002" />
    <path
       style="fill:none;stroke:#f80000;stroke-width:0.264583px;stroke-linecap:butt;stroke-linejoin:miter;stroke-opacity:1"
       d="m 33.80128,130.88096 c 0,0 3.872399,4.72213 5.875639,7.02603 1.498081,1.72292 2.948021,3.49792 4.592849,5.08135 2.19235,2.11051 4.650383,3.92666 7.000676,5.85974 2.646331,2.17656 5.25044,4.40967 7.994931,6.46108 2.362569,1.76593 4.887579,3.30485 7.28292,5.02607 0.583243,0.4191 1.725502,1.29035 1.725502,1.29035"
       id="path2203" />
    <path
       style="fill:none;stroke:#fe0000;stroke-width:0.264583px;stroke-linecap:butt;stroke-linejoin:miter;stroke-opacity:1"
       d="m 44.216325,142.85801 c 0,0 -2.977108,2.11698 -4.553797,3.03403 -1.601348,0.93139 -3.303726,1.67728 -4.965247,2.49652 -2.414462,1.19049 -4.869594,2.29831 -7.271015,3.51489 -1.179285,0.59744 -3.503845,1.85792 -3.503845,1.85792"
       id="path2314" />
    <path
       style="fill:none;stroke:#fd0000;stroke-width:0.264583px;stroke-linecap:butt;stroke-linejoin:miter;stroke-opacity:1"
       d="m 24.348338,155.35608 c 0,0 3.892069,-0.97799 5.822618,-1.52388 2.854093,-0.80703 8.513204,-2.58837 8.513204,-2.58837"
       id="path2501" />
    <path
       style="fill:none;stroke:#fb0000;stroke-width:0.264583px;stroke-linecap:butt;stroke-linejoin:miter;stroke-opacity:1"
       d="m 21.276751,168.49293 c 0,0 4.549864,-4.66378 6.873185,-6.94712 2.968444,-2.91736 9.599241,-9.17858 9.599241,-9.17858"
       id="path2626" />
    <path
       style="fill:none;stroke:#f50000;stroke-width:0.264583px;stroke-linecap:butt;stroke-linejoin:miter;stroke-opacity:1"
       d="m 22.198571,169.30337 19.722663,-13.7844"
       id="path2827" />
    <path
       style="fill:none;stroke:#f90000;stroke-width:0.264583px;stroke-linecap:butt;stroke-linejoin:miter;stroke-opacity:1"
       d="m 31.834695,170.83673 9.558571,-14.64495"
       id="path2862" />
    <path
       style="fill:none;stroke:#fb0000;stroke-width:0.264583px;stroke-linecap:butt;stroke-linejoin:miter;stroke-opacity:1"
       d="M 33.046828,171.46606 53.946535,151.0086"
       id="path2897" />
    <path
       style="fill:none;stroke:#fd0000;stroke-width:0.264583px;stroke-linecap:butt;stroke-linejoin:miter;stroke-opacity:1"
       d="m 38.36602,178.80456 c 0,0 14.093961,-7.90657 21.239995,-11.67593 1.788062,-0.94316 3.753623,-1.58075 5.412161,-2.73659 1.413859,-0.98532 2.729774,-2.15898 3.785843,-3.52081 0.778945,-1.00447 1.491489,-2.12304 1.820045,-3.35095 0.204555,-0.76448 0.06014,-2.37336 0.06014,-2.37336"
       id="path2932" />
    <path
       style="fill:none;stroke:#fa0000;stroke-width:0.264583px;stroke-linecap:butt;stroke-linejoin:miter;stroke-opacity:1"
       d="m 39.582677,180.54535 c 0,0 3.023744,-0.73804 4.466198,-1.30905 1.59242,-0.63037 3.065426,-1.52879 4.583748,-2.32117 2.04387,-1.06666 4.035754,-2.23215 6.091944,-3.27486 1.37299,-0.69626 4.167777,-1.9896 4.167777,-1.9896"
       id="path6253" />
    <path
       style="fill:none;stroke:#fe0000;stroke-width:0.264583px;stroke-linecap:butt;stroke-linejoin:miter;stroke-opacity:1"
       d="m 45.280873,191.60366 c 0,0 4.351873,-6.59378 6.583333,-9.85311 2.134239,-3.11733 6.508105,-9.27896 6.508105,-9.27896"
       id="path6364" />
    <path
       style="fill:none;stroke:#fc0000;stroke-width:0.264583px;stroke-linecap:butt;stroke-linejoin:miter;stroke-opacity:1"
       d="M 46.366194,192.48348 61.510653,176.52702"
       id="path6603" />
    <path
       style="fill:none;stroke:#f90000;stroke-width:0.264583px;stroke-linecap:butt;stroke-linejoin:miter;stroke-opacity:1"
       d="m 54.045564,203.82726 c 0,0 0.844141,-4.93226 1.444516,-7.35885 1.008065,-4.07439 2.384165,-8.04894 3.615788,-12.06142 0.731667,-2.38368 2.241886,-7.13649 2.241886,-7.13649"
       id="path6638" />
    <path
       style="fill:none;stroke:#f30000;stroke-width:0.264583px;stroke-linecap:butt;stroke-linejoin:miter;stroke-opacity:1"
       d="M 55.384578,204.19141 66.827267,180.77897"
       id="path6763" />
    <path
       style="fill:none;stroke:#f70000;stroke-width:0.264583px;stroke-linecap:butt;stroke-linejoin:miter;stroke-opacity:1"
       d="m 75.034636,170.30735 c 0,0 4.06125,-4.28669 5.83429,-6.63976 1.782129,-2.36513 3.452655,-4.83893 4.798373,-7.4769 0.82961,-1.62626 1.652536,-3.30737 1.99526,-5.10055 0.345635,-1.80841 0.301564,-3.70288 0.02658,-5.52338 -0.115195,-0.76263 -0.694047,-2.20731 -0.694047,-2.20731"
       id="path6798" />
    <path
       style="fill:none;stroke:#fb0000;stroke-width:0.264583px;stroke-linecap:butt;stroke-linejoin:miter;stroke-opacity:1"
       d="m 81.346248,163.03509 c 0,0 9.282651,-0.008 13.916559,0.21835 5.410393,0.26406 16.653643,1.32855 16.653643,1.32855"
       id="path6999"
       sodipodi:nodetypes="ccc" />
    <path
       style="fill:none;stroke:#f70000;stroke-width:0.264583px;stroke-linecap:butt;stroke-linejoin:miter;stroke-opacity:1"
       d="m 120.52907,150.07794 c 0,0 -3.02163,3.31977 -4.24394,5.1909 -1.20125,1.83889 -2.1154,3.85674 -2.99569,5.8691 -0.66039,1.50966 -1.20248,3.07058 -1.70795,4.63892 -0.95417,2.96057 -2.49612,8.99157 -2.49612,8.99157"
       id="path7200" />
    <path
       style="fill:none;stroke:#f90000;stroke-width:0.264583px;stroke-linecap:butt;stroke-linejoin:miter;stroke-opacity:1"
       d="m 108.17123,177.26229 c 0,0 -2.37452,8.4719 -3.76304,12.64443 -1.28936,3.87456 -4.23791,11.494 -4.23791,11.494"
       id="path7425" />
    <path
       style="fill:none;stroke:#fd0000;stroke-width:0.264583px;stroke-linecap:butt;stroke-linejoin:miter;stroke-opacity:1"
       d="m 101.45018,201.96326 c 0,0 4.26702,-6.63036 6.04907,-10.13933 1.88276,-3.70726 3.21476,-7.66973 4.87952,-11.47987 0.6061,-1.38718 1.8599,-4.14311 1.8599,-4.14311"
       id="path7550" />
    <path
       style="fill:none;stroke:#fc0000;stroke-width:0.264583px;stroke-linecap:butt;stroke-linejoin:miter;stroke-opacity:1"
       d="m 112.23983,211.58235 c 0,0 1.17457,-9.79589 1.64637,-14.70584 0.3878,-4.03578 0.86786,-8.07111 0.97327,-12.12411 0.0681,-2.6198 -0.22088,-7.85894 -0.22088,-7.85894"
       id="path7694" />
    <path
       style="fill:none;stroke:#f90000;stroke-width:0.264583px;stroke-linecap:butt;stroke-linejoin:miter;stroke-opacity:1"
       d="m 113.72739,211.8104 c 0,0 1.72093,-4.39694 2.39062,-6.65785 0.95226,-3.21488 1.58812,-6.51578 2.30507,-9.79118 0.70144,-3.20452 1.19504,-6.4538 1.95292,-9.64544 0.65841,-2.77277 2.25166,-8.24779 2.25166,-8.24779"
       id="path7781" />
    <path
       style="fill:none;stroke:#fb0000;stroke-width:0.264583px;stroke-linecap:butt;stroke-linejoin:miter;stroke-opacity:1"
       d="m 123.97551,177.49962 c 0,0 0.48114,5.57644 0.83994,8.35107 0.25355,1.96068 0.76552,3.88771 0.92712,5.8581 0.2037,2.48375 0.48634,5.5008 0.90653,7.95721 0.2903,1.69705 0.82774,4.40169 0.82774,4.40169"
       id="path7906" />
    <path
       style="fill:none;stroke:#fd0000;stroke-width:0.264583px;stroke-linecap:butt;stroke-linejoin:miter;stroke-opacity:1"
       d="m 130.08883,203.61716 c 0,0 1.42135,-15.21967 2.39242,-22.79917 0.47321,-3.69352 0.67583,-7.45739 1.67267,-11.04519 0.63515,-2.28601 2.71741,-6.57869 2.71741,-6.57869"
       id="path8069" />
    <path
       style="fill:none;stroke:#f50000;stroke-width:0.264583px;stroke-linecap:butt;stroke-linejoin:miter;stroke-opacity:1"
       d="m 132.39694,138.78173 c 0,0 3.37292,-3.83452 4.92931,-5.8565 2.6955,-3.50185 5.1543,-7.18136 7.62055,-10.84827 0.98766,-1.46849 1.95408,-2.95223 2.87294,-4.46472 1.39915,-2.30306 4.01747,-7.01537 4.01747,-7.01537"
       id="path8194" />
    <path
       style="fill:none;stroke:#fc0000;stroke-width:0.264583px;stroke-linecap:butt;stroke-linejoin:miter;stroke-opacity:1"
       d="m 142.54453,154.86254 c 0,0 6.71056,-7.46354 10.0501,-11.20938 3.54464,-3.9759 7.29952,-7.777 10.60041,-11.95747 2.80654,-3.5544 5.35746,-7.31081 7.79908,-11.12511 1.74447,-2.72521 3.47297,-5.47704 4.88536,-8.38824 1.15147,-2.37338 2.28325,-4.79758 2.90619,-7.36093 0.44432,-1.82834 0.67,-3.73726 0.56782,-5.616044 -0.15096,-2.775664 -0.82547,-5.529897 -1.73377,-8.15708 -0.564,-1.631318 -1.03938,-3.450074 -2.28168,-4.648396 -2.11525,-2.040364 -5.18138,-2.956371 -8.04959,-3.597288 -3.34241,-0.746881 -6.90699,-0.833855 -10.27258,-0.199551 -2.63945,0.497451 -5.16903,1.654594 -7.44659,3.078278 -2.57937,1.612343 -4.95839,3.65465 -6.82839,6.053797 -2.0103,2.579143 -3.28343,5.67973 -4.51888,8.707424 -1.27231,3.11801 -2.14571,6.39246 -2.94838,9.663 -0.70453,2.87067 -1.27785,5.78149 -1.63278,8.71597 -0.26864,2.22103 -0.37262,6.70131 -0.37262,6.70131"
       id="path8357" />
    <path
       style="fill:none;stroke:#fe0000;stroke-width:0.264583px;stroke-linecap:butt;stroke-linejoin:miter;stroke-opacity:1"
       d="m 165.24011,101.05689 c 0,0 4.26669,2.88771 6.71646,3.49356 2.19895,0.54382 6.7955,0.0357 6.7955,0.0357"
       id="path8520" />
    <path
       style="fill:none;stroke:#fc0000;stroke-width:0.264583px;stroke-linecap:butt;stroke-linejoin:miter;stroke-opacity:1"
       d="m 161.19801,89.367007 c 0,0 1.35696,-2.634812 2.19981,-3.848444 0.74904,-1.078558 2.522,-3.026336 2.522,-3.026336"
       id="path8645" />
    <path
       style="fill:none;stroke:#f90000;stroke-width:0.264583px;stroke-linecap:butt;stroke-linejoin:miter;stroke-opacity:1"
       d="m 135.86598,108.17041 c 0,0 -3.78163,-3.30741 -5.86166,-4.70362 -3.97609,-2.66893 -8.18487,-5.029629 -12.56539,-6.964457 -4.79046,-2.115891 -9.81193,-3.726396 -14.88465,-5.027555 -3.317344,-0.850904 -10.114696,-1.803394 -10.114696,-1.803394"
       id="path8879" />
    <path
       style="fill:none;stroke:#f90000;stroke-width:0.264583px;stroke-linecap:butt;stroke-linejoin:miter;stroke-opacity:1"
       d="m 97.411954,108.54913 c 0,0 -3.398375,3.13652 -4.571341,5.09312 -0.708558,1.18193 -1.325555,2.51012 -1.412274,3.88543 -0.09464,1.50098 0.293192,3.07107 0.996473,4.40046 0.740916,1.40053 1.852218,2.71505 3.241789,3.47633 1.603761,0.87862 3.573065,1.14659 5.395309,0.99343 1.76878,-0.14867 3.53739,-0.82298 5.00259,-1.82492 1.57424,-1.07651 2.94453,-2.58166 3.77691,-4.29754 0.86272,-1.77843 1.27188,-3.86482 1.07509,-5.83163 -0.18027,-1.80162 -0.98178,-3.55999 -2.02365,-5.0408 -0.43277,-0.61509 -1.68684,-1.49839 -1.68684,-1.49839"
       id="path9042" />
    <path
       style="fill:none;stroke:#fb0000;stroke-width:0.264583px;stroke-linecap:butt;stroke-linejoin:miter;stroke-opacity:1"
       d="m 63.60847,136.15557 c 0,0 -0.702856,-4.5323 0.09845,-6.5711 0.538143,-1.36922 1.652082,-2.59643 2.956327,-3.2771 0.931534,-0.48615 2.093485,-0.57982 3.127616,-0.39361 1.639121,0.29515 3.203728,1.18514 4.428345,2.31392 1.082559,0.99784 1.992893,2.30882 2.357035,3.73536 0.314739,1.233 0.110428,2.58685 -0.240562,3.81003 -0.312699,1.08974 -1.618125,2.99156 -1.618125,2.99156"
       id="path9167" />
    <path
       style="fill:none;stroke:#fc0000;stroke-width:0.264583px;stroke-linecap:butt;stroke-linejoin:miter;stroke-opacity:1"
       d="m 68.941552,72.064786 c -1.110003,0.218131 -1.168707,2.00753 -1.312621,3.129571 -0.162186,1.264504 -0.157279,2.719668 0.541308,3.786087 0.38816,0.592541 1.117779,1.273531 1.808414,1.116063 0.855924,-0.195154 1.252047,-1.356328 1.420145,-2.217975 0.267762,-1.372513 -0.116735,-2.886896 -0.768305,-4.124209 -0.371038,-0.704591 -0.907571,-1.843087 -1.688941,-1.689537 z"
       id="path9292" />
    <path
       style="fill:none;stroke:#fe0000;stroke-width:0.264583px;stroke-linecap:butt;stroke-linejoin:miter;stroke-opacity:1"
       d="m 49.16471,74.550841 c -0.816831,0.258148 -0.846959,1.526454 -0.992187,2.370706 -0.157067,0.913073 -0.245149,1.939357 0.154633,2.775148 0.170154,0.355727 0.514945,0.63924 0.878255,0.792538 0.224967,0.09492 0.507658,0.145843 0.731002,0.04716 0.334871,-0.14796 0.571053,-0.510268 0.685707,-0.857954 0.358673,-1.087668 0.144792,-2.321098 -0.127807,-3.433464 -0.107351,-0.438056 -0.281106,-0.8849 -0.580533,-1.222184 -0.195925,-0.220697 -0.467672,-0.560882 -0.74907,-0.47195 z"
       id="path9483" />
  </g>
  <path
     style="fill:none;stroke:#000000;stroke-width:0.264583px;stroke-linecap:butt;stroke-linejoin:miter;stroke-opacity:1"
     d="m 92.439584,89.671384 c 0,0 -5.751735,-1.070885 -8.650512,-1.453579 -1.524006,-0.201198 -4.590436,-0.442232 -4.590436,-0.442232"
     id="path913"
     sodipodi:nodetypes="csc" />
  <path
     style="fill:none;stroke:#000000;stroke-width:0.264583px;stroke-linecap:butt;stroke-linejoin:miter;stroke-opacity:1"
     d="m 72.519518,102.07677 c 0,0 2.254675,-1.37106 3.015525,-2.408335 0.763462,-1.040834 1.396169,-3.612007 1.396169,-3.612007"
     id="path1005"
     sodipodi:nodetypes="csc" />
  <path
     style="fill:none;stroke:#000000;stroke-width:0.264583px;stroke-linecap:butt;stroke-linejoin:miter;stroke-opacity:1"
     d="m 62.945634,64.930837 2.118177,-0.686255"
     id="path1135" />
  <path
     style="fill:none;stroke:#000000;stroke-width:0.264583px;stroke-linecap:butt;stroke-linejoin:miter;stroke-opacity:1"
     d="m 25.702131,109.89489 c 0,0 -2.919978,0.31193 -3.49081,1.43273 -0.750872,1.47431 1.176002,4.82219 1.176002,4.82219"
     id="path1137"
     sodipodi:nodetypes="csc" />
  <path
     style="fill:none;stroke:#000000;stroke-width:0.264583px;stroke-linecap:butt;stroke-linejoin:miter;stroke-opacity:1"
     d="m 32.177765,128.84036 1.623515,2.0406"
     id="path1302" />
  <path
     style="fill:none;stroke:#000000;stroke-width:0.264583px;stroke-linecap:butt;stroke-linejoin:miter;stroke-opacity:1"
     d="m 23.922421,153.76137 0.425917,1.59471"
     id="path1304" />
  <path
     style="fill:none;stroke:#000000;stroke-width:0.264583px;stroke-linecap:butt;stroke-linejoin:miter;stroke-opacity:1"
     d="m 21.276751,168.49293 0.92182,0.81044"
     id="path1306" />
  <path
     style="fill:none;stroke:#000000;stroke-width:0.264583px;stroke-linecap:butt;stroke-linejoin:miter;stroke-opacity:1"
     d="m 31.834695,170.83673 1.212133,0.62933"
     id="path1308" />
  <path
     style="fill:none;stroke:#000000;stroke-width:0.264583px;stroke-linecap:butt;stroke-linejoin:miter;stroke-opacity:1"
     d="m 38.36602,178.80456 1.216657,1.74079"
     id="path1310" />
  <path
     style="fill:none;stroke:#000000;stroke-width:0.264583px;stroke-linecap:butt;stroke-linejoin:miter;stroke-opacity:1"
     d="m 45.280873,191.60366 1.085321,0.87982"
     id="path1312" />
  <path
     style="fill:none;stroke:#000000;stroke-width:0.264583px;stroke-linecap:butt;stroke-linejoin:miter;stroke-opacity:1"
     d="m 54.045564,203.82726 1.339014,0.36415"
     id="path1314" />
  <path
     style="fill:none;stroke:#000000;stroke-width:0.264583px;stroke-linecap:butt;stroke-linejoin:miter;stroke-opacity:1"
     d="m 61.510653,176.52702 -0.162899,0.74348"
     id="path1316" />
  <path
     style="fill:none;stroke:#000000;stroke-width:0.264583px;stroke-linecap:butt;stroke-linejoin:miter;stroke-opacity:1"
     d="m 58.892344,171.65067 -0.520033,0.82092"
     id="path1318" />
  <path
     style="fill:none;stroke:#000000;stroke-width:0.264583px;stroke-linecap:butt;stroke-linejoin:miter;stroke-opacity:1"
     d="m 37.749175,152.36723 0.934985,-1.1234"
     id="path1320" />
  <path
     style="fill:none;stroke:#000000;stroke-width:0.264583px;stroke-linecap:butt;stroke-linejoin:miter;stroke-opacity:1"
     d="m 41.921234,155.51897 -0.527968,0.67281"
     id="path1322" />
  <path
     style="fill:none;stroke:#000000;stroke-width:0.264583px;stroke-linecap:butt;stroke-linejoin:miter;stroke-opacity:1"
     d="m 66.827267,180.77897 8.207367,-10.47162"
     id="path1324" />
  <path
     style="fill:none;stroke:#000000;stroke-width:0.264583px;stroke-linecap:butt;stroke-linejoin:miter;stroke-opacity:1"
     d="m 109.08537,174.76843 -0.91414,2.49386"
     id="path1326" />
  <path
     style="fill:none;stroke:#000000;stroke-width:0.264583px;stroke-linecap:butt;stroke-linejoin:miter;stroke-opacity:1"
     d="m 100.17028,201.40072 1.2799,0.56254"
     id="path1328" />
  <path
     style="fill:none;stroke:#000000;stroke-width:0.264583px;stroke-linecap:butt;stroke-linejoin:miter;stroke-opacity:1"
     d="m 112.23983,211.58235 1.48756,0.22805"
     id="path1330" />
  <path
     style="fill:none;stroke:#000000;stroke-width:0.264583px;stroke-linecap:butt;stroke-linejoin:miter;stroke-opacity:1"
     d="m 114.23867,176.20095 0.39992,0.69251"
     id="path1332" />
  <path
     style="fill:none;stroke:#000000;stroke-width:0.264583px;stroke-linecap:butt;stroke-linejoin:miter;stroke-opacity:1"
     d="m 122.62766,177.46814 1.34785,0.0315"
     id="path1334" />
  <path
     style="fill:none;stroke:#000000;stroke-width:0.264583px;stroke-linecap:butt;stroke-linejoin:miter;stroke-opacity:1"
     d="m 127.47684,204.06769 2.61199,-0.45053"
     id="path1336" />
  <path
     style="fill:none;stroke:#000000;stroke-width:0.264583px;stroke-linecap:butt;stroke-linejoin:miter;stroke-opacity:1"
     d="m 136.87133,163.19411 5.6732,-8.33157"
     id="path1340" />
  <path
     style="fill:none;stroke:#000000;stroke-width:0.264583px;stroke-linecap:butt;stroke-linejoin:miter;stroke-opacity:1"
     d="m 161.19801,89.367007 c 0,0 -0.10444,4.642517 0.67352,6.774188 0.681,1.865996 3.36858,4.915695 3.36858,4.915695"
     id="path1470"
     sodipodi:nodetypes="csc" />
  <path
     style="fill:none;stroke:#000000;stroke-width:0.264583px;stroke-linecap:butt;stroke-linejoin:miter;stroke-opacity:1"
     d="m 97.411952,108.54913 c 0,0 3.505358,-1.19454 5.330818,-1.28058 1.50111,-0.0708 4.46324,0.63607 4.46324,0.63607"
     id="path1600"
     sodipodi:nodetypes="csc" />
  <path
     style="fill:none;stroke:#000000;stroke-width:0.264583px;stroke-linecap:butt;stroke-linejoin:miter;stroke-opacity:1"
     d="m 63.60847,136.15557 c 0,0 2.458561,3.68357 4.425228,4.21236 2.212571,0.59491 6.683857,-1.6033 6.683857,-1.6033"
     id="path1654"
     sodipodi:nodetypes="csc" />
</svg>
