<?xml version="1.0" encoding="UTF-8" standalone="no"?>
<!-- Created with Inkscape (http://www.inkscape.org/) -->

<svg
   width="210mm"
   height="297mm"
   viewBox="0 0 210 297"
   version="1.1"
   id="svg19752"
   inkscape:version="1.1.2 (0a00cf5339, 2022-02-04)"
   sodipodi:docname="Goldi.svg"
   xmlns:inkscape="http://www.inkscape.org/namespaces/inkscape"
   xmlns:sodipodi="http://sodipodi.sourceforge.net/DTD/sodipodi-0.dtd"
   xmlns="http://www.w3.org/2000/svg"
   xmlns:svg="http://www.w3.org/2000/svg">
  <sodipodi:namedview
     id="namedview19754"
     pagecolor="#ffffff"
     bordercolor="#666666"
     borderopacity="1.0"
     inkscape:pageshadow="2"
     inkscape:pageopacity="0.0"
     inkscape:pagecheckerboard="0"
     inkscape:document-units="mm"
     showgrid="false"
     inkscape:zoom="0.77593294"
     inkscape:cx="396.94152"
     inkscape:cy="561.90423"
     inkscape:window-width="2560"
     inkscape:window-height="1372"
     inkscape:window-x="0"
     inkscape:window-y="0"
     inkscape:window-maximized="1"
     inkscape:current-layer="layer1" />
  <defs
     id="defs19749" />
  <g
     inkscape:label="Layer 1"
     inkscape:groupmode="layer"
     id="layer1">
    <path
       style="fill:none;stroke:#000000;stroke-width:1.5816;stroke-linecap:butt;stroke-linejoin:miter;stroke-miterlimit:4;stroke-dasharray:none;stroke-opacity:1"
       d="m 36.68393,131.56621 c 0,0 2.58665,-2.05302 4.00667,-3.40108 2.06213,-1.95768 4.25588,-4.61259 6.24462,-6.64477 2.0551,-2.09999 4.2151,-3.93344 6.69145,-5.51492 3.4131,-2.1797 7.66299,-4.26862 11.57509,-5.31545 3.79411,-1.01527 7.19111,-1.44217 11.11738,-1.3407 3.27727,0.0848 6.29304,1.22574 9.35253,2.40353 3.02675,1.1652 5.87107,2.75446 8.61025,4.49109 4.01547,2.54578 7.68485,5.67654 11.92909,7.81929 3.17257,1.60169 6.47958,3.20079 9.99769,3.70428 1.54001,0.22047 2.85638,0.0221 4.11161,-0.89595 3.31488,-2.42691 6.08879,-4.46009 8.49533,-7.65755 2.21079,-2.93736 4.10236,-6.59131 5.83969,-9.83129 2.58988,-4.82993 5.00498,-9.769777 7.95189,-14.390527 2.11246,-3.31236 4.354,-6.56989 6.94947,-9.51908 2.33341,-2.65143 4.79084,-5.27398 7.69463,-7.2847 3.13572,-2.17129 6.58406,-3.88534 10.31057,-4.69794 3.40042,-0.74145 6.88763,-0.21415 10.28666,0.53351 4.43406,0.9755 8.51605,2.84262 12.33869,5.29211 2.6607,1.70494 5.70387,3.55842 6.9738,6.45209 0.41482,0.9452 0.97155,1.69099 0.33125,2.50064 -0.88794,1.12281 -2.73406,1.02709 -4.16544,1.04471 -2.03634,0.0253 -3.97495,-0.88819 -5.96068,-1.34006 -1.76934,-0.40261 -3.49645,-1.07214 -5.30486,-1.22166 -1.61896,-0.1338 -3.35053,-0.2907 -4.86429,0.29861 -1.02491,0.39913 -2.08967,1.08542 -2.56283,2.07832 -0.60736,1.27455 0.0319,2.82405 0,4.23553 -0.0285,1.20556 0.1433,2.44772 -0.16354,3.61394 -0.3043,1.15662 -0.92356,2.22949 -1.62218,3.200147 -1.24346,1.72765 -2.81301,2.72542 -4.53108,3.98207 -1.67814,1.22748 -2.97094,1.55895 -4.476,2.9934 -0.65769,0.62682 -2.1637,1.88654 -2.38781,2.76702 -0.37538,1.47485 -0.18378,3.06815 0.093,4.5646 0.39448,2.13261 1.653,4.02414 2.20311,6.12198 0.34821,1.32785 0.67591,2.6879 0.68651,4.06064 0.0126,1.81435 -0.075,3.72803 -0.82446,5.38046 -0.70359,1.55133 -2.67098,2.18147 -3.60185,3.60805 -1.025,1.57082 -1.79939,3.51353 -2.17018,5.35221 -0.30904,1.53289 -0.10027,3.16517 0.27552,4.68313 0.4313,1.7428 1.39602,3.31276 2.22784,4.90382 0.85233,1.63032 2.2697,2.98775 2.82345,4.74209 0.39673,1.25687 0.42634,2.6317 0.29418,3.94307 -0.12748,1.26535 -0.54872,2.49738 -1.03734,3.67153 -0.67924,1.63219 -1.75062,3.07208 -2.60452,4.62003 -0.82513,1.49578 -2.36716,2.80307 -2.43384,4.51007 -0.056,1.43015 0.99938,2.70033 1.73812,3.92617 0.80915,1.34266 2.35067,2.2288 2.91284,3.69216 0.52373,1.36337 0.52237,2.93065 0.28722,4.37209 -0.33413,2.04821 -1.87325,3.74359 -2.36137,5.76064 -0.31094,1.2849 -0.70068,2.67949 -0.34004,3.95132 0.35399,1.24836 1.55557,2.07738 2.31989,3.12595 0.66523,0.91262 1.70431,1.65774 1.97207,2.75484 0.37317,1.52893 -0.88879,3.11497 -0.67053,4.67357 0.23123,1.65211 1.19164,3.13424 2.04425,4.56812 0.63957,1.07561 1.45903,2.03793 2.2783,2.98388 1.10697,1.27816 2.56891,2.24604 3.55073,3.62263 0.46041,0.64549 0.93919,1.3444 1.06392,2.12739 0.13981,0.87817 0.0996,1.89821 -0.3929,2.63862 -0.40078,0.60256 -1.14293,1.00609 -1.85678,1.12503 -1.17383,0.19548 -2.38388,-0.31655 -3.48816,-0.76006 -2.01439,-0.80905 -3.70149,-2.26903 -5.55434,-3.40007 -2.27352,-1.38782 -4.75522,-2.47929 -6.82576,-4.15497 -1.29448,-1.04759 -2.21171,-2.497 -3.43028,-3.63199 -2.03773,-1.89802 -4.56052,-3.2595 -6.46512,-5.2911 -1.61292,-1.72047 -2.93204,-3.71446 -4.11859,-5.75251 -1.3919,-2.39072 -1.96628,-5.21942 -3.4831,-7.53293 -1.12639,-1.718 -2.63445,-3.16166 -4.0987,-4.60259 -1.94284,-1.91194 -4.62831,-3.10804 -6.19343,-5.33978 -1.32722,-1.89252 -2.01126,-4.2145 -2.46825,-6.48037 -0.57143,-2.83319 -0.48732,-5.78181 -0.29576,-8.6657 0.23218,-3.4962 1.12933,-6.91645 1.74489,-10.36583 0.49545,-2.77641 1.41468,-5.49813 1.56813,-8.31421 0.0756,-1.38631 0.32536,-2.92476 -0.32271,-4.15256 -0.64814,-1.2279 -1.87016,-2.42786 -3.24669,-2.60949 -1.4658,-0.19327 -2.87595,0.90091 -4.05966,1.78677 -1.75251,1.31156 -3.14771,3.11955 -4.23284,5.02061 -1.2532,2.19549 -1.7777,4.73706 -2.50685,7.15758 -0.89329,2.96532 -1.20262,6.1036 -2.28336,9.00584 -0.9593,2.57612 -2.35925,4.97013 -3.69542,7.37246 -0.82063,1.47544 -2.64962,4.31657 -2.64962,4.31657"
       id="path10670"
       sodipodi:nodetypes="cssssssssssssssssssssssssssssssssssssssssssssssssssssssssssssssssssssssssssssssc" />
    <path
       style="fill:none;stroke:#000000;stroke-width:1.5816;stroke-linecap:butt;stroke-linejoin:miter;stroke-miterlimit:4;stroke-dasharray:none;stroke-opacity:1"
       d="m 88.61548,169.30776 c 0,0 2.39407,3.94184 3.23415,6.07729 1.03048,2.61938 1.51626,5.42284 2.17544,8.15939 0.67034,2.7829 0.96054,5.66088 1.80853,8.39487 0.66098,2.13112 1.59694,4.17101 2.54069,6.19287 1.03927,2.22648 2.02492,4.50905 3.43075,6.52424 1.15916,1.66157 2.53677,3.19016 4.0719,4.51222 0.87011,0.74933 1.75906,1.6183 2.8715,1.90299 0.87576,0.22395 1.90403,0.19611 2.70236,-0.22807 0.8366,-0.44443 0.97762,-1.0288 1.28303,-1.92554 0.3694,-1.08476 0.13064,-2.52086 0.009,-3.66037 -0.21479,-2.02316 -0.75452,-4.02341 -0.73577,-6.05786 0.0221,-2.36987 1.00692,-4.63201 1.46954,-6.9564 0.50231,-2.52386 1.01523,-5.04712 1.41812,-7.58875 0.23946,-1.51072 0.76743,-3.03055 0.59345,-4.55018 -0.10501,-0.91686 -0.381,-1.88221 -0.9692,-2.5933 -0.86134,-1.04132 -2.19872,-1.6319 -3.46413,-2.10622 -1.43192,-0.53673 -3.07492,-0.28247 -4.52069,-0.78049 -1.7776,-0.61243 -3.46558,-1.5395 -4.96972,-2.66753 -1.51783,-1.13834 -2.74968,-2.62363 -3.98858,-4.06058 -0.93445,-1.08381 -2.5864,-3.42648 -2.5864,-3.42648"
       id="path12092"
       sodipodi:nodetypes="csssssssssssssssssssc" />
    <path
       style="fill:none;stroke:#000000;stroke-width:1.5816;stroke-linecap:butt;stroke-linejoin:miter;stroke-miterlimit:4;stroke-dasharray:none;stroke-opacity:1"
       d="m 59.11929,173.93848 c 0,0 1.29328,2.57203 1.89774,3.87812 0.74835,1.617 1.31013,3.3215 2.13959,4.89842 0.91028,1.73059 1.9151,3.42458 3.09934,4.9806 1.13455,1.49072 2.51637,2.77644 3.808,4.1333 1.28154,1.34623 2.50513,2.75841 3.90998,3.97542 1.28644,1.11443 2.7003,2.07662 4.11365,3.02494 0.6837,0.45873 1.28525,1.26968 2.10841,1.28664 1.32873,0.0285 2.3718,-1.11595 3.33794,-2.02857 1.13578,-1.07289 1.97153,-2.37389 2.82215,-3.68444 1.04791,-1.61453 1.99513,-3.36796 3.03203,-4.98961 0.8678,-1.3572 1.83621,-2.66427 2.52636,-4.11986 0.60082,-1.26718 1.07442,-2.49305 1.06954,-3.89542 -0.003,-0.9298 -0.30272,-2.06498 -0.97724,-2.70486 -0.80507,-0.76363 -2.02844,-0.50501 -3.13217,-0.61914 -1.92437,-0.19896 -3.55162,0.10566 -5.48567,0.15247 -2.33381,0.0566 -4.68901,0.0908 -6.9992,-0.24515 -1.84484,-0.26824 -3.75333,-0.55625 -5.41354,-1.40427 -1.01448,-0.5182 -1.79044,-1.41187 -2.63426,-2.17717 -0.8776,-0.79596 -2.52035,-2.50631 -2.52035,-2.50631"
       id="path12526"
       sodipodi:nodetypes="cssssssssssssssssssc" />
    <path
       style="fill:none;stroke:#000000;stroke-width:1.5816;stroke-linecap:butt;stroke-linejoin:miter;stroke-miterlimit:4;stroke-dasharray:none;stroke-opacity:1"
       d="m 14.90186,155.88283 c 0.24262,1.37817 0.84382,2.69473 1.55709,3.89868 0.77546,1.30891 1.91503,2.36504 2.9042,3.52094 1.23226,1.43995 2.34612,3.00644 3.7744,4.2522 1.3642,1.18984 2.95115,2.10559 4.51358,3.01966 1.9666,1.15052 4.02088,2.1513 6.09706,3.08979 1.41398,0.63916 2.90091,1.10611 4.32309,1.72686 1.7087,0.74582 3.09241,1.8921 4.95633,1.93364 1.48535,0.0332 2.74994,-0.99758 3.93437,-1.89451 1.80844,-1.36948 3.15932,-2.87143 4.51238,-4.69218 1.14723,-1.54374 2.4376,-3.01751 3.28255,-4.74531 0.8703,-1.77959 1.48149,-3.71146 1.78196,-5.66955 0.24326,-1.58438 0.33344,-3.24096 0,-4.80883 -0.33042,-1.55383 -1.1118,-2.99724 -1.93923,-4.35327 -0.80624,-1.3213 -1.76605,-2.5753 -2.90778,-3.62039 -1.16586,-1.0672 -2.74215,-1.60555 -3.94439,-2.6316 -1.22458,-1.04509 -2.21311,-2.33957 -3.27864,-3.54643 -1.40402,-1.59027 -2.74731,-3.23327 -4.10163,-4.86605 -0.81244,-0.97946 -1.50246,-2.06956 -2.41397,-2.95754 -0.87694,-0.85432 -1.7609,-1.81182 -2.90512,-2.24721 -1.0097,-0.3842 -2.1718,-0.42345 -3.23331,-0.22269 -1.299,0.24547 -2.44054,1.03485 -3.58404,1.6983 -1.45669,0.84518 -3.07774,1.58663 -4.14421,2.89006 -1.17178,1.43215 -1.55586,3.36145 -2.21105,5.09201 -0.59769,1.5786 -0.9409,3.2476 -1.56506,4.81592 -0.50713,1.27427 -1.02672,2.56084 -1.76485,3.71674 -0.74838,1.17193 -1.88236,2.05975 -2.66589,3.2085 -0.35944,0.52696 -0.75528,1.06056 -0.92397,1.67574 -0.15152,0.55208 -0.1531,1.15277 -0.0538,1.71658 z"
       id="path13183"
       sodipodi:nodetypes="ssssssssssssssssssssssssssssss" />
    <path
       style="fill:none;stroke:#000000;stroke-width:1.5816;stroke-linecap:butt;stroke-linejoin:miter;stroke-miterlimit:4;stroke-dasharray:none;stroke-opacity:1"
       d="m 44.11784,177.45211 c 0,0 2.08661,1.04275 3.17707,1.45042 1.60479,0.59997 3.32298,0.86017 4.92919,1.45634 1.39191,0.51662 2.62935,1.43547 4.06052,1.83055 1.5785,0.43576 4.88013,0.56448 4.88013,0.56448"
       id="path13541"
       sodipodi:nodetypes="csssc" />
    <path
       style="fill:none;stroke:#000000;stroke-width:1.5816;stroke-linecap:butt;stroke-linejoin:miter;stroke-miterlimit:4;stroke-dasharray:none;stroke-opacity:1"
       d="m 30.72204,142.19272 c -0.6229,0.34219 -0.74997,1.44406 -0.95469,2.12466 -0.29924,0.99505 -0.22775,1.78838 -0.28975,2.82563 -0.075,1.25696 -0.34849,2.51355 -0.25274,3.76906 0.0977,1.28337 0.35586,2.57618 0.83958,3.76893 0.33454,0.8249 0.65336,1.78844 1.39899,2.27466 0.55508,0.36197 1.32403,0.41976 1.96957,0.27014 0.70761,-0.16386 1.35069,-0.65165 1.80857,-1.21556 0.80374,-0.98983 1.13129,-2.30721 1.43644,-3.54523 0.32888,-1.33418 0.55369,-2.73633 0.40492,-4.10236 -0.13696,-1.25779 -0.5739,-2.49631 -1.17709,-3.60846 -0.44743,-0.82497 -0.95839,-1.71582 -1.76728,-2.19163 -0.53275,-0.31347 -1.01394,-0.40549 -1.62874,-0.46876 -0.52731,-0.0544 -1.32311,-0.15626 -1.78772,0.099 z"
       id="path13671"
       sodipodi:nodetypes="sssssssssssssss" />
    <path
       style="fill:none;stroke:#000000;stroke-width:1.5816;stroke-linecap:butt;stroke-linejoin:miter;stroke-miterlimit:4;stroke-dasharray:none;stroke-opacity:1"
       d="m 99.1742,138.46023 c 0,0 2.0942,1.75074 2.85169,2.86517 0.86337,1.27021 1.38818,2.75626 1.84052,4.22402 0.59288,1.92383 0.87836,3.93585 1.12256,5.93411 0.21984,1.79993 0.40185,3.62058 0.30588,5.43136 -0.0569,1.07587 -0.19327,2.16369 -0.52184,3.18977 -0.40871,1.27645 -1.77639,3.60717 -1.77639,3.60717"
       id="path14409"
       sodipodi:nodetypes="csssssc" />
    <path
       style="fill:none;stroke:#000000;stroke-width:1.5816;stroke-linecap:butt;stroke-linejoin:miter;stroke-miterlimit:4;stroke-dasharray:none;stroke-opacity:1"
       d="m 135.25131,136.31889 c 0,0 1.30852,1.82116 1.60786,2.87871 0.33906,1.19791 0.17904,2.48682 0.15784,3.73161 -0.0285,1.76016 -0.12589,3.52732 -0.40258,5.26585 -0.31189,1.96011 -1.05382,3.83229 -1.41155,5.78456 -0.38923,2.12425 -0.77049,4.2703 -0.79564,6.42976 -0.019,1.64714 -0.1,3.38011 0.49245,4.91714 0.60559,1.57123 1.95312,2.74554 3.00033,4.06418 1.3165,1.65778 2.74886,3.22015 4.12223,4.83111 1.1162,1.30922 2.20618,2.64118 3.34686,3.92911 0.83727,0.94536 2.56616,2.78701 2.56616,2.78701"
       id="path14539"
       sodipodi:nodetypes="csssssssssc" />
    <path
       style="fill:none;stroke:#000000;stroke-width:1.5816;stroke-linecap:butt;stroke-linejoin:miter;stroke-miterlimit:4;stroke-dasharray:none;stroke-opacity:1"
       d="m 131.54868,126.18518 c 0,0 1.39491,-0.67294 2.09929,-1.2271 1.66161,-1.30726 3.06344,-3.12895 4.23706,-4.88751 1.14973,-1.72274 2.06437,-3.59141 3.0778,-5.39773 1.24633,-2.22149 2.41046,-4.48928 3.69266,-6.69024 1.30698,-2.24354 2.60791,-4.49628 4.07573,-6.63803 1.17124,-1.708977 2.42818,-3.362707 3.76643,-4.944337 1.3823,-1.63367 2.89358,-3.1548 4.3925,-4.68218 1.24102,-1.26456 2.39179,-2.64359 3.80755,-3.70893 2.13194,-1.60425 6.95466,-3.96261 6.95466,-3.96261"
       id="path14745"
       sodipodi:nodetypes="cssssssssc" />
    <path
       style="fill:none;stroke:#000000;stroke-width:1.5816;stroke-linecap:butt;stroke-linejoin:miter;stroke-miterlimit:4;stroke-dasharray:none;stroke-opacity:1"
       d="m 49.22937,118.87333 c 0,0 1.1856,-2.97984 1.61598,-4.52139 0.48287,-1.72946 0.85027,-3.49684 1.07689,-5.2781 0.23566,-1.85158 0.29133,-3.72553 0.29006,-5.59205 -10e-4,-1.92781 -0.0626,-3.863027 -0.30746,-5.775217 -0.25021,-1.95385 -0.79308,-3.85893 -1.18238,-5.78987 -0.35867,-1.77915 -0.76496,-3.54972 -1.06264,-5.3401 -0.29608,-1.7799 -0.72653,-3.56085 -0.71831,-5.36521 0.006,-1.61235 0.0952,-3.28784 0.68547,-4.78827 0.32284,-0.82076 0.77768,-1.68122 1.50996,-2.17275 0.65564,-0.4401 1.52609,-0.5862 2.31246,-0.51434 0.9242,0.0845 1.79825,0.5616 2.56309,1.08723 1.60222,1.10108 2.6723,2.82516 4.05064,4.19615 1.31286,1.30587 2.54929,2.70815 4.01731,3.83678 1.58369,1.21759 3.26639,2.36488 5.11395,3.12459 1.6487,0.67791 3.44575,0.94007 5.2049,1.2283 2.18338,0.35779 4.41866,0.30304 6.60877,0.61692 2.20839,0.31661 4.42488,0.66327 6.57026,1.27522 1.60865,0.45889 3.23476,0.96111 4.68962,1.7868 1.71822,0.97515 3.21388,2.31803 4.65156,3.67315 1.36441,1.28603 2.62119,2.69676 3.74074,4.2008 0.68493,0.92018 1.49421,1.825647 1.80531,2.929757 0.57874,2.054 0.20624,4.27982 -0.019,6.40193 -0.16797,1.5834 -0.64425,3.11886 -0.98828,4.67357 -0.53901,2.43573 -1.68555,7.2917 -1.68555,7.2917"
       id="path14951"
       sodipodi:nodetypes="csssssssssssssssssssssssc" />
    <path
       style="fill:none;stroke:#000000;stroke-width:1.5816;stroke-linecap:butt;stroke-linejoin:miter;stroke-miterlimit:4;stroke-dasharray:none;stroke-opacity:1"
       d="m 62.75084,90.393303 c 0,0 0.0724,3.05126 0.17999,4.57298 0.0977,1.38416 0.44788,2.75389 0.42346,4.14127 -0.0285,1.556617 -0.63834,4.626697 -0.63834,4.626697"
       id="path15157"
       sodipodi:nodetypes="cssc" />
    <path
       style="fill:none;stroke:#000000;stroke-width:1.5816;stroke-linecap:butt;stroke-linejoin:miter;stroke-miterlimit:4;stroke-dasharray:none;stroke-opacity:1"
       d="m 73.4057,93.238853 c 0,0 0.24673,1.90081 0.2869,2.85714 0.0446,1.06186 0.0525,2.13032 -0.0519,3.18797 -0.11577,1.173487 -0.63545,3.480127 -0.63545,3.480127"
       id="path15287"
       sodipodi:nodetypes="cssc" />
    <path
       style="fill:none;stroke:#000000;stroke-width:1.5816;stroke-linecap:butt;stroke-linejoin:miter;stroke-miterlimit:4;stroke-dasharray:none;stroke-opacity:1"
       d="m 86.64467,97.295793 c 0,0 -0.25748,1.93835 -0.37006,2.909457 -0.11862,1.02304 -0.21668,2.04837 -0.32199,3.07287 -0.0829,0.80683 -0.24356,2.42105 -0.24356,2.42105"
       id="path15379"
       sodipodi:nodetypes="cssc" />
  </g>
</svg>
