<?xml version="1.0" encoding="UTF-8" standalone="no"?>
<!-- Created with Inkscape (http://www.inkscape.org/) -->

<svg
   width="210mm"
   height="297mm"
   viewBox="0 0 210 297"
   version="1.1"
   id="svg19948"
   inkscape:version="1.1.2 (0a00cf5339, 2022-02-04)"
   sodipodi:docname="Porpi.svg"
   xmlns:inkscape="http://www.inkscape.org/namespaces/inkscape"
   xmlns:sodipodi="http://sodipodi.sourceforge.net/DTD/sodipodi-0.dtd"
   xmlns="http://www.w3.org/2000/svg"
   xmlns:svg="http://www.w3.org/2000/svg">
  <sodipodi:namedview
     id="namedview19950"
     pagecolor="#ffffff"
     bordercolor="#666666"
     borderopacity="1.0"
     inkscape:pageshadow="2"
     inkscape:pageopacity="0.0"
     inkscape:pagecheckerboard="0"
     inkscape:document-units="mm"
     showgrid="false"
     inkscape:zoom="0.77593294"
     inkscape:cx="396.94152"
     inkscape:cy="561.90423"
     inkscape:window-width="2560"
     inkscape:window-height="1372"
     inkscape:window-x="0"
     inkscape:window-y="0"
     inkscape:window-maximized="1"
     inkscape:current-layer="layer1" />
  <defs
     id="defs19945" />
  <g
     inkscape:label="Layer 1"
     inkscape:groupmode="layer"
     id="layer1">
    <path
       style="fill:none;stroke:#000000;stroke-width:1.50085;stroke-linecap:butt;stroke-linejoin:miter;stroke-miterlimit:4;stroke-dasharray:none;stroke-opacity:1"
       d="m 48.152821,163.81119 c 0,0 -4.961795,-1.08418 -7.192112,-2.23707 -2.659828,-1.3749 -4.89966,-3.46453 -7.13658,-5.4548 -2.884986,-2.56689 -5.631713,-5.31914 -8.05783,-8.32351 -2.390877,-2.96074 -3.310655,-4.70061 -5.196647,-8.00599 -1.396837,-2.44809 -3.575345,-6.57292 -4.80934,-9.10698 -1.037714,-2.13096 -1.24192,-3.46536 -2.511635,-5.46677 -1.370092,-2.15962 -4.3067657,-4.60771 -5.4134297,-6.91349 -0.919718,-1.91628 -1.38483,-4.09335 -1.410434,-6.21876 -0.02701,-2.25147 0.343874,-4.59991 1.335062,-6.62164 0.850619,-1.73497 2.033345,-3.58197 3.7904747,-4.3858 1.417039,-0.64824 3.181793,-0.44626 4.674804,0 1.911117,0.57123 3.239875,1.93303 4.458562,3.51207 1.390143,1.80117 2.293532,4.00609 2.721453,6.2407 0.46064,2.40531 -0.485013,5.05079 0.394452,7.33643 0.72671,1.88861 2.198919,3.50787 3.821603,4.71692 1.883651,1.40347 4.257329,2.0383 6.515681,2.68459 2.163139,0.61904 4.430136,0.84528 6.670178,0.63417 2.9657,-0.27946 5.64603,-1.40455 8.366853,-2.61721 2.542551,-1.13319 5.100561,-2.30493 7.391841,-3.88563 1.84841,-1.27517 3.4979,-2.83641 5.04774,-4.46144 2.01557,-2.11334 3.61346,-4.58991 5.48496,-6.83185 1.87572,-2.247 3.84018,-4.41846 5.75493,-6.63232 1.80384,-2.085696 3.36297,-4.408736 5.40145,-6.265786 1.41332,-1.28755 2.82069,-2.85341 4.67346,-3.32507 1.0333,-0.26295 2.26624,-0.1741 3.17581,0.38245 0.84051,0.51419 1.42932,1.49181 1.65102,2.45187 0.39287,1.70148 -0.21612,3.51777 -0.72469,5.188326 -0.57029,1.87342 -2.1889,3.36292 -2.56708,5.28433 -0.19961,1.01385 -0.29206,2.18325 0.19691,3.0936 0.4945,0.92086 1.49121,1.61593 2.49858,1.89467 1.49892,0.41474 3.2408,0.1756 4.63809,-0.5072 1.87951,-0.9186 2.86704,-3.04941 4.37115,-4.5034 2.00144,-1.93477 4.069613,-3.802 6.186073,-5.610186 1.77037,-1.5125 3.43453,-3.20038 5.44312,-4.37827 1.87497,-1.09955 3.89538,-2.13369 6.04741,-2.43908 1.37286,-0.19481 3.01349,-0.38944 4.13846,0.42119 0.78173,0.5633 1.13707,1.67315 1.18765,2.63534 0.0787,1.49907 -0.69261,2.95831 -1.4098,4.277046 -1.1045,2.03094 -3.49013,3.25614 -4.34921,5.40247 -0.46481,1.1613 -0.83792,2.60385 -0.31353,3.73951 0.35561,0.77014 1.22445,1.39572 2.06829,1.48274 3.35319,0.34577 6.18945,-2.67471 9.24845,-4.09106 3.98708,-1.84607 7.70429,-4.32934 11.86454,-5.74254 2.87139,-0.97537 5.87878,-1.716896 8.90863,-1.844326 2.33421,-0.0982 4.76645,0.0309 6.95831,0.839636 1.08511,0.40033 2.33307,0.90717 2.88934,1.9212 0.65662,1.19701 0.5687,2.82036 0.0798,4.09512 -0.62075,1.61833 -2.31088,2.58772 -3.55199,3.79768 -1.22052,1.18987 -2.90915,1.95764 -3.82223,3.39698 -0.54484,0.85887 -0.96483,1.91517 -0.86197,2.92707 0.0844,0.83072 0.44161,1.81545 1.17673,2.21143 1.90577,1.02658 4.32771,-0.26715 6.46555,-0.60682 3.24885,-0.51614 6.36755,-1.72837 9.62756,-2.16836 2.81001,-0.37923 5.68758,-0.78017 8.49716,-0.39775 1.97103,0.26835 4.05898,0.69483 5.66968,1.86213 0.98249,0.712 1.60015,1.85432 2.15594,2.93286 0.3801,0.7376 0.95225,1.55346 0.77783,2.3647 -0.35943,1.6714 -2.31533,2.51611 -3.46362,3.78267 -1.3474,1.4862 -3.43217,2.56053 -4.0202,4.47849 -0.37884,1.23565 -0.27646,2.82937 0.52776,3.84121 0.86857,1.09297 2.55129,1.18579 3.91324,1.49238 1.89413,0.42639 3.90097,0.0855 5.80665,0.45674 1.87834,0.36596 3.8727,0.68315 5.47368,1.73143 1.34418,0.88013 2.36809,2.23872 3.16996,3.631 0.95283,1.65438 1.30952,3.58978 1.84166,5.42324 0.39845,1.37271 1.13905,2.74418 1.00929,4.16764 -0.0762,0.83543 -0.36309,1.78304 -1.0249,2.29858 -0.87202,0.67931 -2.1707,0.70873 -3.26713,0.56825 -1.16321,-0.14889 -2.12282,-0.99864 -3.20214,-1.4572 -0.85014,-0.3612 -1.65339,-1.02796 -2.57704,-1.01866 -0.92101,0.009 -1.97689,0.34535 -2.54874,1.0674 -0.45503,0.57453 -0.48612,1.44631 -0.36215,2.16863 0.28606,1.66645 1.70261,2.92452 2.45592,4.43824 1.00581,2.0211 2.16317,4.00921 2.74994,6.18916 0.49174,1.82692 0.67865,3.75221 0.61042,5.64294 -0.0678,1.88161 -0.42252,3.76871 -1.01058,5.55733 -0.67517,2.05343 -1.76991,3.95272 -2.85229,5.82376 -0.83718,1.44712 -1.82791,2.80118 -2.8049,4.15779 -1.07203,1.48854 -2.08546,3.03745 -3.35139,4.36497 -1.25441,1.31543 -2.70432,2.43741 -4.16263,3.52243 -1.40074,1.04219 -2.88351,1.97442 -4.38964,2.85746 -1.55914,0.9141 -3.13079,1.82878 -4.80048,2.52061 -1.63947,0.67931 -3.35049,1.19854 -5.08274,1.58411 -1.4225,0.31662 -4.33162,0.59232 -4.33162,0.59232"
       id="path4958"
       sodipodi:nodetypes="csssssssssssssssssssssssssssssssssssssssssssssssssssssssssssssssssssssssssssssssssssc" />
    <path
       style="fill:none;stroke:#000000;stroke-width:1.50085;stroke-linecap:butt;stroke-linejoin:miter;stroke-miterlimit:4;stroke-dasharray:none;stroke-opacity:1"
       d="m 39.632521,160.7904 c 0,0 -0.424079,2.19577 -0.256645,3.27938 0.285761,1.84892 1.111136,3.61827 2.106827,5.20217 1.52582,2.4272 3.623822,4.4806 5.784259,6.36524 1.504297,1.31225 3.210935,2.38709 4.937695,3.3887 2.54285,1.475 5.25662,2.63809 7.94199,3.83421 3.07391,1.36919 6.13086,2.82141 9.34363,3.82232 2.12016,0.66052 6.50764,1.42598 6.50764,1.42598"
       id="path5696"
       sodipodi:nodetypes="cssssssc" />
    <path
       style="fill:none;stroke:#000000;stroke-width:1.50085;stroke-linecap:butt;stroke-linejoin:miter;stroke-miterlimit:4;stroke-dasharray:none;stroke-opacity:1"
       d="m 80.791137,180.36935 c 0,0 -1.70589,3.05816 -2.63653,4.54033 -1.01596,1.61809 -2.1994,3.12701 -3.21379,4.74607 -0.7938,1.26695 -1.53858,2.56797 -2.35045,3.82343 -0.4646,0.71852 -0.9959,1.61569 -1.18555,2.45007 -0.23593,1.03754 -0.0534,1.89386 0.43141,2.84089 0.4902,0.9573 1.22676,1.7891 2.16698,2.3113 1.6439,0.91303 3.63384,1.15983 5.51401,1.19146 1.74585,0.03 3.47005,-0.47345 5.15448,-0.9334 2.30755,-0.63009 4.65766,-1.29484 6.73117,-2.48744 1.9176,-1.10294 3.45221,-2.76915 5.1186,-4.2241 2.04503,-1.78556 5.983663,-5.52522 5.983663,-5.52522"
       id="path5750"
       sodipodi:nodetypes="cssssssssssc" />
    <path
       style="fill:none;stroke:#000000;stroke-width:1.50085;stroke-linecap:butt;stroke-linejoin:miter;stroke-miterlimit:4;stroke-dasharray:none;stroke-opacity:1"
       d="m 140.96343,190.92408 c 0,0 -1.17504,3.27139 -1.67689,4.93457 -0.57342,1.90037 -1.19444,3.79936 -1.52243,5.75706 -0.29297,1.74915 -0.45269,3.53375 -0.39058,5.30618 0.0459,1.30739 -0.1735,2.80178 0.56128,3.88419 0.57264,0.84372 1.64238,1.38201 2.65206,1.52456 1.26527,0.1786 2.53256,-0.45007 3.72252,-0.91573 1.70096,-0.66562 3.32566,-1.56673 4.79625,-2.65016 1.70952,-1.25945 3.19161,-2.81838 4.59475,-4.41206 1.3887,-1.5773 2.60615,-3.30454 3.7555,-5.06389 1.52429,-2.33321 4.14903,-7.2589 4.14903,-7.2589"
       id="path6070"
       sodipodi:nodetypes="csssssssssc" />
    <path
       style="fill:none;stroke:#000000;stroke-width:1.50085;stroke-linecap:butt;stroke-linejoin:miter;stroke-miterlimit:4;stroke-dasharray:none;stroke-opacity:1"
       d="m 95.076667,196.95319 c 0,0 2.95057,1.05755 4.47279,1.41593 4.344923,1.02285 8.808133,1.4602 13.228843,2.07825 3.35241,0.46868 6.69936,1.05596 10.07959,1.2357 2.99692,0.15939 6.01995,0.19331 9.00231,-0.14168 1.56646,-0.1759 4.62696,-0.97684 4.62696,-0.97684"
       id="path6162"
       sodipodi:nodetypes="cssssc" />
    <path
       style="fill:none;stroke:#000000;stroke-width:1.50085;stroke-linecap:butt;stroke-linejoin:miter;stroke-miterlimit:4;stroke-dasharray:none;stroke-opacity:1"
       d="m 61.026777,115.77272 c 0,0 3.20901,1.59021 4.68408,2.59545 1.87662,1.2789 3.72864,2.6552 5.25265,4.33885 1.33159,1.47104 2.31857,3.22811 3.31654,4.94309 0.82076,1.41044 1.65306,2.83792 2.1868,4.38001 0.62453,1.80438 0.90281,3.71772 1.15685,5.61013 0.24734,1.84175 0.30203,3.70598 0.35384,5.56352 0.0534,1.91952 0.018,3.84135 -0.0444,5.76063 -0.0525,1.64037 -0.0936,3.2849 -0.27766,4.91575 -0.21522,1.9053 -0.9639,5.67089 -0.9639,5.67089"
       id="path6444"
       sodipodi:nodetypes="cssssssssc" />
    <path
       style="fill:none;stroke:#000000;stroke-width:1.50085;stroke-linecap:butt;stroke-linejoin:miter;stroke-miterlimit:4;stroke-dasharray:none;stroke-opacity:1"
       d="m 58.485757,128.36152 c -0.7362,-0.0934 -1.54714,-0.009 -2.19922,0.34579 -0.99524,0.54057 -1.60297,1.6129 -2.26991,2.52829 -0.77555,1.06446 -1.49557,2.19271 -1.98958,3.41356 -0.47646,1.17756 -1.04189,2.43704 -0.9106,3.70054 0.0913,0.87902 0.52779,1.76088 1.14923,2.38926 0.50326,0.50888 1.20974,0.91539 1.92451,0.9521 0.95717,0.0492 1.89499,-0.47534 2.69419,-1.00436 1.08842,-0.72047 1.93192,-1.78244 2.69252,-2.8432 0.79809,-1.11309 1.63994,-2.29239 1.91901,-3.63331 0.24344,-1.16979 0.1672,-2.46262 -0.27075,-3.57435 -0.26055,-0.66146 -0.76738,-1.23382 -1.33236,-1.66531 -0.40616,-0.31023 -0.90009,-0.54466 -1.4071,-0.60901 z"
       id="path6574"
       sodipodi:nodetypes="sssssssssssss" />
  </g>
</svg>
