<?xml version="1.0" encoding="UTF-8" standalone="no"?>
<!-- Created with Inkscape (http://www.inkscape.org/) -->

<svg
   width="210mm"
   height="297mm"
   viewBox="0 0 210 297"
   version="1.1"
   id="svg20249"
   inkscape:version="1.1.2 (0a00cf5339, 2022-02-04)"
   sodipodi:docname="Snail.svg"
   xmlns:inkscape="http://www.inkscape.org/namespaces/inkscape"
   xmlns:sodipodi="http://sodipodi.sourceforge.net/DTD/sodipodi-0.dtd"
   xmlns="http://www.w3.org/2000/svg"
   xmlns:svg="http://www.w3.org/2000/svg">
  <sodipodi:namedview
     id="namedview20251"
     pagecolor="#ffffff"
     bordercolor="#666666"
     borderopacity="1.0"
     inkscape:pageshadow="2"
     inkscape:pageopacity="0.0"
     inkscape:pagecheckerboard="0"
     inkscape:document-units="mm"
     showgrid="false"
     inkscape:zoom="0.77593294"
     inkscape:cx="396.94152"
     inkscape:cy="561.90423"
     inkscape:window-width="2560"
     inkscape:window-height="1372"
     inkscape:window-x="0"
     inkscape:window-y="0"
     inkscape:window-maximized="1"
     inkscape:current-layer="layer1" />
  <defs
     id="defs20246" />
  <g
     inkscape:label="Layer 1"
     inkscape:groupmode="layer"
     id="layer1">
    <path
       style="fill:none;stroke:#000000;stroke-width:1.66023;stroke-linecap:butt;stroke-linejoin:miter;stroke-miterlimit:4;stroke-dasharray:none;stroke-opacity:1"
       d="m 141.51681,92.526516 c -1.11173,-1.36262 -3.26356,-1.22339 -4.6368,-2.3219 -2.10312,-1.68239 -3.0976,-4.21783 -4.25004,-6.65206 -1.2294,-2.59684 -2.06795,-5.4127 -1.92052,-8.28208 0.10958,-2.13326 0.52726,-4.09211 1.59356,-5.94304 1.10771,-1.92275 2.29431,-3.51239 4.15314,-4.72426 1.76752,-1.15233 4.08381,-1.62029 6.19333,-1.66329 2.0475,-0.0418 3.87512,0.48884 5.68292,1.45108 2.14638,1.14244 4.1214,2.69164 5.43922,4.73502 1.20686,1.87128 1.94151,3.83092 2.27306,6.03283 0.3191,2.11998 0.16138,4.33284 -0.31046,6.4242 -0.259,1.14898 -0.8861,2.18301 -1.36096,3.2609 -0.87292,1.98149 -2.33695,3.76365 -2.73464,5.89207 -0.45507,2.4355 0.16868,4.95965 0.48356,7.41719 0.3181,2.482524 0.98943,4.907554 1.41701,7.373604 0.40593,2.34126 0.62853,4.71377 1.08991,7.04474 0.42459,2.14498 0.46898,4.47087 1.54226,6.37596 0.42528,0.75484 0.97781,1.84179 1.84415,1.83167 0.91735,-0.01 1.42335,-1.20497 1.90678,-1.98468 1.82174,-2.93835 2.33259,-6.50915 3.50372,-9.76201 1.23641,-3.43419 2.60893,-6.822 3.71939,-10.298964 0.61575,-1.92796 1.47326,-3.42317 1.2554,-5.43534 -0.13647,-1.26154 -1.07463,-2.55294 -1.4087,-3.7771 -0.61994,-2.27163 -0.40982,-4.70384 -0.32076,-7.05685 0.085,-2.24537 0.47303,-4.51892 1.28535,-6.61394 0.75869,-1.95672 1.67312,-3.74622 3.18044,-5.20646 1.63743,-1.58629 3.57967,-2.93672 5.69454,-3.78812 1.45951,-0.58756 3.08574,-1.04761 4.64503,-0.83786 2.36315,0.31777 4.55818,1.63869 6.45383,3.08505 2.01818,1.53987 3.90988,3.45883 4.98246,5.75968 0.98359,2.10999 1.4027,4.58637 1.10751,6.89555 -0.28589,2.23727 -1.522,4.28443 -2.7191,6.19599 -1.27639,2.03817 -2.88575,3.88887 -4.67777,5.49259 -1.56315,1.39891 -3.54141,2.25801 -5.21284,3.5256 -1.25474,0.95158 -2.63074,1.81653 -3.6041,3.054474 -1.51078,1.92142 -2.23095,4.35037 -3.28743,6.55447 -1.39147,2.90301 -2.69094,5.8493 -4.01773,8.78243 -1.26775,2.80258 -2.54995,5.59907 -3.76753,8.4238 -0.52238,1.21183 -1.47001,2.3377 -1.51759,3.65649 -0.0664,1.83891 1.10837,3.5107 1.74318,5.23784 0.7744,2.10694 1.90199,4.0872 2.51764,6.24587 0.71868,2.51993 0.79432,5.18361 1.34927,7.74459 0.50717,2.34046 1.43136,4.58822 1.80733,6.95329 0.39219,2.46697 0.18695,4.99664 0.45693,7.47995 0.34417,3.16407 1.20055,6.26233 1.4805,9.43275 0.27693,3.13631 0.48608,6.30872 0.19325,9.44361 -0.19989,2.1405 -0.81501,4.2234 -1.32387,6.31211 -0.58228,2.39007 -1.20028,4.77606 -1.97707,7.11018 -0.87063,2.61606 -1.82433,5.21439 -3.00127,7.7077 -1.21742,2.57907 -2.60298,5.08925 -4.1822,7.46408 -1.76502,2.65421 -3.86974,5.0675 -5.88519,7.53693 -1.6874,2.06749 -3.17473,4.34792 -5.19471,6.09186 -1.72378,1.48823 -3.78071,2.55457 -5.78966,3.62715 -2.60242,1.38941 -5.22652,2.85789 -8.07704,3.61791 -2.41574,0.6441 -4.96337,0.69643 -7.46295,0.7488 -2.98148,0.0624 -5.94938,-0.48516 -8.93133,-0.51965 -2.6048,-0.0299 -5.20543,0.23542 -7.81013,0.27327 -2.539,0.0369 -5.08111,-0.16237 -7.61765,-0.0448 -2.60823,0.12087 -5.18405,0.77822 -7.795068,0.77102 -4.43714,-0.0133 -8.830014,-0.88786 -13.239428,-1.38338 -3.197776,-0.35934 -6.393826,-0.73591 -9.584595,-1.1528 -4.248239,-0.55501 -8.546983,-0.85562 -12.727052,-1.79514 -2.807887,-0.63112 -5.424515,-1.98621 -8.242961,-2.56848 -3.184361,-0.65785 -6.475442,-0.61309 -9.700711,-1.02616 -2.929482,-0.37518 -5.824133,-1.01155 -8.761551,-1.31849 -2.324958,-0.24306 -4.905094,0.62312 -7.000707,-0.41267 -1.455361,-0.71931 -2.913743,-2.08701 -3.180476,-3.68837 -0.187607,-1.12587 0.411771,-2.43102 1.27476,-3.17802 2.217574,-1.91956 5.65957,-1.58337 8.551664,-2.07144 3.846031,-0.64905 7.751531,-0.92462 11.646539,-1.12996 3.218628,-0.16967 6.447185,-0.17797 9.668902,-0.0833 1.8581,0.0544 3.745088,-0.01 5.56404,0.37488 1.645756,0.34672 3.079468,1.47432 4.743221,1.72063 2.652057,0.39261 5.368199,-0.12385 8.031081,-0.43455 3.307285,-0.38577 6.566589,-1.11405 9.830941,-1.7705 3.650588,-0.73416 7.349883,-1.31587 10.904843,-2.42398 3.060378,-0.9539 5.950878,-2.38585 8.910678,-3.61688 2.68512,-1.11681 5.641,-1.75587 8.02643,-3.41929 2.58521,-1.80275 4.42163,-4.49837 6.48397,-6.8816 2.20685,-2.55018 4.50777,-5.06132 6.29096,-7.9238 1.368,-2.19595 2.50466,-4.55916 3.3286,-7.01166 1.10997,-3.30387 1.55445,-6.79935 2.12856,-10.23707 0.60831,-3.64252 0.89237,-7.33212 1.39167,-10.99118 0.40237,-2.94877 0.74637,-5.90873 1.29269,-8.83426 0.55688,-2.98212 1.1697,-5.962 2.02107,-8.87375 0.95274,-3.25851 2.37543,-6.36245 3.44425,-9.58477 1.01052,-3.04656 2.27715,-6.04564 2.8049,-9.21173 0.57986,-3.47859 0.36921,-7.04677 0.36784,-10.57337 -0.001,-2.84341 0.003,-5.69795 -0.30315,-8.52483 -0.20554,-1.89738 -0.84513,-3.885554 -1.11459,-5.745944 -0.23176,-1.60103 -0.0133,-3.10743 -1.05195,-4.37996 z"
       id="path8936"
       sodipodi:nodetypes="sssssssssssssssssssssssssssssssssssssssssssssssssssssssssssssssssssssssssssssssssssssssssss" />
    <path
       style="fill:none;stroke:#000000;stroke-width:1.66023;stroke-linecap:butt;stroke-linejoin:miter;stroke-miterlimit:4;stroke-dasharray:none;stroke-opacity:1"
       d="m 96.150662,149.70653 c 0,0 1.44291,3.78075 1.79577,5.76104 0.38159,2.1415 0.61412,4.36087 0.32939,6.51741 -0.18827,1.42564 -0.66489,2.82864 -1.32848,4.1044 -0.5082,0.97705 -0.96951,2.22262 -1.98959,2.63771 -0.84181,0.34254 -1.93308,0.0833 -2.69516,-0.4119 -1.771668,-1.15121 -2.602184,-3.38847 -3.420546,-5.33639 -0.995675,-2.36995 -1.419998,-4.96413 -1.723887,-7.51671 -0.332047,-2.78889 -0.271282,-5.62198 -0.09729,-8.42515 0.151414,-2.43796 -0.08633,-5.06823 0.990595,-7.2607 0.974425,-1.98388 2.690077,-3.70691 4.651678,-4.72546 1.90379,-0.98854 4.22167,-1.3342 6.3485,-1.05438 1.676038,0.22048 3.334838,0.99581 4.617808,2.09664 1.7115,1.46854 2.73998,3.62343 3.70039,5.66389 1.13912,2.42012 1.87228,5.03715 2.38015,7.6633 0.59705,3.08734 0.72851,6.25839 0.76251,9.40274 0.0299,2.6673 -0.12651,5.34366 -0.47417,7.98834 -0.33287,2.53136 -0.77991,5.06544 -1.5384,7.50333 -0.79266,2.54776 -1.76148,5.0759 -3.12479,7.36951 -1.00823,1.69623 -2.2459,3.28238 -3.6832,4.63438 -1.809818,1.7024 -3.833808,3.27172 -6.107998,4.27254 -1.80836,0.79582 -3.8113,1.35303 -5.785912,1.28635 -1.919794,-0.0648 -3.797585,-0.79362 -5.528146,-1.62733 -3.131599,-1.50865 -5.945761,-3.67157 -8.537851,-5.9876 -2.312871,-2.06655 -4.496577,-4.35525 -6.163186,-6.97108 -1.756726,-2.75729 -3.06064,-5.83712 -3.914797,-8.99292 -1.154062,-4.26382 -1.349305,-8.74728 -1.561218,-13.15945 -0.171004,-3.56163 -0.05346,-7.14066 0.236418,-10.69459 0.313784,-3.84494 0.920068,-7.66563 1.623177,-11.4587 0.626971,-3.38246 0.939559,-6.90332 2.311045,-10.0582 0.999328,-2.29882 2.564264,-4.34034 4.210552,-6.23059 1.766123,-2.02787 3.651949,-4.08254 6.000648,-5.39217 2.705152,-1.50839 5.953465,-1.71223 8.916285,-2.61483 2.34415,-0.71414 4.566835,-2.0223 7.009705,-2.21579 3.22431,-0.25534 6.457178,0.65523 9.597008,1.43166 2.93985,0.72698 5.9463,1.49816 8.57491,3.00203 2.53325,1.44932 4.69006,3.52474 6.68218,5.65768 1.9853,2.12563 3.49143,4.6538 5.17109,7.02837 1.76968,2.50184 3.60523,4.96732 5.16791,7.6034 1.19384,2.0139 2.50642,4.01584 3.20123,6.25151 0.85871,2.76303 0.81823,5.73003 1.11989,8.60765 0.26332,2.51313 0.60214,7.55672 0.60214,7.55672"
       id="path10016"
       sodipodi:nodetypes="cssssssssssssssssssssssssssssssssssssssssc" />
    <path
       style="fill:none;stroke:#000000;stroke-width:1.66023;stroke-linecap:butt;stroke-linejoin:miter;stroke-miterlimit:4;stroke-dasharray:none;stroke-opacity:1"
       d="m 62.348736,210.92996 c 0,0 -5.273932,-2.78975 -7.638802,-4.58649 -2.975437,-2.26061 -5.735542,-4.84845 -8.135642,-7.71255 -2.330304,-2.78079 -4.412868,-5.82021 -5.99102,-9.08709 -2.053045,-4.24997 -3.092484,-8.92286 -4.415889,-13.4534 -1.251418,-4.2841 -2.65468,-8.55708 -3.328802,-12.96902 -0.84725,-5.54495 -0.900975,-11.19595 -0.874544,-16.80518 0.02324,-4.92757 0.291869,-9.86597 0.907384,-14.755 0.580085,-4.60694 1.505964,-9.17358 2.618454,-13.68168 1.286946,-5.21506 2.393658,-10.55969 4.681892,-15.41942 2.058723,-4.372264 4.877168,-8.404734 8.009896,-12.084514 2.793211,-3.28099 6.001313,-6.25045 9.497101,-8.76965 3.136779,-2.26051 6.541055,-4.23602 10.160962,-5.59449 4.252887,-1.59602 8.802724,-2.37669 13.314542,-2.90392 4.681527,-0.54704 9.467084,-0.88557 14.137854,-0.25335 4.03656,0.54638 7.795488,2.36899 11.720248,3.4592 4.03364,1.12046 8.21092,1.75842 12.15328,3.16673 3.46115,1.23641 6.8979,2.66434 10.01642,4.6094 2.68831,1.67674 7.36655,6.00666 7.36655,6.00666"
       id="path10108"
       sodipodi:nodetypes="csssssssssssssssssc" />
    <path
       style="fill:none;stroke:#000000;stroke-width:1.66023;stroke-linecap:butt;stroke-linejoin:miter;stroke-miterlimit:4;stroke-dasharray:none;stroke-opacity:1"
       d="m 142.6892,159.66139 c 0,0 2.84863,3.60977 4.73103,4.86338 1.41907,0.94508 3.0623,1.69892 4.7579,1.87746 1.75812,0.18495 3.60088,-0.19126 5.23057,-0.8764 1.60714,-0.67562 4.22639,-3.08093 4.22639,-3.08093"
       id="path10200"
       sodipodi:nodetypes="csssc" />
    <path
       style="fill:none;stroke:#000000;stroke-width:1.66023;stroke-linecap:butt;stroke-linejoin:miter;stroke-miterlimit:4;stroke-dasharray:none;stroke-opacity:1"
       d="m 143.26015,71.953436 c -0.87358,-0.01 -1.80135,0.3769 -2.42889,0.98471 -0.9024,0.87408 -1.44765,2.19204 -1.52675,3.44588 -0.1016,1.61239 0.53955,3.26983 1.39091,4.64291 0.5177,0.83494 1.22512,1.68952 2.15279,2.01284 0.75249,0.26232 1.73375,0.26896 2.38277,-0.19358 0.98505,-0.70182 1.11422,-2.16292 1.45898,-3.32223 0.35496,-1.19348 0.55781,-2.40273 0.33534,-3.62784 -0.19558,-1.0773 -0.54951,-2.17312 -1.36664,-2.90189 -0.65045,-0.58009 -1.52705,-1.03025 -2.39851,-1.0408 z"
       id="path10368"
       sodipodi:nodetypes="ssssssssss" />
    <path
       style="fill:none;stroke:#000000;stroke-width:1.66023;stroke-linecap:butt;stroke-linejoin:miter;stroke-miterlimit:4;stroke-dasharray:none;stroke-opacity:1"
       d="m 179.26248,77.903306 c -0.68591,0.47666 -1.39602,0.97851 -1.87403,1.66349 -0.47121,0.67525 -0.70975,1.49903 -0.90181,2.29972 -0.2165,0.90247 -0.46354,1.86342 -0.26995,2.77107 0.20653,0.96841 0.61202,2.08615 1.46924,2.58183 0.78452,0.45364 1.89362,0.3616 2.71873,-0.0133 0.8609,-0.39115 1.37039,-1.32871 1.87639,-2.12749 0.58882,-0.92949 0.97586,-1.98202 1.30545,-3.03178 0.24538,-0.78117 0.506,-1.58775 0.49249,-2.40641 -0.0133,-0.80309 -0.0199,-1.75058 -0.56086,-2.34345 -0.45262,-0.49522 -1.23884,-0.69707 -1.90748,-0.64215 -0.88351,0.0727 -1.62019,0.74259 -2.34817,1.24846 z"
       id="path10460"
       sodipodi:nodetypes="ssssssssssss" />
  </g>
</svg>
