<?xml version="1.0" encoding="UTF-8" standalone="no"?>
<!-- Created with Inkscape (http://www.inkscape.org/) -->

<svg
   width="210mm"
   height="297mm"
   viewBox="0 0 210 297"
   version="1.1"
   id="svg19402"
   inkscape:version="1.1.2 (0a00cf5339, 2022-02-04)"
   sodipodi:docname="Spidy.svg"
   xmlns:inkscape="http://www.inkscape.org/namespaces/inkscape"
   xmlns:sodipodi="http://sodipodi.sourceforge.net/DTD/sodipodi-0.dtd"
   xmlns="http://www.w3.org/2000/svg"
   xmlns:svg="http://www.w3.org/2000/svg">
  <sodipodi:namedview
     id="namedview19404"
     pagecolor="#ffffff"
     bordercolor="#666666"
     borderopacity="1.0"
     inkscape:pageshadow="2"
     inkscape:pageopacity="0.0"
     inkscape:pagecheckerboard="0"
     inkscape:document-units="mm"
     showgrid="false"
     inkscape:zoom="0.54866744"
     inkscape:cx="417.37486"
     inkscape:cy="645.19957"
     inkscape:window-width="2560"
     inkscape:window-height="1372"
     inkscape:window-x="0"
     inkscape:window-y="0"
     inkscape:window-maximized="1"
     inkscape:current-layer="layer1" />
  <defs
     id="defs19399" />
  <g
     inkscape:label="Layer 1"
     inkscape:groupmode="layer"
     id="layer1">
    <path
       style="fill:none;stroke:#000000;stroke-width:1.22674;stroke-linecap:butt;stroke-linejoin:miter;stroke-miterlimit:4;stroke-dasharray:none;stroke-opacity:1"
       d="m 86.357001,116.86291 c 0,0 -3.55438,3.77181 -5.09804,5.84598 -1.59967,2.14944 -2.85497,4.53489 -4.28626,6.79994 -1.06283,1.68194 -2.38651,3.22392 -3.19409,5.04224 -0.77224,1.73872 -1.15437,3.6336 -1.52936,5.49877 -0.40975,2.03805 -0.80167,4.10867 -0.78092,6.1874 0.0172,1.78261 0.11752,3.63471 0.77547,5.2916 0.70914,1.78604 1.97035,3.34087 3.30448,4.72395 1.66111,1.7221 3.74615,2.98562 5.72972,4.32365 1.85292,1.24991 3.68091,2.60364 5.74954,3.44997 2.67089,1.09273 5.5766,1.51559 8.41682,2.02631 3.21085,0.57733 6.469099,0.86232 9.717149,1.16744 1.80051,0.16904 3.60441,0.36743 5.41285,0.36733 2.81,-1.7e-4 5.60282,-0.46017 8.41061,-0.57171 1.72551,-0.0685 3.45417,-0.007 5.18026,-0.0596 1.90877,-0.0569 3.83568,0.0196 5.72224,-0.27506 1.76747,-0.27717 3.62853,-0.50929 5.18249,-1.39581 1.71511,-0.97842 3.12206,-2.51008 4.23715,-4.13966 1.21197,-1.7712 1.87242,-3.8781 2.52595,-5.92232 0.63438,-1.98427 1.33767,-6.10476 1.33767,-6.10476 l -0.0729,-4.81778 -1.51063,-6.67899 c 0,0 -1.7015,-4.63199 -2.62163,-6.92089 -0.87093,-2.16649 -1.75284,-4.33095 -2.74309,-6.44556 -1.00698,-2.15035 -3.24863,-6.33944 -3.24863,-6.33944"
       id="path997"
       sodipodi:nodetypes="csssssssssssssssssscccssc" />
    <path
       style="fill:none;stroke:#000000;stroke-width:1.22674;stroke-linecap:butt;stroke-linejoin:miter;stroke-miterlimit:4;stroke-dasharray:none;stroke-opacity:1"
       d="m 109.6081,120.91578 c -0.67426,-1.99094 -0.53635,-4.18259 -0.52041,-6.28454 0.0147,-2.01011 0.25605,-4.01925 0.58879,-6.00169 0.38562,-2.29745 1.05206,-4.53919 1.62593,-6.79699 0.48647,-1.913973 0.84485,-3.872417 1.54022,-5.720764 0.64271,-1.708365 1.25949,-3.501415 2.41462,-4.914664 0.75528,-0.924045 1.79776,-1.596373 2.835,-2.186657 1.29804,-0.738707 2.68063,-1.484446 4.16464,-1.652635 1.52585,-0.172921 3.1346,0.111045 4.55367,0.69783 1.55997,0.645035 2.97261,1.723072 4.08573,2.992151 1.34437,1.53272 2.18002,3.471576 2.93952,5.363577 0.6423,1.600037 1.09509,3.289136 1.34039,4.995742 0.25035,1.74184 0.26888,3.52406 0.12341,5.27777 -0.16635,2.00705 -0.65449,3.97844 -1.13447,5.93434 -0.55345,2.25536 -1.1036,4.53226 -2.00815,6.67112 -0.50858,1.2026 -1.15677,2.35263 -1.90476,3.42287 -0.83482,1.19448 -1.6867,2.44076 -2.85689,3.30931 -1.0968,0.81407 -2.43137,1.28801 -3.74426,1.66482 -1.2774,0.36662 -2.62096,0.63795 -3.94755,0.55874 -1.2886,-0.0769 -2.56907,-0.45739 -3.7426,-0.99515 -1.49552,-0.68532 -2.92838,-1.60457 -4.07462,-2.78457 -0.97982,-1.00867 -1.82713,-2.2187 -2.27821,-3.55061 z"
       id="path1317"
       sodipodi:nodetypes="ssssssssssssssssssssss" />
    <path
       style="fill:none;stroke:#000000;stroke-width:1.22674;stroke-linecap:butt;stroke-linejoin:miter;stroke-miterlimit:4;stroke-dasharray:none;stroke-opacity:1"
       d="m 111.4677,99.220605 c 0,0 -1.19701,-1.886235 -1.93786,-2.715535 -1.14961,-1.286852 -2.50982,-2.373583 -3.84945,-3.461232 -1.1351,-0.921593 -2.27874,-1.85058 -3.54025,-2.589743 -0.9957,-0.583416 -2.06262,-1.049502 -3.149169,-1.438401 -1.03731,-0.371279 -2.09552,-0.77654 -3.19505,-0.846447 -1.60448,-0.102016 -3.27155,0.08192 -4.78122,0.634765 -1.2263,0.449078 -2.41222,1.155097 -3.29827,2.114473 -1.04987,1.136736 -1.61007,2.658826 -2.18745,4.094455 -0.54377,1.352095 -0.98238,2.765422 -1.18337,4.208841 -0.21443,1.539799 -0.0915,3.111299 -0.0123,4.663939 0.0743,1.45825 0.2002,2.91915 0.45701,4.35654 0.26549,1.48607 0.67775,2.94457 1.11633,4.38905 0.44379,1.46158 0.80011,2.97773 1.53036,4.31933 0.58518,1.07507 1.37709,2.04182 2.24106,2.90887 1.02514,1.02881 2.21059,1.9015 3.44207,2.67145 1.17441,0.73427 2.42613,1.36218 3.72785,1.83541 1.31013,0.4763 2.67326,0.87602 4.062329,0.9936 1.04263,0.0883 2.12756,0.0734 3.13116,-0.22265 0.9679,-0.28555 1.8379,-0.86353 2.6528,-1.45879 1.08059,-0.78933 2.91265,-2.76276 2.91265,-2.76276"
       id="path1447"
       sodipodi:nodetypes="csssssssssssssssssssc" />
    <path
       style="fill:none;stroke:#000000;stroke-width:1.22674;stroke-linecap:butt;stroke-linejoin:miter;stroke-miterlimit:4;stroke-dasharray:none;stroke-opacity:1"
       d="m 96.359001,100.88265 c -0.66244,0.17496 -1.4192,0.29348 -1.90177,0.77985 -0.58719,0.59181 -0.76571,1.50424 -0.93073,2.32144 -0.21812,1.08019 -0.15457,2.20785 -0.0569,3.30551 0.0974,1.09508 0.22057,2.21886 0.63803,3.23591 0.34847,0.84894 0.93593,1.58735 1.51868,2.29624 0.47036,0.57215 0.89606,1.27974 1.5812,1.56112 0.55367,0.2274 1.79565,6.5e-4 1.79565,6.5e-4 0,0 1.287419,-0.76723 1.721609,-1.35425 0.62932,-0.85084 0.88529,-1.93511 1.14637,-2.9607 0.27052,-1.06271 0.49153,-2.16793 0.42357,-3.26243 -0.0721,-1.16256 -0.3705,-2.33325 -0.87519,-3.38304 -0.35629,-0.74111 -0.82689,-1.47366 -1.479349,-1.97413 -0.5523,-0.42366 -1.24806,-0.68841 -1.93855,-0.77645 -0.54756,-0.0698 -1.1089,0.0693 -1.6426,0.21027 z"
       id="path1501"
       sodipodi:nodetypes="ssssssscsssssss" />
    <path
       style="fill:none;stroke:#000000;stroke-width:1.22674;stroke-linecap:butt;stroke-linejoin:miter;stroke-miterlimit:4;stroke-dasharray:none;stroke-opacity:1"
       d="m 118.41228,106.80497 c 0.45743,-0.82036 0.68585,-1.77453 1.25042,-2.5252 0.44163,-0.58722 0.9638,-1.17034 1.62644,-1.48779 0.75525,-0.36182 1.65522,-0.50792 2.48312,-0.38194 0.62235,0.0947 1.23987,0.39617 1.69671,0.82928 0.50892,0.4825 0.8515,1.15833 1.0232,1.83827 0.22915,0.90767 0.15113,1.89122 -0.037,2.80826 -0.18794,0.91564 -0.65385,1.7551 -1.0707,2.59174 -0.37028,0.74321 -0.7663,1.48204 -1.26509,2.14588 -0.47345,0.63012 -0.95622,1.29867 -1.62215,1.72028 -0.55068,0.34865 -1.21599,0.50153 -1.85964,0.60409 -0.54207,0.0864 -1.1261,0.17702 -1.64675,0.003 -0.7134,-0.23818 -1.36321,-0.74761 -1.80113,-1.35909 -0.46447,-0.64856 -0.75143,-1.475 -0.74968,-2.27273 0.002,-1.02534 0.53939,-1.9894 0.97638,-2.91697 0.26741,-0.56761 0.69037,-1.04926 0.99592,-1.59727 z"
       id="path1631"
       sodipodi:nodetypes="ssssssssssssssss" />
    <path
       style="fill:none;stroke:#000000;stroke-width:1.22674;stroke-linecap:butt;stroke-linejoin:miter;stroke-miterlimit:4;stroke-dasharray:none;stroke-opacity:1"
       d="m 91.030791,144.2389 c 0,0 2.09905,1.42712 3.23431,1.9851 1.89418,0.93099 3.91181,1.59632 5.918879,2.24931 1.74136,0.56654 3.4862,1.19558 5.30053,1.4437 1.39721,0.19108 2.8242,0.12884 4.23059,0.025 1.63927,-0.12103 3.27663,-0.3628 4.87338,-0.753 1.54263,-0.37697 3.04539,-0.91954 4.51306,-1.52594 1.61397,-0.66683 4.69999,-2.31433 4.69999,-2.31433"
       id="path1837"
       sodipodi:nodetypes="cssssssc" />
    <path
       style="fill:none;stroke:#000000;stroke-width:1.22674;stroke-linecap:butt;stroke-linejoin:miter;stroke-miterlimit:4;stroke-dasharray:none;stroke-opacity:1"
       d="m 72.418471,138.627 c 0,0 -5.9551,-7.03439 -9.13746,-10.36352 -2.12759,-2.22571 -4.15947,-4.59937 -6.64632,-6.41487 -0.90982,-0.66421 -1.89087,-1.2992 -2.9762,-1.60098 -2.40078,-0.66754 -4.97586,-0.29312 -7.46668,-0.3652 -2.11405,-0.0612 -4.24257,-0.29065 -6.34454,-0.057 -1.0669,0.1186 -2.07108,0.59487 -3.135305,0.73542 -1.088538,0.14375 -2.194372,0.0927 -3.292281,0.10608 -1.559655,0.0191 -3.127284,0.12013 -4.679161,-0.0365 -2.001307,-0.20197 -4.062479,-0.39249 -5.921925,-1.15956 -0.848463,-0.35 -1.908466,-0.69486 -2.289247,-1.52995 -0.154815,-0.33927 -0.129544,-0.85282 0.140585,-1.10977 1.260869,-1.19901 3.474868,-0.20921 5.204893,-0.39482 1.877553,-0.20143 3.745488,-0.48747 5.611093,-0.77945 1.215774,-0.19027 2.4104,-0.53382 3.636921,-0.63353 1.925543,-0.15656 3.863627,0.0803 5.795427,0.0592 1.55842,-0.0172 3.11732,-0.0582 4.67312,-0.15013 2.25254,-0.13308 4.49017,-0.48157 6.74446,-0.58085 1.74467,-0.0768 3.54555,-0.43744 5.23904,-0.011 0.91022,0.22919 1.71433,0.792 2.47728,1.3387 1.60598,1.15076 2.86064,2.72746 4.34466,4.03173 2.29575,2.01767 4.70585,3.90142 7.04834,5.86462 1.74136,1.4594 5.20853,4.39669 5.20853,4.39669"
       id="path1891"
       sodipodi:nodetypes="csssssssssssssssssssssc" />
    <path
       style="fill:none;stroke:#000000;stroke-width:1.22674;stroke-linecap:butt;stroke-linejoin:miter;stroke-miterlimit:4;stroke-dasharray:none;stroke-opacity:1"
       d="m 71.307781,148.2037 c 0,0 -6.29689,-2.695 -9.45575,-3.89753 -3.31174,-1.26073 -6.68001,-2.37184 -10.05808,-3.44221 -2.67756,-0.84842 -5.79707,-2.13197 -8.60454,-2.21665 -1.46159,-0.0441 -2.34732,0.45796 -3.76176,0.82891 -2.734896,0.71726 -5.416039,1.62588 -8.129641,2.41986 -2.378971,0.69607 -4.757623,1.39391 -7.14658,2.05492 -1.276082,0.35309 -2.543919,0.80899 -3.792742,1.24888 -1.497779,0.52757 -2.870552,1.27911 -4.400839,1.70328 -1.374588,0.38102 -2.837527,0.7473 -4.246759,0.52652 -0.646149,-0.10123 -1.477929,-0.24533 -1.7800761,-0.82538 -0.26343,-0.50576 -0.201185,-1.41193 0.2998651,-1.68428 2.620664,-1.4244 5.393444,-2.45293 8.072255,-3.71779 2.081561,-0.98285 4.180295,-1.93387 6.216294,-3.00795 2.274085,-1.19969 4.472553,-2.5378 6.693005,-3.83407 1.800391,-1.05105 3.45924,-2.3755 5.375165,-3.19731 0.683688,-0.29327 1.406363,-0.55437 2.148683,-0.60346 1.59303,-0.10535 3.178,0.35353 4.74148,0.67649 3.8373,0.79265 7.56876,2.03203 11.34253,3.08643 2.71365,0.7582 5.41197,1.57055 8.12535,2.3297 3.05292,0.85414 9.175,2.50351 9.175,2.50351"
       id="path1945"
       sodipodi:nodetypes="csssssssssssssssssssc" />
    <path
       style="fill:none;stroke:#000000;stroke-width:1.22674;stroke-linecap:butt;stroke-linejoin:miter;stroke-miterlimit:4;stroke-dasharray:none;stroke-opacity:1"
       d="m 74.891161,155.68358 c 0,0 -3.2399,0.12243 -4.86069,0.14697 -2.32909,0.0351 -4.65873,0.0123 -6.98804,0 -1.78689,-0.01 -3.58132,-0.21861 -5.36049,-0.0525 -1.13199,0.10575 -2.24933,0.36233 -3.34545,0.66418 -0.66251,0.18254 -1.36897,0.31182 -1.94255,0.69029 -0.37918,0.25021 -0.69126,0.61148 -0.92471,1.00124 -1.23614,2.06385 -1.70321,4.50588 -2.36325,6.81927 -0.72503,2.54117 -1.2102,5.14534 -1.74744,7.73274 -0.37232,1.79315 -0.58084,3.62085 -1.02252,5.39815 -0.373,1.501 -0.78207,3.00263 -1.37093,4.43279 -0.33326,0.80933 -0.53162,1.7812 -1.21543,2.32754 -0.42929,0.343 -1.04801,0.48699 -1.59359,0.42171 -0.70498,-0.0844 -1.51929,-0.39936 -1.87247,-1.0153 -0.53035,-0.92494 -0.01,-2.13687 0.10452,-3.19689 0.26726,-2.47159 0.95602,-4.8801 1.35538,-7.33383 0.38573,-2.37012 0.56069,-4.7736 1.00477,-7.13346 0.24709,-1.31303 0.68479,-2.5859 0.92187,-3.90077 0.30136,-1.67148 0.42092,-3.37067 0.63374,-5.05569 0.14304,-1.13194 0.0726,-2.31258 0.43201,-3.3954 0.26041,-0.78445 0.63353,-1.57637 1.22014,-2.15866 0.59708,-0.59268 1.40636,-0.84328 2.21005,-1.09198 2.59443,-0.80282 5.40919,-0.59109 8.10837,-0.89132 2.91587,-0.32433 5.81753,-0.76606 8.72908,-1.12716 2.12351,-0.26336 6.37447,-0.75806 6.37447,-0.75806"
       id="path2341"
       sodipodi:nodetypes="csssssssssssssssssssssssc" />
    <path
       style="fill:none;stroke:#000000;stroke-width:1.22674;stroke-linecap:butt;stroke-linejoin:miter;stroke-miterlimit:4;stroke-dasharray:none;stroke-opacity:1"
       d="m 139.8531,133.08561 c 0,0 2.5188,-1.9854 3.85313,-2.87165 1.84808,-1.22749 3.87186,-2.17311 5.73553,-3.37677 2.235,-1.44348 4.37289,-3.03302 6.52023,-4.60392 1.64359,-1.20236 3.22528,-2.48784 4.8695,-3.68933 1.43262,-1.04684 2.85733,-2.10879 4.35155,-3.06564 0.80926,-0.51823 1.57077,-1.17951 2.49406,-1.446 0.85212,-0.24595 1.77861,-0.20513 2.65894,-0.0973 1.04926,0.12856 2.05789,0.50583 3.04745,0.8776 2.15296,0.80885 4.18226,1.9161 6.24726,2.92861 1.23665,0.60636 2.40026,1.36848 3.67757,1.88375 1.36885,0.5522 2.81238,0.90131 4.23871,1.28107 1.07078,0.28508 2.19683,0.37145 3.23902,0.74785 0.75415,0.27237 2.14874,1.08138 2.14874,1.08138 l 0.68447,1.47185 -0.85676,2.52175 c 0,0 -1.93374,0.69385 -2.94531,0.75071 -0.99785,0.0561 -1.99529,-0.18978 -2.97009,-0.41028 -2.67366,-0.60476 -5.20298,-1.73288 -7.8375,-2.49015 -1.59648,-0.4589 -3.17783,-1.03446 -4.82576,-1.24334 -1.14649,-0.14532 -2.33515,-0.23349 -3.46697,0 -1.28376,0.26484 -2.46288,0.92441 -3.61135,1.55623 -1.7646,0.9708 -3.35929,2.22483 -4.99002,3.40679 -1.39657,1.01223 -2.6727,2.1888 -4.10257,3.15342 -1.46927,0.99118 -3.07932,1.75753 -4.58316,2.69545 -1.44002,0.89811 -2.86719,1.81975 -4.2485,2.80577 -1.15949,0.82768 -2.27347,1.71796 -3.38612,2.60761 -0.61813,0.49424 -1.5034,0.79408 -1.82704,1.51631 -0.066,0.14711 -0.14107,0.45257 0.0172,0.4833 1.49537,0.29023 3.94898,-0.58702 5.93173,-0.58252 2.36631,0.005 4.73042,-0.14483 7.09594,-0.20632 2.09175,-0.0544 4.18886,0.01 6.2757,-0.14375 2.15339,-0.15817 4.28108,-0.57014 6.42805,-0.79955 1.92949,-0.20617 3.8637,-0.36778 5.79832,-0.5183 1.6732,-0.13018 3.35761,-0.5338 5.0238,-0.33276 1.18982,0.14356 2.34175,0.5778 3.42798,1.0841 1.81737,0.84707 3.40696,2.11638 5.07709,3.22586 1.48122,0.98398 2.94571,1.99419 4.38269,3.0417 1.12259,0.81832 2.16799,1.74127 3.30989,2.53242 1.05429,0.73045 2.21648,1.29779 3.26274,2.03968 0.69063,0.48972 1.60154,0.83117 1.98311,1.58695 0.45575,0.90272 0.32081,2.04055 0.11874,3.03141 -0.13077,0.64117 -0.42116,1.27112 -0.83884,1.77485 -0.38368,0.46272 -0.87057,0.9386 -1.45946,1.05909 -1.12477,0.23014 -2.29928,-0.32163 -3.3581,-0.76546 -2.54954,-1.06876 -4.63768,-3.01078 -6.98328,-4.4738 -2.12118,-1.32304 -4.25091,-2.63354 -6.41108,-3.89192 -1.5347,-0.89402 -2.93723,-2.13525 -4.65197,-2.5982 -1.04531,-0.28221 -2.16864,-0.14787 -3.24768,-0.0586 -1.61574,0.13374 -3.18511,0.60833 -4.78243,0.88608 -2.61541,0.45477 -5.2402,0.8538 -7.86081,1.27764 -2.22509,0.35986 -4.46095,0.65785 -6.67613,1.07438 -1.51304,0.2845 -6.24892,1.2416 -6.24892,1.2416"
       id="path2775"
       sodipodi:nodetypes="csssssssssssscccssssssssssssssssssssssssssssssssssssc" />
    <path
       style="fill:none;stroke:#000000;stroke-width:1.22674;stroke-linecap:butt;stroke-linejoin:miter;stroke-miterlimit:4;stroke-dasharray:none;stroke-opacity:1"
       d="m 141.13102,157.57068 c 0,0 3.01175,-0.21124 4.51733,-0.15457 1.6303,0.0613 3.24697,0.32612 4.86499,0.53498 1.98988,0.25688 3.97447,0.55613 5.95404,0.88304 1.38379,0.22842 2.9432,0.0221 4.13952,0.75368 0.69954,0.42806 1.21168,1.18476 1.49407,1.95472 0.66617,1.81621 0.32227,3.8619 0.29288,5.79623 -0.0263,1.72104 -0.34756,3.427 -0.41715,5.14684 -0.0547,1.35001 -0.0478,2.70308 0,4.05333 0.0501,1.41237 -0.01,2.85056 0.30053,4.22912 0.16733,0.74159 0.40134,1.49692 0.83146,2.12381 0.29077,0.42379 0.63798,0.91932 1.13732,1.04111 0.50946,0.12415 1.05769,-0.15972 1.51914,-0.40873 0.68391,-0.36915 1.37999,-0.862 1.74193,-1.54976 0.77218,-1.46731 0.51805,-3.28046 0.621,-4.93536 0.11065,-1.7801 -0.13838,-3.57207 -0.005,-5.35063 0.15604,-2.08058 0.64284,-4.12313 0.93915,-6.1884 0.24093,-1.67918 0.58113,-3.34986 0.68187,-5.04325 0.078,-1.31198 0.17125,-2.64888 -0.0613,-3.94241 -0.0994,-0.55311 -0.23161,-1.13532 -0.56283,-1.58924 -0.36927,-0.5059 -0.93767,-0.8529 -1.49569,-1.13733 -0.91115,-0.46442 -1.93801,-0.66901 -2.93761,-0.8851 -3.12257,-0.67501 -6.32468,-0.91417 -9.49925,-1.27233 -4.03723,-0.45548 -12.1375,-1.11424 -12.1375,-1.11424"
       id="path2981"
       sodipodi:nodetypes="cssssssssssssssssssssssc" />
  </g>
</svg>
