<?xml version="1.0" encoding="UTF-8" standalone="no"?>
<!-- Created with Inkscape (http://www.inkscape.org/) -->

<svg
   width="210mm"
   height="297mm"
   viewBox="0 0 210 297"
   version="1.1"
   id="svg5"
   inkscape:version="1.1.2 (0a00cf5339, 2022-02-04)"
   sodipodi:docname="spiral.svg"
   xmlns:inkscape="http://www.inkscape.org/namespaces/inkscape"
   xmlns:sodipodi="http://sodipodi.sourceforge.net/DTD/sodipodi-0.dtd"
   xmlns="http://www.w3.org/2000/svg"
   xmlns:svg="http://www.w3.org/2000/svg">
  <sodipodi:namedview
     id="namedview7"
     pagecolor="#ffffff"
     bordercolor="#666666"
     borderopacity="1.0"
     inkscape:pageshadow="2"
     inkscape:pageopacity="0.0"
     inkscape:pagecheckerboard="0"
     inkscape:document-units="mm"
     showgrid="false"
     inkscape:zoom="0.90583672"
     inkscape:cx="396.87064"
     inkscape:cy="561.35945"
     inkscape:window-width="2560"
     inkscape:window-height="1376"
     inkscape:window-x="0"
     inkscape:window-y="27"
     inkscape:window-maximized="1"
     inkscape:current-layer="layer1" />
  <defs
     id="defs2" />
  <g
     inkscape:label="Layer 1"
     inkscape:groupmode="layer"
     id="layer1">
    <path
       style="fill:none;fill-rule:evenodd;stroke:#000000;stroke-width:0.264583px;stroke-linecap:butt;stroke-linejoin:miter;stroke-opacity:1"
       d="m 95.193513,112.73419 c -1.486939,2.00059 2.492242,6.18423 4.922377,5.62943 2.20411,-0.5032 2.3958,-4.35487 1.80636,-6.5375 -0.93132,-3.44856 -4.095554,-7.37513 -7.665862,-7.48823 -4.171428,-0.13215 -8.804148,4.04817 -9.492335,8.16456 -0.911491,5.45209 2.992626,13.04012 8.371301,14.31523 7.412446,1.75726 17.956956,-4.92819 19.164976,-12.4497 1.44878,-9.02052 -8.13737,-19.898824 -17.153061,-21.377351 -11.072947,-1.815906 -26.078047,7.162751 -28.349609,18.151271 -2.610605,12.62862 9.003853,29.4916 21.639305,32.06892 17.617285,3.5935 41.663795,-11.71005 45.272875,-29.32415 C 137.31681,96.282904 121.38404,71.956359 103.63555,69.146729 76.996263,64.929663 42.4456,92.216606 39.962325,119.07305 37.562846,145.02324 65.673511,175.11663 91.598154,177.778 125.93816,181.30327 171.27258,149.91684 174.3679,115.53542 177.74979,77.970871 135.21993,34.03015 97.535668,32.471582 55.114023,30.717082 6.431549,76.151537 3.6186975,118.51617 0.75688939,161.61814 44.750959,207.85222 86.75757,217.9227 c 38.4884,9.22704 99.01451,-8.39357 109.19263,-46.64146 1.76269,-6.62393 -5.59165,-15.56911 -12.39456,-16.40811 -15.03576,-1.85436 -21.83474,21.7468 -35.3847,28.5226 -16.02493,8.01344 -34.67755,17.45136 -52.093391,13.24397 C 65.18874,189.17746 28.100459,165.14496 24.597973,133.56116 20.886752,100.09509 50.596797,57.020999 83.853384,51.753108 110.76028,47.491018 146.57954,72.846222 149.90364,99.885022 153.12245,126.06737 125.40708,158.17377 99.13908,160.59617 80.589178,162.30682 58.422591,143.47986 56.054148,125.00242 53.748191,107.01247 69.972599,83.600663 87.905737,80.888051 c 14.315123,-2.165343 33.513583,11.690071 34.702973,26.119099 1.0404,12.62147 -13.54091,27.40237 -26.204739,27.50941 -9.471666,0.0801 -19.93695,-10.76889 -19.944328,-20.24089 -0.0061,-7.76658 8.563474,-16.422823 16.327503,-16.622003 6.325638,-0.162279 13.512674,6.532173 13.979504,12.842653 0.35031,4.73547 -4.21552,10.84113 -8.958115,11.07605 -3.760899,0.18629 -8.277486,-4.28824 -7.937055,-8.03833 0.218053,-2.40201 3.544228,-4.51697 5.927886,-4.14907 2.120296,0.32726 5.122774,3.33573 3.914797,5.10873 -0.341198,0.50079 -1.178838,-0.29173 -1.747531,-0.50101 -0.952651,-0.35057 -2.16758,-2.07322 -2.773119,-1.2585 z"
       id="path42"
       sodipodi:nodetypes="aaaaaaaaaaaaaaaaaaaaaaaaaaaaaaaaaaaaaaa" />
  </g>
</svg>
